<?xml version="1.0" encoding="utf-8"?>
<!-- Generator: Adobe Illustrator 22.1.0, SVG Export Plug-In . SVG Version: 6.00 Build 0)  -->
<svg version="1.1" id="Layer_1" xmlns="http://www.w3.org/2000/svg" xmlns:xlink="http://www.w3.org/1999/xlink" x="0px" y="0px"
	 viewBox="0 0 528.6 160.2" style="enable-background:new 0 0 528.6 160.2;" xml:space="preserve">
<style type="text/css">
	.st0{fill:none;}
	.st1{fill:#505050;}
	.st2{fill:#231F20;}
	.st3{fill:#FFFFFF;}
</style>
<g>
	<path class="st0" d="M430.9,96.2c8.9,3.7,19-0.5,22.7-9.4c0.9-2.2,1.3-4.5,1.3-6.8c-0.1-6.8-4.1-13.2-10.7-15.9
		c-8.9-3.7-19,0.5-22.7,9.4c-0.9,2.2-1.3,4.5-1.3,6.8C420.2,87,424.2,93.4,430.9,96.2z M425.3,80.1c0-6.8,5.5-12.3,12.3-12.3
		c6.8,0,12.3,5.5,12.3,12.3c0,0,0,0,0,0c0,0,0,0,0,0c0,6.8-5.5,12.3-12.3,12.3C430.7,92.4,425.3,86.9,425.3,80.1
		C425.3,80.1,425.3,80.1,425.3,80.1C425.3,80.1,425.3,80.1,425.3,80.1z"/>
	<path class="st0" d="M89.5,96.2c6.6-2.8,10.7-9.2,10.7-15.9c0-2.3-0.4-4.6-1.3-6.8c-3.7-8.9-13.8-13.1-22.7-9.4
		c-6.6,2.8-10.7,9.2-10.7,15.9c0,2.3,0.4,4.6,1.3,6.8C70.5,95.6,80.7,99.8,89.5,96.2z M70.6,80.1c0-6.8,5.5-12.3,12.3-12.3
		c6.8,0,12.3,5.5,12.3,12.3c0,0,0,0,0,0s0,0,0,0c0,6.8-5.5,12.3-12.3,12.3C76.1,92.4,70.6,86.9,70.6,80.1
		C70.6,80.1,70.6,80.1,70.6,80.1C70.6,80.1,70.6,80.1,70.6,80.1z"/>
	<path class="st0" d="M253.6,96.2c8.9,3.7,19-0.5,22.7-9.4c0.9-2.2,1.3-4.5,1.3-6.8c-0.1-6.8-4.1-13.2-10.7-15.9
		c-8.9-3.7-19,0.5-22.7,9.4c-0.9,2.2-1.3,4.5-1.3,6.8C242.9,87,246.9,93.4,253.6,96.2z M247.9,80.1c0-6.8,5.5-12.3,12.3-12.3
		c6.8,0,12.3,5.5,12.3,12.3c0,0,0,0,0,0c0,0,0,0,0,0c0,6.8-5.5,12.3-12.3,12.3C253.4,92.4,247.9,86.9,247.9,80.1
		C247.9,80.1,247.9,80.1,247.9,80.1C247.9,80.1,247.9,80.1,247.9,80.1z"/>
	<path class="st0" d="M482.4,34.7C482.4,34.7,482.4,34.7,482.4,34.7l-4.3,7.2c-0.1,0.1-0.2,0.3-0.2,0.4c-0.1,0.1-0.1,0.2-0.2,0.3
		c0,0,0,0.1-0.1,0.1c0,0.1-0.1,0.1-0.1,0.2c0,0-0.1,0.1-0.1,0.1c-0.1,0.1-0.1,0.2-0.2,0.2c-0.1,0.1-0.1,0.1-0.2,0.2
		c-0.1,0-0.1,0.1-0.2,0.1v0c0,0-0.1,0.1-0.1,0.1c0,0,0,0,0,0v0c0,0-0.1,0.1-0.2,0.1c0,0,0,0,0,0c-0.1,0-0.1,0-0.1,0.1
		c-0.1,0-0.1,0-0.2,0v0c0,0,0,0,0,0c0,0-0.1,0-0.1,0c0,0-0.1,0-0.1,0c0,0-0.1,0-0.1,0h-5.7c0,0-0.1,0-0.1,0c0,0-0.1,0-0.1,0
		c0,0-0.1,0-0.1,0c-0.1,0-0.2-0.1-0.3-0.1c0,0,0,0,0,0c0,0-0.1-0.1-0.2-0.1v0c0,0,0,0,0,0c0,0-0.1,0-0.1-0.1v0c0,0-0.1-0.1-0.1-0.1
		c-0.1-0.1-0.2-0.3-0.4-0.4c0,0,0,0-0.1-0.1c0-0.1-0.1-0.1-0.1-0.2c0,0-0.1-0.1-0.1-0.2c-0.1-0.1-0.1-0.2-0.2-0.3c0,0,0,0,0,0
		c0,0-0.1-0.1-0.1-0.1c0-0.1-0.1-0.1-0.1-0.2v0l-4.3-7.2h-16.7l-4.3,7.2v0c0,0.1-0.1,0.1-0.1,0.2c0,0-0.1,0.1-0.1,0.1c0,0,0,0,0,0
		c-0.1,0.1-0.1,0.2-0.2,0.3c0,0-0.1,0.1-0.1,0.2c0,0.1-0.1,0.1-0.1,0.2c0,0,0,0.1-0.1,0.1c-0.1,0.1-0.2,0.3-0.3,0.4
		c0,0-0.1,0.1-0.2,0.1v0c0,0-0.1,0.1-0.1,0.1c0,0,0,0,0,0v0c-0.1,0-0.1,0.1-0.2,0.1c0,0,0,0,0,0c-0.1,0.1-0.2,0.1-0.4,0.1
		c0,0-0.1,0-0.1,0c0,0,0,0-0.1,0c0,0-0.1,0-0.1,0h-5.7c0,0-0.1,0-0.1,0c0,0-0.1,0-0.1,0c0,0-0.1,0-0.1,0c0,0,0,0-0.1,0v0
		c-0.1,0-0.1,0-0.2,0c0,0-0.1,0-0.1-0.1c0,0,0,0,0,0c0,0-0.1-0.1-0.2-0.1v0c0,0,0,0,0,0c0,0-0.1,0-0.1-0.1v0c0,0-0.1-0.1-0.2-0.1
		c-0.1-0.1-0.1-0.1-0.2-0.2c-0.1-0.1-0.1-0.2-0.2-0.2c0,0,0-0.1-0.1-0.1c0,0-0.1-0.1-0.1-0.2c0,0,0-0.1-0.1-0.1
		c-0.1-0.1-0.1-0.2-0.2-0.3c-0.1-0.1-0.2-0.3-0.2-0.4l-4.3-7.2h-16.7c0,0,0,0,0,0l-4.3,7.2c-0.2,0.3-0.4,0.6-0.6,0.9
		c-0.1,0.1-0.1,0.2-0.2,0.3c-0.1,0.1-0.2,0.3-0.3,0.4c0,0-0.1,0.1-0.1,0.1v0c0,0-0.1,0.1-0.1,0.1c0,0,0,0,0,0v0c0,0-0.1,0.1-0.2,0.1
		c0,0,0,0,0,0c0,0-0.1,0-0.1,0.1c0,0-0.1,0-0.2,0v0c0,0,0,0,0,0c0,0-0.1,0-0.1,0c0,0-0.1,0-0.1,0c0,0-0.1,0-0.1,0h-5.7
		c0,0-0.1,0-0.2,0c0,0,0,0-0.1,0c0,0-0.1,0-0.1,0c-0.1,0-0.2-0.1-0.3-0.1c0,0,0,0,0,0c-0.1,0-0.1-0.1-0.2-0.1v0c0,0,0,0,0,0
		c0,0,0,0-0.1-0.1c-0.1,0-0.1-0.1-0.2-0.2c-0.1-0.1-0.2-0.2-0.3-0.4c-0.1-0.1-0.2-0.2-0.3-0.3c0,0,0-0.1-0.1-0.1
		c-0.1-0.1-0.1-0.2-0.2-0.3c-0.1-0.1-0.2-0.3-0.2-0.4l-4.3-7.2H376l-4.3,7.2c-0.1,0.1-0.2,0.3-0.2,0.4c-0.1,0.1-0.1,0.2-0.2,0.3
		c0,0,0,0.1-0.1,0.1c-0.1,0.1-0.2,0.2-0.3,0.3c-0.1,0.1-0.2,0.3-0.3,0.4c0,0-0.1,0.1-0.2,0.1v0c0,0-0.1,0.1-0.1,0.1c0,0,0,0,0,0v0
		c-0.1,0-0.1,0.1-0.2,0.1c0,0,0,0,0,0c0,0-0.1,0-0.1,0.1c-0.1,0-0.1,0-0.2,0v0c0,0,0,0,0,0c0,0-0.1,0-0.1,0c0,0-0.1,0-0.1,0
		c0,0-0.1,0-0.1,0h-5.7c0,0-0.1,0-0.1,0c0,0-0.1,0-0.1,0c0,0-0.1,0-0.1,0c-0.1,0-0.3-0.1-0.4-0.1v0c-0.1,0-0.1,0-0.2-0.1
		c-0.1,0-0.1-0.1-0.2-0.1v0c-0.1,0-0.1-0.1-0.2-0.1c-0.1-0.1-0.1-0.1-0.2-0.2c-0.1-0.1-0.1-0.2-0.2-0.2c-0.1-0.1-0.2-0.2-0.3-0.3
		c-0.1-0.1-0.2-0.2-0.2-0.3c0,0-0.1-0.1-0.1-0.1c0-0.1-0.1-0.1-0.1-0.2v0l-4.3-7.2c0,0,0,0,0,0h-16.7l-4.3,7.2
		c-0.1,0.1-0.1,0.2-0.2,0.4c-0.1,0.1-0.1,0.2-0.2,0.3c0,0-0.1,0.1-0.1,0.2c-0.1,0.1-0.1,0.2-0.2,0.3c-0.1,0.1-0.2,0.3-0.3,0.4
		c0,0-0.1,0.1-0.1,0.1v0c0,0-0.1,0.1-0.1,0.1c0,0,0,0,0,0v0c0,0-0.1,0.1-0.2,0.1c0,0,0,0,0,0c0,0-0.1,0-0.1,0.1c0,0-0.1,0-0.2,0v0
		c0,0,0,0,0,0c0,0-0.1,0-0.1,0c0,0-0.1,0-0.1,0c-0.1,0-0.1,0-0.1,0h-5.7c-1,0-1.7-1.1-2.3-2l-4.3-7.2c0,0,0,0,0,0h-16.7l-4.3,7.2
		c-0.1,0.1-0.1,0.2-0.2,0.4c0,0,0,0,0,0c-0.1,0.1-0.1,0.2-0.2,0.3c0,0.1-0.1,0.1-0.2,0.2c-0.2,0.2-0.3,0.4-0.5,0.6
		c-0.1,0-0.1,0.1-0.2,0.2c0,0-0.1,0-0.1,0.1c0,0,0,0,0,0v0c-0.1,0-0.1,0.1-0.2,0.1c0,0,0,0,0,0c0,0-0.1,0-0.1,0.1c0,0-0.1,0-0.2,0v0
		c0,0,0,0-0.1,0c0,0-0.1,0-0.1,0c0,0-0.1,0-0.1,0c0,0-0.1,0-0.1,0h-5.7c0,0-0.1,0-0.1,0c0,0-0.1,0-0.1,0c0,0-0.1,0-0.1,0
		c0,0,0,0-0.1,0v0c-0.1,0-0.1,0-0.2,0c0,0-0.1,0-0.1-0.1c0,0,0,0,0,0c0,0-0.1-0.1-0.2-0.1v0c0,0,0,0,0,0c0,0-0.1,0-0.1-0.1v0
		c0,0-0.1-0.1-0.2-0.1c-0.1-0.1-0.2-0.2-0.3-0.4c-0.1-0.1-0.1-0.2-0.2-0.3c0,0-0.1-0.1-0.1-0.2c-0.1-0.1-0.2-0.2-0.2-0.3
		c-0.1-0.1-0.1-0.2-0.2-0.4l-4.3-7.2c0,0,0,0,0,0h-16.7c0,0,0,0,0,0l-4.3,7.2c-0.1,0.1-0.1,0.2-0.2,0.4c-0.1,0.1-0.1,0.2-0.2,0.3v0
		c0,0,0,0-0.1,0.1c-0.1,0.1-0.1,0.2-0.2,0.3c-0.1,0.1-0.2,0.2-0.2,0.3l-0.2,0.2c0,0-0.1,0.1-0.1,0.1v0c-0.1,0-0.1,0.1-0.2,0.1
		c0,0-0.1,0.1-0.2,0.1v0c-0.1,0.1-0.3,0.1-0.4,0.1c0,0-0.1,0-0.1,0c0,0,0,0-0.1,0c0,0-0.1,0-0.1,0h-5.7c0,0-0.1,0-0.1,0
		c0,0-0.1,0-0.1,0c0,0-0.1,0-0.1,0c0,0,0,0,0,0v0c-0.1,0-0.1,0-0.2,0c0,0-0.1,0-0.1-0.1c0,0,0,0,0,0c-0.1,0-0.1-0.1-0.2-0.1v0
		c0,0,0,0,0,0c0,0-0.1,0-0.1-0.1v0c0,0-0.1-0.1-0.2-0.1c-0.4-0.4-0.8-1-1.1-1.5l-4.3-7.2h-16.7l-4.3,7.2c-0.1,0.1-0.2,0.3-0.2,0.4
		c-0.1,0.1-0.1,0.2-0.2,0.3c0,0,0,0.1-0.1,0.1c-0.1,0.1-0.1,0.2-0.2,0.3c-0.1,0.1-0.1,0.2-0.2,0.3l-0.2,0.2c-0.1,0-0.1,0.1-0.2,0.1
		v0c0,0-0.1,0.1-0.1,0.1c0,0,0,0,0,0v0c0,0-0.1,0.1-0.2,0.1c0,0,0,0,0,0c-0.1,0-0.1,0-0.1,0.1c0,0-0.1,0-0.2,0v0c0,0,0,0,0,0
		c0,0-0.1,0-0.1,0c0,0-0.1,0-0.1,0c0,0-0.1,0-0.1,0h-5.7c0,0-0.1,0-0.1,0c0,0-0.1,0-0.1,0c0,0-0.1,0-0.1,0c0,0,0,0,0,0v0
		c-0.1,0-0.1,0-0.2,0c0,0-0.1,0-0.1-0.1c0,0,0,0,0,0c-0.1,0-0.1-0.1-0.2-0.1v0c0,0,0,0,0,0c0,0-0.1,0-0.1-0.1v0
		c-0.1,0-0.1-0.1-0.2-0.1c-0.2-0.2-0.3-0.4-0.5-0.6c-0.1-0.1-0.1-0.1-0.2-0.2c-0.1-0.1-0.1-0.2-0.2-0.3c0,0,0,0,0,0
		c-0.1-0.1-0.2-0.2-0.2-0.4l-4.3-7.2h-16.7l-4.3,7.2c-0.1,0.1-0.1,0.2-0.2,0.4c0,0,0,0,0,0c-0.1,0.1-0.1,0.2-0.2,0.3
		c-0.1,0.1-0.1,0.1-0.2,0.2c-0.1,0.2-0.3,0.4-0.5,0.6c-0.1,0-0.1,0.1-0.2,0.2c0,0,0,0-0.1,0.1c0,0,0,0,0,0v0c0,0-0.1,0.1-0.2,0.1
		c0,0,0,0-0.1,0c0,0-0.1,0-0.1,0.1c0,0-0.1,0-0.2,0v0c0,0,0,0,0,0c0,0-0.1,0-0.1,0c0,0-0.1,0-0.1,0c0,0-0.1,0-0.1,0h-5.7
		c0,0-0.1,0-0.1,0c0,0-0.1,0-0.1,0c0,0-0.1,0-0.1,0c0,0,0,0,0,0v0c-0.1,0-0.1,0-0.2,0c0,0-0.1,0-0.1-0.1c0,0,0,0,0,0
		c0,0-0.1-0.1-0.2-0.1v0c0,0,0,0,0,0c0,0-0.1,0-0.1-0.1v0c0,0-0.1-0.1-0.1-0.1c-0.1-0.1-0.2-0.2-0.3-0.4c-0.1-0.1-0.1-0.2-0.2-0.3
		c0,0-0.1-0.1-0.1-0.2c-0.1-0.1-0.2-0.2-0.2-0.3c-0.1-0.1-0.2-0.2-0.2-0.4l-4.3-7.2c0,0,0,0,0,0h-16.7l-4.3,7.2
		c-0.1,0.1-0.1,0.2-0.2,0.4c-0.1,0.1-0.1,0.2-0.2,0.3v0c0,0,0,0-0.1,0.1c-0.1,0.1-0.1,0.2-0.2,0.3c-0.1,0.1-0.2,0.2-0.2,0.3
		l-0.2,0.2c-0.1,0-0.1,0.1-0.2,0.1v0c0,0-0.1,0.1-0.2,0.1c-0.1,0-0.1,0.1-0.2,0.1v0c-0.1,0.1-0.3,0.1-0.4,0.1c0,0-0.1,0-0.1,0
		c0,0,0,0-0.1,0c0,0-0.1,0-0.1,0H151c0,0-0.1,0-0.1,0c0,0-0.1,0-0.1,0c0,0-0.1,0-0.1,0c0,0,0,0,0,0v0c-0.1,0-0.1,0-0.2,0
		c0,0-0.1,0-0.1-0.1c0,0,0,0,0,0c-0.1,0-0.1-0.1-0.2-0.1v0c0,0,0,0,0,0c0,0-0.1,0-0.1-0.1v0c0,0-0.1-0.1-0.1-0.1
		c-0.1-0.1-0.2-0.2-0.3-0.4c-0.1-0.1-0.1-0.2-0.2-0.3c0,0-0.1-0.1-0.1-0.2c-0.1-0.1-0.2-0.2-0.2-0.3c-0.1-0.1-0.2-0.2-0.2-0.4
		l-4.3-7.2h-16.7l-4.3,7.2c-0.1,0.1-0.2,0.3-0.2,0.4c-0.1,0.1-0.1,0.2-0.2,0.3c0,0,0,0.1-0.1,0.1c-0.1,0.1-0.2,0.2-0.3,0.3
		c-0.1,0.1-0.2,0.3-0.3,0.4c-0.1,0-0.1,0.1-0.2,0.2c0,0,0,0-0.1,0.1c0,0,0,0,0,0v0c0,0-0.1,0.1-0.2,0.1c0,0,0,0,0,0
		c-0.1,0.1-0.2,0.1-0.3,0.1c0,0-0.1,0-0.1,0c0,0,0,0-0.1,0c0,0-0.1,0-0.1,0h-5.7c-0.1,0-0.1,0-0.1,0c0,0-0.1,0-0.1,0
		c0,0-0.1,0-0.1,0c0,0,0,0,0,0v0c-0.1,0-0.1,0-0.2,0c0,0-0.1,0-0.1-0.1c0,0,0,0,0,0c0,0-0.1-0.1-0.2-0.1v0c0,0,0,0,0,0
		c0,0-0.1,0-0.1-0.1v0c0,0-0.1-0.1-0.2-0.1c-0.1-0.1-0.2-0.2-0.3-0.4c-0.1-0.1-0.1-0.2-0.2-0.3c-0.2-0.3-0.4-0.6-0.6-0.9l-4.3-7.2
		c0,0,0,0,0,0H92.3c0,0,0,0,0,0L88,41.8c-0.1,0.1-0.1,0.2-0.2,0.4c-0.1,0.1-0.1,0.2-0.2,0.3v0c0,0,0,0-0.1,0.1
		c-0.2,0.3-0.4,0.5-0.6,0.7c-0.1,0-0.1,0.1-0.2,0.2c0,0,0,0-0.1,0.1c0,0,0,0,0,0v0c0,0-0.1,0.1-0.2,0.1c0,0,0,0,0,0
		c0,0-0.1,0-0.1,0.1c-0.1,0-0.1,0-0.2,0v0c0,0,0,0,0,0c0,0-0.1,0-0.1,0c0,0-0.1,0-0.1,0c0,0-0.1,0-0.1,0H80c0,0-0.1,0-0.1,0
		c0,0,0,0-0.1,0c0,0-0.1,0-0.1,0c-0.1,0-0.2-0.1-0.3-0.1c0,0,0,0,0,0c0,0-0.1-0.1-0.2-0.1v0c0,0,0,0,0,0c0,0-0.1,0-0.1-0.1v0
		c0,0-0.1-0.1-0.1-0.1c-0.2-0.2-0.3-0.4-0.5-0.6c-0.1-0.1-0.1-0.1-0.2-0.2c-0.1-0.1-0.1-0.2-0.2-0.3c0,0,0,0,0,0
		c-0.1-0.1-0.2-0.2-0.2-0.4L74,35.6c-0.1,0-0.1,0-0.2,0c-0.3,0.1-0.6,0.1-1,0.2c-0.4,0.1-0.8,0.2-1.3,0.3c-0.3,0.1-0.6,0.2-0.9,0.3
		c-0.4,0.1-0.9,0.2-1.3,0.4c-0.3,0.1-0.6,0.2-0.8,0.3c-0.4,0.1-0.9,0.3-1.3,0.4c-0.3,0.1-0.5,0.2-0.8,0.3c-0.4,0.2-0.9,0.3-1.3,0.5
		c-0.2,0.1-0.4,0.2-0.7,0.3c-0.5,0.2-0.9,0.4-1.4,0.6c-0.2,0.1-0.4,0.2-0.6,0.3c-0.5,0.2-0.9,0.5-1.4,0.7c-0.2,0.1-0.3,0.2-0.5,0.3
		c-0.5,0.3-0.9,0.5-1.4,0.8c-0.2,0.1-0.3,0.2-0.5,0.3c-0.4,0.3-0.8,0.5-1.3,0.8v0l1.8,7.1c0.1,0.5,0.3,1.1,0.3,1.6
		c0,0.5-0.1,1-0.5,1.4l-4,4c0,0-0.1,0.1-0.1,0.1c0,0,0,0,0,0c0,0,0,0,0,0c0,0,0,0-0.1,0v0c0,0,0,0,0,0c0,0-0.1,0-0.1,0.1
		c-0.1,0-0.2,0.1-0.3,0.1c0,0-0.1,0-0.2,0c-0.3,0-0.5,0-0.8,0c-0.3,0-0.6-0.1-0.9-0.2c-0.1,0-0.3-0.1-0.4-0.1l-7.1-1.8
		c-0.2,0.3-0.4,0.6-0.5,0.8c-0.2,0.3-0.4,0.6-0.6,0.9c-0.2,0.3-0.3,0.6-0.5,0.9c-0.2,0.4-0.4,0.7-0.6,1.1c-0.1,0.2-0.3,0.5-0.4,0.8
		c-0.2,0.4-0.4,0.8-0.6,1.2c-0.1,0.2-0.2,0.4-0.3,0.6c-0.2,0.5-0.4,0.9-0.6,1.4c-0.1,0.2-0.1,0.4-0.2,0.5c-0.2,0.5-0.4,1-0.6,1.5
		c0,0.1-0.1,0.3-0.1,0.4c-0.2,0.6-0.4,1.1-0.6,1.7c0,0.1-0.1,0.2-0.1,0.4c-0.2,0.6-0.3,1.2-0.5,1.8c0,0.1,0,0.2-0.1,0.3
		c-0.2,0.6-0.3,1.3-0.4,1.9v0l6.3,3.7c0.1,0.1,0.2,0.1,0.3,0.2c0.1,0.1,0.2,0.2,0.4,0.2c0.1,0.1,0.2,0.2,0.3,0.3
		c0.1,0.1,0.2,0.2,0.3,0.3c0.1,0,0.1,0.1,0.1,0.1s0.1,0.1,0.1,0.2c0,0,0.1,0.1,0.1,0.1c0,0.1,0.1,0.2,0.1,0.2c0,0,0,0,0,0.1
		c0,0,0,0,0,0c0,0.1,0.1,0.2,0.1,0.2c0,0.1,0,0.2,0,0.3V83c0,0.1,0,0.2,0,0.3c0,0.1-0.1,0.2-0.1,0.3c0,0.1-0.1,0.1-0.1,0.2
		c0,0,0,0,0,0c0,0,0,0.1-0.1,0.1c0,0,0,0,0,0.1c0,0,0,0.1-0.1,0.1c0,0-0.1,0.1-0.2,0.1c-0.1,0.1-0.1,0.1-0.2,0.2c0,0,0,0-0.1,0
		c-0.1,0.1-0.2,0.2-0.3,0.3c-0.2,0.2-0.5,0.3-0.7,0.5L38.3,89c1.2,6,3.5,11.5,6.8,16.4l7.1-1.8c1-0.3,2.3-0.5,3,0.2v0l4,4v0
		c0.4,0.4,0.5,0.9,0.5,1.4c0,0.5-0.1,1.1-0.3,1.6l-1.8,7.1c0.4,0.3,0.9,0.6,1.3,0.8v0c0.1,0.1,0.2,0.1,0.3,0.2
		c0.1,0,0.1,0.1,0.2,0.1c0,0,0,0,0,0c0.4,0.3,0.8,0.5,1.3,0.7c0,0,0.1,0.1,0.2,0.1c0.2,0.1,0.3,0.2,0.5,0.3c0.3,0.2,0.7,0.4,1,0.5
		c0.1,0,0.1,0.1,0.2,0.1c0.1,0.1,0.2,0.1,0.4,0.2c0.5,0.2,0.9,0.4,1.4,0.7c0.4,0.2,0.8,0.3,1.2,0.5c0.4,0.2,0.8,0.3,1.2,0.5
		c0.6,0.2,1.2,0.4,1.8,0.6c0.3,0.1,0.7,0.2,1.1,0.3c0.4,0.1,0.9,0.3,1.3,0.4c0.3,0.1,0.6,0.1,0.8,0.2c0.3,0.1,0.6,0.2,1,0.2
		c0.4,0.1,0.8,0.2,1.3,0.3l3.8-6.3c0.3-0.5,0.6-1,1-1.4c0,0,0.1-0.1,0.1-0.1c0.1,0,0.1-0.1,0.2-0.1l0.1-0.1c0,0,0,0,0.1-0.1
		c0,0,0.1-0.1,0.2-0.1v0c0,0,0.1,0,0.1-0.1c0,0,0,0,0,0v0c0.1,0,0.1,0,0.2,0v0c0,0,0,0,0,0c0,0,0.1,0,0.1,0c0,0,0,0,0.1,0
		c0,0,0.1,0,0.1,0h5.7c0.1,0,0.1,0,0.1,0c0,0,0.1,0,0.1,0c0,0,0.1,0,0.1,0c0,0,0,0,0,0v0c0.1,0,0.1,0,0.2,0h0c0,0,0.1,0,0.1,0
		c0,0,0,0,0,0c0,0,0.1,0.1,0.2,0.1v0c0,0,0,0,0,0c0,0,0,0,0.1,0.1c0.1,0,0.1,0.1,0.2,0.1c0,0,0.1,0.1,0.1,0.1
		c0.1,0.1,0.2,0.2,0.3,0.3c0.1,0.2,0.2,0.3,0.3,0.5c0.1,0.1,0.1,0.1,0.1,0.2c0,0,0,0,0,0c0.1,0.1,0.1,0.2,0.2,0.3v0l4.3,7.1h16.7
		l4.3-7.1c0.3-0.5,0.6-1,1-1.4l0.1-0.1c0.1-0.1,0.2-0.1,0.3-0.2c0,0,0,0,0,0v0c0,0,0.1-0.1,0.2-0.1c0,0,0,0,0,0c0,0,0.1,0,0.1,0
		c0.1,0,0.1,0,0.2,0v0c0,0,0,0,0,0c0,0,0.1,0,0.1,0c0,0,0,0,0.1,0c0,0,0.1,0,0.2,0h5.7c0,0,0.1,0,0.1,0c0,0,0.1,0,0.1,0
		c0,0,0.1,0,0.1,0c0,0,0,0,0,0c0.1,0,0.1,0,0.2,0v0c0,0,0,0,0,0c0,0,0,0,0.1,0c0,0,0,0,0.1,0c0.1,0,0.1,0.1,0.2,0.1v0c0,0,0,0,0,0
		c0,0,0.1,0,0.1,0.1c0.1,0,0.1,0.1,0.2,0.1c0,0,0.1,0.1,0.1,0.1c0.1,0.1,0.2,0.2,0.3,0.3c0.1,0.2,0.2,0.3,0.3,0.5
		c0,0.1,0.1,0.1,0.1,0.2c0,0,0,0,0,0c0.1,0.1,0.1,0.2,0.2,0.3v0l4.3,7.1h16.7l4.3-7.1c0.3-0.5,0.6-1,1-1.4c0,0,0.1-0.1,0.1-0.1
		c0.1-0.1,0.1-0.1,0.2-0.1c0,0,0.1,0,0.1-0.1c0,0,0,0,0,0v0c0,0,0.1-0.1,0.2-0.1c0,0,0,0,0,0c0,0,0.1,0,0.1,0h0c0,0,0.1,0,0.2,0v0
		c0,0,0,0,0,0c0,0,0.1,0,0.1,0c0,0,0.1,0,0.1,0c0,0,0.1,0,0.1,0h5.7c0,0,0.1,0,0.1,0c0,0,0,0,0.1,0c0,0,0.1,0,0.1,0c0,0,0,0,0.1,0v0
		c0.1,0,0.1,0,0.2,0c0,0,0.1,0,0.1,0c0,0,0,0,0,0c0,0,0.1,0.1,0.2,0.1v0c0,0,0,0,0,0c0,0,0,0,0.1,0.1c0.1,0,0.1,0.1,0.2,0.1
		c0,0,0.1,0.1,0.1,0.1c0,0,0.1,0.1,0.1,0.1c0.1,0,0.1,0.1,0.1,0.2c0,0,0,0,0,0c0.1,0.1,0.2,0.2,0.2,0.3c0,0,0.1,0.1,0.1,0.1
		c0.1,0.2,0.2,0.4,0.3,0.6v0l4.3,7.1h16.7l4.3-7.1c0.3-0.5,0.6-1,1-1.4l0.1-0.1c0.1-0.1,0.2-0.1,0.3-0.2c0,0,0,0,0,0v0
		c0,0,0.1-0.1,0.2-0.1c0,0,0,0,0,0c0,0,0.1,0,0.1,0h0c0.1,0,0.1,0,0.2,0v0c0,0,0,0,0,0c0,0,0.1,0,0.1,0c0,0,0.1,0,0.1,0
		c0,0,0.1,0,0.1,0h5.7c0,0,0.1,0,0.1,0c0,0,0,0,0.1,0c0,0,0.1,0,0.1,0c0,0,0,0,0,0v0c0.1,0,0.1,0,0.2,0c0,0,0.1,0,0.1,0c0,0,0,0,0,0
		c0,0,0.1,0.1,0.2,0.1v0c0,0,0,0,0,0c0,0,0,0,0.1,0.1c0.1,0,0.1,0.1,0.2,0.1c0.1,0,0.1,0.1,0.1,0.1c0,0,0.1,0.1,0.1,0.1
		c0,0,0.1,0.1,0.1,0.2c0,0,0,0,0,0c0.1,0.1,0.2,0.2,0.2,0.3c0,0,0.1,0.1,0.1,0.1c0.1,0.2,0.2,0.4,0.4,0.6v0l4.3,7.1h16.7l4.3-7.1
		c0.3-0.5,0.6-1,1-1.4c0.1,0,0.1-0.1,0.1-0.1c0.1,0,0.1-0.1,0.2-0.1l0.1-0.1c0,0,0.1,0,0.1-0.1c0,0,0.1-0.1,0.2-0.1v0
		c0,0,0.1,0,0.1-0.1c0,0,0,0,0,0v0c0.1,0,0.1,0,0.2,0v0c0,0,0,0,0,0c0,0,0.1,0,0.1,0c0,0,0,0,0.1,0c0,0,0.1,0,0.1,0h5.7
		c0.1,0,0.1,0,0.1,0c0,0,0.1,0,0.1,0c0,0,0.1,0,0.1,0c0,0,0,0,0,0c0.1,0,0.1,0,0.2,0v0c0,0,0,0,0,0c0,0,0,0,0.1,0c0,0,0,0,0,0
		c0.1,0,0.1,0.1,0.2,0.1v0c0,0,0,0,0,0c0,0,0,0,0.1,0.1c0.1,0,0.1,0.1,0.2,0.1c0,0,0.1,0.1,0.1,0.1c0.1,0.1,0.2,0.2,0.3,0.3
		c0.1,0.2,0.2,0.3,0.4,0.5c0,0.1,0.1,0.1,0.1,0.2c0,0,0,0,0,0c0.1,0.1,0.1,0.2,0.2,0.3v0l4.3,7.1h16.7l4.3-7.1c0.3-0.5,0.6-1,1-1.4
		l0.1-0.1c0.1-0.1,0.2-0.1,0.3-0.2c0,0,0,0,0,0v0c0,0,0.1-0.1,0.2-0.1c0,0,0,0,0,0c0,0,0.1,0,0.1,0c0.1,0,0.1,0,0.2,0v0c0,0,0,0,0,0
		c0,0,0.1,0,0.1,0c0,0,0.1,0,0.1,0c0.1,0,0.1,0,0.2,0h5.7c0,0,0.1,0,0.1,0c0,0,0.1,0,0.1,0c0,0,0.1,0,0.1,0c0,0,0,0,0,0
		c0.1,0,0.1,0,0.2,0v0c0,0,0,0,0,0c0,0,0,0,0.1,0c0,0,0,0,0,0c0.1,0,0.1,0.1,0.2,0.1v0c0,0,0,0,0,0c0.1,0.1,0.2,0.1,0.3,0.2
		c0.1,0,0.1,0.1,0.1,0.1c0,0,0.1,0.1,0.1,0.1c0,0,0.1,0.1,0.1,0.2c0,0,0,0,0,0c0.1,0.1,0.2,0.2,0.2,0.3c0,0,0.1,0.1,0.1,0.1
		c0.1,0.2,0.2,0.4,0.4,0.6v0l4.3,7.1h16.7l4.3-7.1c0.3-0.5,0.6-1,1-1.4c0,0,0.1-0.1,0.1-0.1c0.1-0.1,0.2-0.1,0.3-0.2c0,0,0,0,0,0v0
		c0.1,0,0.1-0.1,0.2-0.1c0,0,0,0,0,0c0,0,0,0,0.1,0c0,0,0,0,0,0v0c0,0,0.1,0,0.2,0c0,0,0,0,0.1,0c0,0,0.1,0,0.1,0c0,0,0.1,0,0.1,0
		c0,0,0.1,0,0.1,0h5.7c0,0,0.1,0,0.1,0c0,0,0,0,0.1,0c0,0,0.1,0,0.1,0c0,0,0,0,0,0v0c0.1,0,0.1,0,0.2,0c0,0,0.1,0,0.1,0c0,0,0,0,0,0
		c0.1,0,0.1,0.1,0.2,0.1v0c0,0,0,0,0,0c0,0,0,0,0.1,0.1c0.1,0,0.1,0.1,0.2,0.1c0,0,0.1,0.1,0.1,0.1c0,0,0.1,0.1,0.1,0.1
		c0,0,0.1,0.1,0.1,0.2c0,0,0,0,0,0c0.1,0.1,0.2,0.2,0.2,0.3c0,0,0.1,0.1,0.1,0.1c0.1,0.2,0.2,0.4,0.3,0.6v0l4.3,7.1h16.7l4.3-7.1v0
		c0.1-0.2,0.2-0.4,0.3-0.5c0.1-0.2,0.2-0.3,0.4-0.5c0,0,0,0,0,0c0-0.1,0.1-0.1,0.1-0.2c0,0,0.1-0.1,0.1-0.1c0-0.1,0.1-0.1,0.1-0.1
		c0.1-0.1,0.1-0.1,0.2-0.1c0,0,0.1,0,0.1-0.1c0,0,0,0,0,0v0c0.1,0,0.1-0.1,0.2-0.1c0,0,0,0,0,0c0,0,0.1,0,0.1,0c0.1,0,0.1,0,0.2,0v0
		c0,0,0,0,0.1,0c0,0,0.1,0,0.1,0c0,0,0,0,0.1,0c0,0,0.1,0,0.1,0h5.7c0,0,0.1,0,0.1,0c0,0,0.1,0,0.1,0c0,0,0.1,0,0.1,0c0,0,0,0,0,0
		c0.1,0,0.1,0,0.2,0v0c0,0,0,0,0,0c0,0,0,0,0.1,0c0,0,0,0,0,0c0.1,0,0.1,0.1,0.2,0.1v0c0,0,0,0,0,0c0.1,0.1,0.2,0.1,0.3,0.2
		c0,0,0.1,0.1,0.1,0.1c0.4,0.4,0.7,0.9,1,1.4l4.3,7.1h16.7l4.3-7.1v0c0.1-0.2,0.2-0.4,0.3-0.6c0,0,0.1-0.1,0.1-0.1
		c0.1-0.1,0.2-0.2,0.2-0.3c0,0,0,0,0,0c0-0.1,0.1-0.1,0.1-0.2c0,0,0.1-0.1,0.1-0.1c0-0.1,0.1-0.1,0.1-0.1c0.1-0.1,0.1-0.1,0.2-0.1
		c0,0,0.1,0,0.1-0.1c0,0,0,0,0,0v0c0,0,0.1-0.1,0.2-0.1c0,0,0,0,0,0c0,0,0.1,0,0.1,0c0.1,0,0.1,0,0.2,0v0c0,0,0,0,0,0
		c0,0,0.1,0,0.1,0c0,0,0,0,0.1,0c0,0,0.1,0,0.1,0h5.7c0.1,0,0.1,0,0.1,0c0,0,0.1,0,0.1,0c0,0,0.1,0,0.1,0c0,0,0,0,0,0v0
		c0.1,0,0.1,0,0.2,0h0c0,0,0.1,0,0.1,0c0,0,0,0,0,0c0,0,0.1,0.1,0.2,0.1v0c0,0,0,0,0,0c0,0,0,0,0.1,0.1c0.1,0,0.1,0.1,0.2,0.1
		c0,0,0.1,0.1,0.1,0.1c0.4,0.4,0.7,0.9,1,1.4l4.3,7.1h16.7l4.3-7.1v0c0.1-0.1,0.1-0.2,0.2-0.3c0,0,0,0,0,0c0-0.1,0.1-0.1,0.1-0.2
		c0.1-0.2,0.2-0.3,0.3-0.5c0.1-0.1,0.2-0.2,0.3-0.3c0-0.1,0.1-0.1,0.1-0.1c0.1-0.1,0.1-0.1,0.2-0.1c0,0,0,0,0.1-0.1c0,0,0,0,0,0v0
		c0,0,0.1-0.1,0.2-0.1c0,0,0,0,0,0c0,0,0,0,0.1,0c0,0,0,0,0,0v0c0.1,0,0.1,0,0.2,0c0,0,0,0,0,0c0,0,0.1,0,0.1,0c0,0,0.1,0,0.1,0
		c0,0,0.1,0,0.1,0h5.7c0,0,0.1,0,0.1,0c0,0,0,0,0.1,0c0,0,0.1,0,0.1,0c0,0,0,0,0,0v0c0.1,0,0.1,0,0.2,0v0c0,0,0,0,0,0
		c0,0,0.1,0,0.1,0.1v0c0.1,0,0.1,0.1,0.2,0.1c0,0,0.1,0,0.1,0.1l0.1,0.1c0.1,0,0.1,0.1,0.2,0.1c0,0,0.1,0.1,0.1,0.1
		c0.4,0.4,0.7,0.9,1,1.4l4.3,7.1h16.7l4.3-7.1v0c0.1-0.1,0.1-0.2,0.2-0.3c0,0,0,0,0,0c0-0.1,0.1-0.1,0.1-0.2
		c0.1-0.2,0.2-0.3,0.4-0.5c0.1-0.1,0.2-0.2,0.3-0.3c0-0.1,0.1-0.1,0.1-0.1c0.1-0.1,0.1-0.1,0.2-0.1c0,0,0,0,0.1-0.1c0,0,0,0,0,0v0
		c0,0,0.1-0.1,0.2-0.1c0,0,0,0,0,0c0,0,0,0,0.1,0c0,0,0,0,0,0v0c0,0,0.1,0,0.2,0c0,0,0,0,0.1,0c0,0,0.1,0,0.1,0c0,0,0.1,0,0.1,0
		c0,0,0.1,0,0.1,0h5.7c0.1,0,0.1,0,0.1,0c0,0,0,0,0.1,0c0,0,0.1,0,0.1,0c0,0,0,0,0.1,0v0c0.1,0,0.1,0,0.2,0v0c0,0,0,0,0,0
		c0.1,0,0.1,0,0.1,0.1v0c0.1,0,0.1,0.1,0.2,0.1c0,0,0.1,0,0.1,0.1c0,0,0,0,0.1,0.1c0.1,0,0.1,0.1,0.2,0.1c0,0,0.1,0.1,0.1,0.1
		c0.4,0.4,0.7,0.9,1,1.4l4.3,7.1h16.7l4.3-7.1c0.3-0.5,0.6-1,1-1.4c0,0,0.1-0.1,0.1-0.1c0.1,0,0.1-0.1,0.2-0.1l0.1-0.1
		c0,0,0.1,0,0.1-0.1c0,0,0.1-0.1,0.2-0.1v0c0,0,0.1,0,0.1-0.1c0,0,0,0,0,0v0c0.1,0,0.1,0,0.2,0v0c0,0,0,0,0,0c0,0,0.1,0,0.1,0
		c0,0,0,0,0.1,0c0,0,0.1,0,0.1,0h5.7c0,0,0.1,0,0.1,0c0,0,0.1,0,0.1,0c0,0,0.1,0,0.1,0c0,0,0,0,0,0c0.1,0,0.1,0,0.2,0v0c0,0,0,0,0,0
		c0,0,0,0,0.1,0c0,0,0,0,0,0c0.1,0,0.1,0.1,0.2,0.1v0c0,0,0,0,0,0c0,0,0,0,0.1,0.1c0.1,0,0.1,0.1,0.2,0.1c0,0,0.1,0.1,0.1,0.1
		c0.1,0.1,0.2,0.2,0.3,0.3c0.1,0.2,0.2,0.3,0.4,0.5c0,0.1,0.1,0.1,0.1,0.2c0,0,0,0,0,0c0.1,0.1,0.1,0.2,0.2,0.3v0l4.3,7.1h11.5V34.7
		H482.4z M122.6,92.7l-2.7,6.5c-0.1,0.2-0.2,0.4-0.3,0.5c-0.1,0.1-0.3,0.3-0.5,0.4c-0.2,0.1-0.4,0.2-0.6,0.2c-0.2,0-0.4,0.1-0.6,0.1
		c-0.2,0-0.4,0-0.6,0l-8-1.1h0c-0.3,0.3-0.5,0.7-0.8,1c0,0,0,0,0,0c-0.5,0.7-1.1,1.3-1.6,1.9c-0.3,0.3-0.6,0.6-0.9,0.9
		s-0.6,0.6-0.9,0.9s-0.6,0.6-1,0.9c-0.7,0.6-1.3,1.1-2,1.6v0l1.1,8c0,0.1,0,0.3,0,0.4v0.2c0,0.1,0,0.2,0,0.3c0,0,0,0.1,0,0.1
		c0,0.1,0,0.2,0,0.2c0,0.1,0,0.1,0,0.2c0,0,0,0.1,0,0.1c0,0.1-0.1,0.1-0.1,0.2c0,0.1-0.1,0.2-0.2,0.3c0,0.1-0.1,0.1-0.1,0.2
		c0,0,0,0-0.1,0c0,0,0,0-0.1,0.1c-0.1,0-0.1,0.1-0.2,0.1c0,0,0,0,0,0c-0.1,0.1-0.2,0.1-0.3,0.1l-6.5,2.7c-0.1,0-0.2,0.1-0.3,0.1
		c-0.1,0-0.2,0-0.3,0h0c-0.1,0-0.2,0-0.2,0c-0.1,0-0.2,0-0.3-0.1c-0.1,0-0.2-0.1-0.3-0.1c0,0-0.1,0-0.1-0.1c-0.4-0.2-0.8-0.6-1-1
		l-4.9-6.4c-3.4,0.5-6.8,0.5-10.2,0l-4.9,6.4c-0.1,0.2-0.3,0.3-0.4,0.5c-0.1,0.1-0.1,0.1-0.2,0.2c0,0,0,0,0,0v0c0,0,0,0-0.1,0
		c-0.2,0.2-0.4,0.3-0.6,0.4c0,0,0,0-0.1,0v0c-0.4,0.1-0.8,0.1-1.2,0l-6.6-2.7c-0.1,0-0.2-0.1-0.3-0.2c-0.1-0.1-0.2-0.1-0.2-0.2
		c0,0,0,0-0.1-0.1c0,0-0.1-0.1-0.1-0.1c-0.1-0.1-0.1-0.2-0.2-0.3c0,0,0,0,0,0c-0.1-0.2-0.1-0.4-0.2-0.6c0-0.1,0-0.2,0-0.2
		c0-0.1,0-0.1,0-0.2c0-0.1,0-0.3,0-0.4c0-0.1,0-0.3,0-0.4l1.1-8v0c-0.3-0.3-0.7-0.5-1-0.8l0,0c-0.3-0.3-0.7-0.5-1-0.8c0,0,0,0,0,0
		c-0.2-0.2-0.5-0.4-0.7-0.6c-0.1-0.1-0.2-0.1-0.2-0.2c-0.2-0.1-0.3-0.3-0.5-0.4c-0.1-0.1-0.3-0.3-0.5-0.5c-0.1-0.1-0.1-0.1-0.2-0.2
		c-0.2-0.2-0.5-0.5-0.7-0.7c-0.6-0.6-1.1-1.3-1.7-2c-0.3-0.3-0.5-0.7-0.8-1l-8,1.1c-0.3,0-0.5,0.1-0.8,0c-0.1,0-0.2,0-0.2,0
		c0,0-0.1,0-0.2,0c0,0,0,0-0.1,0c0,0,0,0,0,0c-0.1,0-0.2-0.1-0.3-0.1c-0.1,0-0.1,0-0.1,0v0c0,0,0,0-0.1,0c-0.1,0-0.1-0.1-0.2-0.1v0
		c0,0,0,0,0,0c0,0,0,0,0,0c0,0-0.1-0.1-0.1-0.1c-0.1-0.1-0.3-0.3-0.3-0.5l-2.7-6.5C43,92.5,43,92.2,43,92c0-0.1,0-0.2,0-0.3
		c0-0.1,0-0.1,0-0.2c0,0,0-0.1,0-0.1c0.1-0.1,0.1-0.3,0.2-0.4c0,0,0,0,0.1-0.1c0,0,0,0,0,0c0-0.1,0.1-0.1,0.1-0.2s0.1-0.1,0.1-0.2
		c0.1-0.1,0.1-0.1,0.2-0.2v0c0.1-0.1,0.2-0.1,0.2-0.2l6.4-4.9c-0.3-1.7-0.4-3.4-0.4-5.1c0-1.7,0.1-3.4,0.4-5l-6.4-4.9
		c-0.2-0.1-0.3-0.3-0.5-0.4c-0.1-0.1-0.3-0.3-0.4-0.5c-0.1-0.2-0.2-0.3-0.3-0.5c-0.1-0.2-0.1-0.3-0.1-0.5c0-0.3,0-0.5,0.1-0.8
		l2.7-6.5c0.1-0.2,0.2-0.4,0.3-0.5c0.1,0,0.1-0.1,0.2-0.2c0,0,0,0,0,0c0,0,0.1-0.1,0.1-0.1c0,0,0,0,0,0c0.1,0,0.1-0.1,0.2-0.1
		c0,0,0.1,0,0.1,0c0,0,0.1,0,0.1,0v0c0.1,0,0.2-0.1,0.2-0.1c0,0,0,0,0.1,0v0c0.1,0,0.1,0,0.2,0h0.1c0,0,0.1,0,0.1,0
		c0.3,0,0.5,0,0.8,0l8,1.1c0.3-0.3,0.5-0.7,0.8-1c0.5-0.7,1.1-1.3,1.6-1.9c0.4-0.5,0.9-0.9,1.3-1.3c0.3-0.3,0.6-0.6,0.9-0.8
		c0,0,0-0.1,0.1-0.1c0,0,0.1-0.1,0.1-0.1c0.3-0.3,0.7-0.6,1-0.8c0,0,0.1-0.1,0.1-0.1c0,0,0,0,0.1,0c0.2-0.2,0.5-0.4,0.7-0.6
		c0.2-0.1,0.3-0.2,0.5-0.4l-1.1-8c0-0.3,0-0.5,0-0.8c0-0.3,0.1-0.6,0.2-0.8c0-0.1,0-0.1,0.1-0.2c0-0.1,0-0.1,0.1-0.2
		c0-0.1,0.1-0.1,0.1-0.2c0-0.1,0.1-0.1,0.2-0.2c0.1-0.1,0.1-0.1,0.2-0.2c0.1,0,0.2-0.1,0.3-0.1l6.6-2.7c0.4-0.2,0.8-0.2,1.1-0.1
		c0,0,0.1,0,0.1,0c0.1,0,0.2,0.1,0.3,0.2c0.1,0.1,0.2,0.1,0.3,0.2c0,0,0.1,0.1,0.2,0.1c0.1,0,0.1,0.1,0.2,0.2
		c0.2,0.1,0.3,0.3,0.4,0.5v0l4.9,6.4c0.4-0.1,0.8-0.1,1.3-0.2c0.4,0,0.8-0.1,1.3-0.1c0.4,0,0.8-0.1,1.1-0.1c0.1,0,0.1,0,0.2,0
		c0.4,0,0.8,0,1.1,0c1.7,0,3.5,0.1,5.2,0.4l0,0l4.9-6.4c0.1-0.2,0.3-0.3,0.4-0.5c0,0,0.1-0.1,0.1-0.1c0,0,0-0.1,0.1-0.1c0,0,0,0,0,0
		v0c0,0,0.1-0.1,0.1-0.1c0,0,0.1-0.1,0.1-0.1c0,0,0,0,0,0c0.1-0.1,0.2-0.1,0.3-0.1c0.1-0.1,0.3-0.1,0.4-0.1c0,0,0.1,0,0.1,0
		c0,0,0.1,0,0.1,0c0.1,0,0.1,0,0.2,0c0,0,0.1,0,0.1,0c0,0,0.1,0,0.1,0c0.1,0,0.1,0,0.2,0.1c0.1,0,0.1,0,0.2,0l6.5,2.7
		c0.1,0,0.2,0.1,0.3,0.2c0,0,0,0,0,0c0.1,0,0.1,0.1,0.2,0.1c0,0,0,0,0.1,0.1c0,0,0,0,0.1,0c0,0,0.1,0.1,0.1,0.2v0
		c0.1,0.1,0.1,0.2,0.2,0.3c0,0.1,0.1,0.2,0.1,0.3c0,0.1,0.1,0.2,0.1,0.3c0,0.1,0,0.1,0,0.2c0,0.2,0,0.4,0,0.6c0,0.1,0,0.3,0,0.4
		l-1.1,8v0c0.7,0.5,1.3,1,2,1.6c0.5,0.4,1,0.8,1.4,1.3c0.2,0.1,0.3,0.3,0.5,0.5c0.6,0.6,1.2,1.2,1.7,1.9c0.3,0.3,0.5,0.7,0.8,1
		c0.3,0.3,0.5,0.7,0.8,1l8-1.1c0.3,0,0.6,0,0.8,0c0,0,0,0,0.1,0h0.1c0.1,0,0.2,0,0.2,0v0c0,0,0,0,0.1,0c0.1,0,0.2,0,0.2,0.1v0
		c0,0,0.1,0,0.1,0c0,0,0.1,0,0.1,0c0.1,0,0.1,0.1,0.2,0.1c0,0,0,0,0,0c0,0,0.1,0.1,0.2,0.1c0,0,0,0,0,0c0.1,0,0.1,0.1,0.2,0.2
		c0.1,0.2,0.3,0.3,0.3,0.5l2.7,6.5c0.1,0.3,0.1,0.5,0.1,0.8c0,0.2,0,0.4-0.1,0.5c-0.1,0.2-0.2,0.3-0.3,0.5c-0.1,0.2-0.2,0.3-0.4,0.5
		c-0.1,0.2-0.3,0.3-0.5,0.4l-6.4,4.9c0.3,1.7,0.4,3.4,0.4,5.1c0,0.5,0,1,0,1.4c0,0.4,0,0.7-0.1,1.1c0,0.4-0.1,0.8-0.1,1.3
		c0,0.4-0.1,0.8-0.2,1.3v0l6.4,4.9c0.1,0.1,0.2,0.1,0.2,0.2v0c0.1,0.1,0.2,0.1,0.2,0.2c0.1,0.1,0.1,0.1,0.1,0.2c0,0,0,0,0.1,0.1
		c0,0,0.1,0.1,0.1,0.1c0,0,0.1,0.1,0.1,0.1c0,0,0,0,0,0c0.1,0.1,0.1,0.1,0.1,0.2c0,0.1,0.1,0.1,0.1,0.2c0,0,0,0,0,0c0,0,0,0,0,0.1
		c0,0.1,0,0.1,0,0.2c0,0.1,0,0.2,0,0.3C122.8,92.2,122.7,92.5,122.6,92.7z M299.9,92.7l-2.7,6.5c0,0.1-0.1,0.2-0.2,0.3
		c0,0.1-0.1,0.1-0.1,0.2c0,0,0,0-0.1,0.1c-0.1,0.1-0.1,0.1-0.2,0.2c0,0,0,0,0,0c-0.1,0.1-0.2,0.1-0.3,0.2c0,0-0.1,0-0.1,0
		c0,0-0.1,0-0.1,0c-0.1,0-0.3,0.1-0.4,0.1c0,0-0.1,0-0.1,0c-0.1,0-0.2,0-0.2,0c-0.1,0-0.1,0-0.2,0c-0.2,0-0.4,0-0.6,0l-8-1.1
		c-0.2,0.3-0.5,0.6-0.7,1c0,0,0,0,0,0c-0.1,0.2-0.3,0.4-0.4,0.5c-0.1,0.2-0.3,0.3-0.4,0.5c0,0,0,0,0,0h0c0,0.1-0.1,0.1-0.1,0.2
		l-0.7,0.8c-0.4,0.4-0.7,0.8-1.1,1.1c-0.2,0.2-0.4,0.4-0.6,0.5c-0.3,0.3-0.7,0.6-1.1,1c-0.6,0.5-1.3,1.1-2,1.6l1.1,8
		c0,0.3,0,0.5,0,0.8c0,0.3-0.1,0.7-0.2,1c0,0,0,0,0,0c0,0.1-0.1,0.1-0.1,0.2c0,0.1-0.1,0.1-0.1,0.2c-0.1,0.1-0.2,0.2-0.4,0.3
		c-0.1,0-0.2,0.1-0.3,0.1l-6.5,2.7c-0.2,0.1-0.4,0.1-0.7,0.1c-0.1,0-0.2,0-0.2,0c0,0,0,0,0,0c0,0-0.1,0-0.1,0c-0.1,0-0.1,0-0.2-0.1
		c0,0,0,0,0,0c0,0,0,0-0.1,0c0,0-0.1,0-0.1,0c0,0-0.1,0-0.1,0v0c0,0-0.1,0-0.1-0.1c-0.1,0-0.1,0-0.2-0.1v0c-0.1,0-0.2-0.1-0.3-0.2
		c-0.1-0.1-0.2-0.1-0.2-0.2c-0.2-0.2-0.3-0.3-0.4-0.5v0l-4.9-6.4c-3.3,0.5-6.8,0.5-10.2,0l-4.9,6.4v0c-0.1,0.2-0.3,0.3-0.4,0.5
		c-0.1,0.1-0.1,0.1-0.2,0.2c0,0-0.1,0.1-0.2,0.1c-0.1,0.1-0.2,0.1-0.3,0.2c-0.1,0.1-0.2,0.1-0.3,0.2c0,0,0,0-0.1,0c0,0-0.1,0-0.1,0
		c-0.3,0.1-0.7,0.1-1.1-0.1l-6.5-2.7c-0.2-0.1-0.4-0.2-0.5-0.3c0,0,0,0-0.1-0.1c0,0-0.1-0.1-0.1-0.2c0,0,0,0,0,0
		c-0.1-0.2-0.2-0.3-0.3-0.5c0-0.1-0.1-0.2-0.1-0.3c0-0.1,0-0.1,0-0.2c0-0.2,0-0.4,0-0.6c0-0.1,0-0.3,0-0.4l1.1-8v0
		c-1.4-1-2.7-2.1-3.9-3.3c-0.3-0.3-0.6-0.6-0.9-0.9c0,0,0,0,0,0c-0.9-0.9-1.7-1.9-2.4-2.9l0,0l-8,1.1c-0.2,0-0.4,0-0.6,0
		c-0.1,0-0.1,0-0.2,0c-0.1,0-0.2,0-0.2,0c0,0-0.1,0-0.1,0c-0.1,0-0.3-0.1-0.4-0.1c0,0-0.1,0-0.1,0c0,0-0.1,0-0.1,0
		c-0.1,0-0.2-0.1-0.3-0.2c0,0,0,0-0.1,0c-0.1,0-0.1-0.1-0.2-0.2c0,0,0,0-0.1-0.1c0,0-0.1-0.1-0.1-0.2c-0.1-0.1-0.1-0.2-0.2-0.3
		l-2.7-6.5c-0.1-0.3-0.1-0.5-0.1-0.7c0-0.1,0-0.2,0-0.3c0-0.1,0-0.1,0-0.2c0,0,0-0.1,0-0.1c0.1-0.1,0.1-0.3,0.2-0.4c0,0,0,0,0-0.1
		c0,0,0,0,0,0c0-0.1,0.1-0.1,0.1-0.2c0.1,0,0.1-0.1,0.2-0.2c0.1-0.1,0.1-0.1,0.2-0.2c0,0,0,0,0,0v0c0.1-0.1,0.2-0.1,0.2-0.2l6.4-4.9
		c-0.1-0.4-0.1-0.8-0.2-1.3c0-0.4-0.1-0.8-0.1-1.3c0-0.4-0.1-0.7-0.1-1.1c0-0.5,0-1,0-1.4c0-1.7,0.1-3.4,0.4-5.1l-6.4-4.9
		c-0.1-0.1-0.2-0.1-0.2-0.2c-0.1-0.1-0.2-0.2-0.3-0.2c-0.1-0.1-0.1-0.1-0.1-0.2c0,0,0,0,0,0c-0.1-0.1-0.1-0.2-0.2-0.2
		c-0.1-0.2-0.2-0.3-0.3-0.5c-0.1-0.2-0.1-0.3-0.1-0.5c0-0.2,0-0.5,0.1-0.7l2.7-6.5c0.1-0.2,0.2-0.4,0.3-0.5c0.1-0.1,0.1-0.1,0.2-0.2
		c0,0,0,0,0,0v0c0,0,0,0,0,0c0.1,0,0.1-0.1,0.2-0.1c0,0,0,0,0,0c0.1,0,0.2-0.1,0.3-0.1c0.2,0,0.3-0.1,0.5-0.1c0,0,0,0,0,0
		c0,0,0.1,0,0.1,0c0.1,0,0.2,0,0.3,0c0.2,0,0.4,0,0.6,0l8,1.1c0.3-0.3,0.5-0.7,0.8-1l0,0c0.5-0.7,1.1-1.3,1.7-1.9c0,0,0,0,0,0
		c0.3-0.3,0.6-0.6,0.9-0.9c0.6-0.6,1.2-1.2,1.9-1.7c0,0,0,0,0,0c0.3-0.3,0.6-0.5,1-0.8l0,0c0.3-0.3,0.7-0.5,1-0.8v0l-1.1-8
		c0-0.1,0-0.3,0-0.4c0-0.2,0-0.3,0-0.5c0,0,0-0.1,0-0.1c0,0,0,0,0,0c0-0.1,0-0.1,0-0.2c0-0.1,0.1-0.2,0.1-0.3
		c0.1-0.2,0.1-0.4,0.3-0.5v0c0,0,0.1-0.1,0.1-0.1c0,0,0.1,0,0.1-0.1c0.1-0.1,0.2-0.1,0.2-0.2c0.1-0.1,0.2-0.1,0.3-0.2l6.5-2.7
		c0.4-0.2,0.8-0.2,1.1-0.1c0.1,0,0.1,0,0.2,0c0.1,0,0.2,0.1,0.3,0.2c0.1,0.1,0.2,0.1,0.3,0.2c0,0,0.1,0.1,0.2,0.1
		c0.1,0,0.1,0.1,0.2,0.2c0.2,0.1,0.3,0.3,0.4,0.5v0l4.9,6.4v0c1.7-0.3,3.4-0.4,5.1-0.4c1.7,0,3.4,0.1,5,0.4l4.9-6.4v0
		c0.1-0.2,0.3-0.3,0.4-0.5c0,0,0.1-0.1,0.1-0.1c0,0,0.1-0.1,0.1-0.1c0,0,0.1-0.1,0.2-0.1c0,0,0,0,0,0c0,0,0,0,0.1,0
		c0.1-0.1,0.2-0.1,0.3-0.2c0.2-0.1,0.3-0.1,0.5-0.2c0.1,0,0.2,0,0.3,0c0.1,0,0.2,0,0.3,0c0.1,0,0.1,0,0.2,0c0.1,0,0.1,0,0.2,0.1
		l6.5,2.7c0.1,0,0.2,0.1,0.3,0.2c0.1,0.1,0.2,0.1,0.2,0.2c0,0,0,0,0.1,0.1c0,0.1,0.1,0.1,0.1,0.2c0.1,0.1,0.1,0.2,0.2,0.3
		c0,0,0,0,0,0c0.1,0.2,0.1,0.4,0.2,0.6c0,0.1,0,0.1,0,0.2c0,0,0,0,0,0c0,0.1,0,0.1,0,0.2c0,0.1,0,0.3,0,0.4c0,0.1,0,0.3,0,0.4
		l-1.1,8l3,2.5v0h0c0.3,0.3,0.6,0.6,0.9,0.9c0.6,0.6,1.2,1.2,1.7,1.9c0.3,0.3,0.5,0.6,0.8,1c0,0,0,0,0,0c0.3,0.3,0.5,0.7,0.8,1
		l8-1.1c0.2,0,0.4,0,0.6,0c0.1,0,0.2,0,0.3,0c0,0,0.1,0,0.1,0c0,0,0,0,0,0c0.2,0,0.3,0.1,0.5,0.1c0.1,0,0.1,0,0.2,0.1c0,0,0,0,0.1,0
		c0,0,0.1,0,0.1,0c0.1,0,0.1,0.1,0.2,0.1v0c0,0,0,0,0,0c0,0,0,0,0,0c0.1,0,0.1,0.1,0.1,0.1c0.1,0.2,0.3,0.3,0.3,0.5l2.7,6.5
		c0.1,0.3,0.1,0.5,0.1,0.7c0,0.2-0.1,0.4-0.1,0.5c-0.1,0.2-0.1,0.3-0.3,0.5c-0.1,0.1-0.1,0.2-0.2,0.2c0,0,0,0,0,0
		c0,0-0.1,0.1-0.1,0.2c-0.1,0.1-0.2,0.2-0.3,0.2c-0.1,0.1-0.2,0.1-0.2,0.2l-6.4,4.9c0.1,0.4,0.1,0.8,0.2,1.3c0,0.3,0.1,0.7,0.1,1
		c0,0.2,0,0.4,0,0.6c0,0.3,0,0.6,0.1,0.9c0,0.4,0,0.8,0,1.3c0,1.7-0.1,3.4-0.4,5.1l6.4,4.9c0.1,0.1,0.2,0.1,0.2,0.2v0c0,0,0,0,0,0
		c0.1,0.1,0.2,0.1,0.2,0.2c0.1,0.1,0.1,0.1,0.1,0.2c0,0.1,0.1,0.1,0.1,0.2c0.1,0.2,0.3,0.4,0.3,0.5c0,0,0,0.1,0,0.1
		c0,0.1,0,0.1,0,0.2c0,0.1,0,0.2,0,0.3C300.1,92.2,300,92.5,299.9,92.7z M477.3,92.7l-2.7,6.5v0c0,0.1-0.1,0.2-0.2,0.3c0,0,0,0,0,0
		c-0.1,0.1-0.1,0.2-0.2,0.2c0,0,0,0-0.1,0c-0.1,0.1-0.1,0.1-0.2,0.2c0,0-0.1,0-0.1,0.1c-0.1,0-0.2,0.1-0.3,0.1
		c-0.1,0-0.3,0.1-0.4,0.1c0,0-0.1,0-0.1,0c-0.1,0-0.2,0-0.2,0c-0.1,0-0.1,0-0.2,0c-0.2,0-0.4,0-0.6,0l-8-1.1c-0.2,0.3-0.5,0.6-0.7,1
		c0,0,0,0,0,0c-0.1,0.2-0.3,0.4-0.4,0.5c-0.1,0.2-0.3,0.3-0.4,0.5c0,0,0,0,0,0h0c0,0.1-0.1,0.1-0.1,0.2l-0.3,0.3
		c0,0-0.1,0.1-0.1,0.1c-0.3,0.4-0.6,0.7-1,1c-0.1,0.1-0.3,0.3-0.5,0.5c-0.2,0.2-0.4,0.4-0.6,0.5c-0.3,0.3-0.7,0.6-1.1,1
		c-0.6,0.5-1.3,1.1-2,1.6l1.1,8c0,0.3,0,0.5,0,0.8c0,0.1,0,0.2,0,0.3c0,0.1,0,0.1,0,0.2c0,0.1,0,0.2-0.1,0.2c0,0.1-0.1,0.1-0.1,0.2
		c0,0,0,0.1-0.1,0.1c0,0,0,0,0,0c0,0,0,0.1-0.1,0.2c-0.1,0.2-0.3,0.3-0.5,0.4c-0.1,0-0.2,0.1-0.3,0.1l-6.5,2.7
		c-0.6,0.3-1.2,0.1-1.7-0.2c-0.1-0.1-0.2-0.1-0.3-0.2c-0.1-0.1-0.2-0.1-0.2-0.2c-0.1-0.2-0.3-0.3-0.4-0.5v0l-4.9-6.4
		c-3.3,0.5-6.8,0.5-10.2,0l-4.9,6.4v0c-0.1,0.2-0.3,0.3-0.4,0.5c-0.1,0.1-0.1,0.1-0.2,0.2c0,0,0,0-0.1,0c0,0-0.1,0.1-0.1,0.1
		c0,0-0.1,0-0.1,0.1v0c0,0,0,0-0.1,0c-0.1,0.1-0.3,0.1-0.4,0.2c0,0,0,0-0.1,0c0,0-0.1,0-0.1,0c-0.3,0.1-0.7,0.1-1.1-0.1l-6.5-2.7
		c-0.9-0.4-1.2-1.3-1.1-2.2c0-0.1,0-0.3,0-0.4l1.1-8v0c-1-0.8-2-1.6-3-2.5c-0.3-0.3-0.6-0.6-0.9-0.9c-1.2-1.2-2.3-2.5-3.3-3.8l0,0
		l-8,1.1c-0.2,0-0.4,0-0.6,0c-0.1,0-0.2,0-0.3,0h0c0,0-0.1,0-0.1,0c0,0-0.1,0-0.2,0c0,0-0.1,0-0.1,0c0,0,0,0,0,0
		c-0.1,0-0.2-0.1-0.3-0.1c0,0-0.1,0-0.1,0c0,0,0,0,0,0v0c-0.1,0-0.2-0.1-0.3-0.2c-0.1,0-0.1-0.1-0.2-0.1c0,0-0.1-0.1-0.1-0.1
		c0,0-0.1-0.1-0.1-0.1c0,0,0,0-0.1-0.1c0,0,0,0,0,0c0,0,0,0,0,0c0,0,0-0.1-0.1-0.1c0,0,0-0.1-0.1-0.1l-2.7-6.5
		c-0.1-0.3-0.1-0.5-0.1-0.7c0-0.1,0-0.2,0-0.3c0-0.1,0-0.1,0.1-0.2c0,0,0-0.1,0-0.1c0.1-0.1,0.1-0.3,0.2-0.4c0,0,0,0,0-0.1
		c0,0,0,0,0,0c0-0.1,0.1-0.1,0.1-0.2c0,0,0.1-0.1,0.2-0.2c0.1-0.1,0.3-0.3,0.5-0.4l6.4-4.9h0c-0.3-1.7-0.4-3.3-0.4-5
		s0.1-3.4,0.4-5.1l-6.4-4.9c-0.1-0.1-0.2-0.1-0.2-0.2c-0.1-0.1-0.1-0.1-0.2-0.2c-0.1-0.1-0.1-0.1-0.2-0.2c0,0,0,0,0,0c0,0,0,0,0,0
		c-0.1-0.1-0.2-0.3-0.3-0.4c0-0.1-0.1-0.1-0.1-0.2c-0.1-0.2-0.2-0.5-0.2-0.7s0-0.5,0.1-0.7l2.7-6.5c0-0.1,0.1-0.2,0.2-0.3
		c0-0.1,0.1-0.1,0.1-0.2c0,0,0.1-0.1,0.1-0.1c0-0.1,0.1-0.1,0.2-0.2c0.2-0.1,0.3-0.2,0.5-0.3c0.1,0,0.3-0.1,0.4-0.1c0,0,0,0,0,0h0
		c0.1,0,0.2,0,0.3,0c0.2,0,0.5,0,0.7,0l8,1.1h0c0,0,0,0,0.1-0.1l3.3-3.8c0.6-0.6,1.2-1.2,1.9-1.7c0.7-0.5,1.3-1.1,2-1.6c0,0,0,0,0,0
		v0l-1.1-8c0-0.1,0-0.3,0-0.4v-0.2c0-0.2,0-0.4,0.1-0.6c0,0,0-0.1,0-0.1c0-0.1,0-0.1,0.1-0.2c0,0,0-0.1,0.1-0.2c0,0,0-0.1,0-0.1
		c0,0,0,0,0,0c0-0.1,0.1-0.2,0.1-0.2c0,0,0,0,0.1-0.1c0-0.1,0.1-0.1,0.2-0.2c0.1-0.1,0.1-0.1,0.2-0.2c0.1-0.1,0.2-0.1,0.3-0.2
		l6.5-2.7c0.4-0.2,0.8-0.2,1.1-0.1c0,0,0.1,0,0.2,0c0.1,0,0.3,0.1,0.4,0.2c0,0,0,0,0.1,0v0c0,0,0.1,0,0.1,0.1c0,0,0.1,0.1,0.1,0.1
		c0,0,0,0,0.1,0c0.1,0,0.1,0.1,0.2,0.2c0.1,0.1,0.3,0.3,0.4,0.5v0l4.9,6.4l0,0c1.7-0.3,3.4-0.4,5.1-0.4c1.7,0,3.4,0.1,5,0.4l4.9-6.4
		v0c0.1-0.2,0.3-0.3,0.4-0.5c0.2-0.2,0.3-0.3,0.5-0.4c0.1-0.1,0.2-0.1,0.3-0.2c0,0,0,0,0,0c0,0,0.1,0,0.1-0.1c0,0,0.1,0,0.1,0
		c0.3-0.1,0.6-0.1,0.9-0.1c0.1,0,0.1,0,0.2,0c0.1,0,0.1,0,0.2,0.1l6.5,2.7c0.1,0,0.2,0.1,0.3,0.2c0.1,0.1,0.2,0.1,0.2,0.2
		c0.1,0,0.1,0.1,0.1,0.2c0,0,0.1,0.1,0.1,0.1c0,0,0,0,0,0.1c0,0,0,0,0,0c0,0,0,0,0,0.1c0.1,0.2,0.1,0.3,0.2,0.5c0,0,0,0,0,0.1
		c0,0.1,0,0.1,0,0.2c0,0.1,0,0.1,0,0.2c0,0.1,0,0.3,0,0.4s0,0.3,0,0.4l-1.1,8c1,0.8,2,1.6,3,2.5v0c0,0,0,0,0,0
		c0.3,0.3,0.6,0.6,0.9,0.9c0.3,0.3,0.6,0.6,0.9,0.9c0.4,0.5,0.9,1,1.3,1.5c0.4,0.5,0.8,1,1.1,1.5h0l8-1.1c0.2,0,0.4,0,0.6,0
		c0.2,0,0.4,0,0.6,0.1c0,0,0.1,0,0.1,0c0,0,0.1,0,0.1,0c0,0,0,0,0.1,0c0.1,0,0.2,0,0.2,0.1c0,0,0,0,0,0c0.1,0,0.1,0.1,0.2,0.1
		c0.2,0.1,0.3,0.2,0.4,0.4c0,0,0.1,0.1,0.1,0.1c0,0.1,0.1,0.1,0.1,0.2l2.7,6.5c0.1,0.1,0.1,0.2,0.1,0.3c0,0,0,0,0,0
		c0,0.1,0,0.2,0,0.3v0.1c0,0.2,0,0.4-0.1,0.5c0,0.1-0.1,0.2-0.1,0.3h0c0,0,0,0.1,0,0.1c-0.1,0.1-0.1,0.2-0.2,0.3
		c-0.2,0.2-0.3,0.4-0.5,0.5c-0.1,0.1-0.2,0.1-0.2,0.2l-6.4,4.9c0.3,1.7,0.4,3.4,0.4,5.1c0,1.7-0.1,3.4-0.4,5.1l6.4,4.9
		c0.2,0.1,0.3,0.3,0.5,0.4c0.1,0.1,0.1,0.1,0.2,0.2c0,0.1,0.1,0.1,0.1,0.2c0.1,0.2,0.3,0.4,0.3,0.5c0,0,0,0.1,0.1,0.1
		c0,0.1,0,0.1,0,0.2c0,0.1,0,0.2,0,0.3C477.4,92.2,477.4,92.5,477.3,92.7z"/>
	<path class="st1" d="M437.5,92.4c6.8,0,12.3-5.5,12.3-12.3c0,0,0,0,0,0C449.8,86.9,444.3,92.4,437.5,92.4
		c-6.8,0-12.3-5.5-12.3-12.3c0,0,0,0,0,0C425.3,86.9,430.7,92.4,437.5,92.4z"/>
	<path class="st1" d="M456.7,117.1l-6.5,2.7c-1,0.4-2-0.2-2.6-1.1l-4.9-6.4v0c-3.3,0.5-6.8,0.5-10.2,0v0l-4.9,6.4
		c-0.7,0.9-1.6,1.5-2.6,1.1l-6.5-2.7c-0.9-0.4-1.2-1.3-1.1-2.2c0,1,0.2,1.9,1.1,2.2l6.5,2.7c1,0.4,2-0.2,2.6-1.1l4.9-6.4v0
		c3.4,0.5,6.9,0.5,10.2,0v0l4.9,6.4c0.7,0.9,1.6,1.5,2.6,1.1L456.7,117.1c0.8-0.3,1.1-1,1.1-1.8
		C457.8,116.1,457.5,116.8,456.7,117.1z"/>
	<path class="st1" d="M418.3,53.7l-1.1-8c0-0.1,0-0.3,0-0.4c0,0.1,0,0.3,0,0.4L418.3,53.7L418.3,53.7
		C418.3,53.7,418.3,53.7,418.3,53.7L418.3,53.7z"/>
	<path class="st1" d="M456.7,53.7L456.7,53.7C456.7,53.7,456.7,53.7,456.7,53.7l1.1-8c0-0.1,0-0.3,0-0.4c0,0.1,0,0.3,0,0.4
		L456.7,53.7z"/>
	<path class="st1" d="M476.2,70.1l-6.4,4.9c0,0,0,0,0,0L476.2,70.1c0.7-0.5,1.2-1.2,1.2-1.9C477.4,69,476.8,69.6,476.2,70.1z"/>
	<path class="st1" d="M469.8,85.2c0.3-1.7,0.4-3.4,0.4-5.1C470.2,81.8,470,83.5,469.8,85.2L469.8,85.2z"/>
	<path class="st1" d="M474.6,99.3c-0.4,1-1.5,1.3-2.6,1.1l-8-1.1c-2,2.8-4.5,5.2-7.2,7.2l0,0l0,0c2.7-2,5.2-4.4,7.2-7.2l8,1.1
		C473,100.5,474.1,100.3,474.6,99.3l2.7-6.5c0.1-0.3,0.1-0.5,0.1-0.7c0,0.2,0,0.5-0.1,0.7L474.6,99.3z"/>
	<path class="st1" d="M404.9,80.1c0,1.7,0.1,3.4,0.4,5l0,0C405,83.5,404.9,81.8,404.9,80.1z"/>
	<path class="st1" d="M444.2,64.1c6.6,2.8,10.7,9.2,10.7,15.9C454.9,73.2,450.8,66.8,444.2,64.1c-8.9-3.7-19,0.5-22.7,9.4
		c-0.9,2.2-1.3,4.5-1.3,6.8c0-2.3,0.4-4.5,1.3-6.8C425.2,64.6,435.3,60.4,444.2,64.1z"/>
	<path class="st1" d="M405.3,75l-6.4-4.9c-0.7-0.5-1.2-1.2-1.2-1.9c0,0.7,0.6,1.4,1.2,1.9L405.3,75L405.3,75
		C405.3,75,405.3,75,405.3,75L405.3,75z"/>
	<path class="st1" d="M397.8,92.7l2.7,6.5c0.4,1,1.5,1.2,2.6,1.1l8-1.1l0,0c2,2.7,4.4,5.2,7.2,7.2l0,0v0c-2.8-2-5.2-4.5-7.2-7.2l0,0
		l-8,1.1c-1.1,0.1-2.2-0.1-2.6-1.1L397.8,92.7c-0.1-0.3-0.1-0.5-0.1-0.7C397.6,92.2,397.7,92.5,397.8,92.7z"/>
	<path class="st1" d="M260.2,92.4c6.8,0,12.3-5.5,12.3-12.3c0,0,0,0,0,0C272.5,86.9,267,92.4,260.2,92.4c-6.8,0-12.3-5.5-12.3-12.3
		c0,0,0,0,0,0C247.9,86.9,253.4,92.4,260.2,92.4z"/>
	<path class="st1" d="M228,75l-6.4-4.9c-0.7-0.5-1.2-1.2-1.2-1.9c0,0.7,0.6,1.4,1.2,1.9L228,75L228,75C228,75,228,75,228,75L228,75z
		"/>
	<path class="st1" d="M227.6,80.1c0,1.7,0.1,3.4,0.4,5l0,0C227.7,83.5,227.6,81.8,227.6,80.1z"/>
	<path class="st1" d="M241,53.7l-1.1-8c0-0.1,0-0.3,0-0.4c0,0.1,0,0.3,0,0.4L241,53.7L241,53.7C241,53.7,241,53.7,241,53.7L241,53.7
		z"/>
	<path class="st1" d="M220.5,92.7l2.7,6.5c0.4,1,1.5,1.2,2.6,1.1l8-1.1l0,0c2,2.7,4.4,5.2,7.2,7.2l0,0v0c-2.8-2-5.2-4.5-7.2-7.2l0,0
		l-8,1.1c-1.1,0.1-2.2-0.1-2.6-1.1L220.5,92.7c-0.1-0.3-0.1-0.5-0.1-0.7C220.3,92.2,220.4,92.5,220.5,92.7z"/>
	<path class="st1" d="M279.4,53.7L279.4,53.7C279.4,53.7,279.4,53.7,279.4,53.7l1.1-8c0-0.1,0-0.3,0-0.4c0,0.1,0,0.3,0,0.4
		L279.4,53.7z"/>
	<path class="st1" d="M297.2,99.3c-0.4,1-1.5,1.3-2.6,1.1l-8-1.1c-2,2.8-4.5,5.2-7.2,7.2l0,0l0,0c2.7-2,5.2-4.4,7.2-7.2l8,1.1
		C295.7,100.5,296.8,100.3,297.2,99.3l2.7-6.5c0.1-0.3,0.1-0.5,0.1-0.7c0,0.2,0,0.5-0.1,0.7L297.2,99.3z"/>
	<path class="st1" d="M279.4,117.1l-6.5,2.7c-1,0.4-2-0.2-2.6-1.1l-4.9-6.4v0c-3.3,0.5-6.8,0.5-10.2,0v0l-4.9,6.4
		c-0.7,0.9-1.6,1.5-2.6,1.1l-6.5-2.7c-0.9-0.4-1.2-1.3-1.1-2.2c0,1,0.2,1.9,1.1,2.2l6.5,2.7c1,0.4,2-0.2,2.6-1.1l4.9-6.4v0
		c3.4,0.5,6.9,0.5,10.2,0v0l4.9,6.4c0.7,0.9,1.6,1.5,2.6,1.1L279.4,117.1c0.8-0.3,1.1-1,1.1-1.8
		C280.5,116.1,280.1,116.8,279.4,117.1z"/>
	<path class="st1" d="M298.9,70.1l-6.4,4.9c0,0,0,0,0,0L298.9,70.1c0.7-0.5,1.2-1.2,1.2-1.9C300,69,299.5,69.6,298.9,70.1z"/>
	<path class="st1" d="M292.4,85.2c0.3-1.7,0.4-3.4,0.4-5.1C292.8,81.8,292.7,83.5,292.4,85.2L292.4,85.2z"/>
	<path class="st1" d="M266.9,64.1c6.6,2.8,10.7,9.2,10.7,15.9C277.5,73.2,273.5,66.8,266.9,64.1c-8.9-3.7-19,0.5-22.7,9.4
		c-0.9,2.2-1.3,4.5-1.3,6.8c0-2.3,0.4-4.5,1.3-6.8C247.8,64.6,258,60.4,266.9,64.1z"/>
	<path class="st1" d="M82.9,92.4c6.8,0,12.3-5.5,12.3-12.3c0,0,0,0,0,0C95.1,86.9,89.7,92.4,82.9,92.4c-6.8,0-12.3-5.5-12.3-12.3
		c0,0,0,0,0,0C70.6,86.9,76.1,92.4,82.9,92.4z"/>
	<path class="st1" d="M121.5,70.1l-6.4,4.9h0c0,0,0,0,0,0h0L121.5,70.1c0.7-0.5,1.2-1.2,1.2-1.9C122.7,69,122.2,69.6,121.5,70.1z"/>
	<path class="st1" d="M102.1,53.7L102.1,53.7C102.1,53.7,102.1,53.7,102.1,53.7L102.1,53.7l1.1-8c0-0.1,0-0.3,0-0.4
		c0,0.1,0,0.3,0,0.4L102.1,53.7z"/>
	<path class="st1" d="M115.1,85.2c0.3-1.7,0.4-3.3,0.4-5C115.5,81.8,115.4,83.5,115.1,85.2L115.1,85.2z"/>
	<path class="st1" d="M63.7,53.7l-1.1-8c0-0.3,0-0.5,0-0.8c0,0.3,0,0.5,0,0.8L63.7,53.7C63.7,53.7,63.7,53.7,63.7,53.7L63.7,53.7z"
		/>
	<path class="st1" d="M50.6,75l-6.4-4.9c-0.7-0.5-1.2-1.2-1.2-1.9c0,0.7,0.6,1.4,1.2,1.9L50.6,75C50.6,75,50.6,75,50.6,75z"/>
	<path class="st1" d="M63.7,106.5c-2.7-2-5.2-4.4-7.2-7.2l-8,1.1c-1.1,0.1-2.2-0.1-2.6-1.1l-2.7-6.5C43,92.5,43,92.2,43,92
		c0,0.2,0,0.5,0.1,0.7l2.7,6.5c0.4,1,1.5,1.3,2.6,1.1l8-1.1C58.5,102.1,60.9,104.5,63.7,106.5L63.7,106.5L63.7,106.5z"/>
	<path class="st1" d="M119.9,99.3c-0.4,1-1.5,1.2-2.6,1.1l-8-1.1l0,0c-2,2.7-4.4,5.2-7.2,7.2v0l0,0c2.8-2,5.2-4.5,7.2-7.2l0,0l8,1.1
		C118.4,100.5,119.5,100.3,119.9,99.3l2.7-6.5c0.1-0.3,0.1-0.5,0.1-0.7c0,0.2,0,0.5-0.1,0.7L119.9,99.3z"/>
	<path class="st1" d="M76.2,64.1c8.9-3.7,19,0.5,22.7,9.4c0.9,2.2,1.3,4.5,1.3,6.8c0-2.3-0.4-4.6-1.3-6.8
		C95.2,64.6,85.1,60.4,76.2,64.1c-6.6,2.7-10.7,9.2-10.7,15.9C65.5,73.2,69.6,66.8,76.2,64.1z"/>
	<path class="st1" d="M102,117.1l-6.5,2.7c-1,0.4-2-0.2-2.6-1.1l-4.9-6.4l0,0c-3.4,0.5-6.9,0.5-10.2,0v0l-4.9,6.4
		c-0.7,0.9-1.6,1.5-2.6,1.1l-6.5-2.7c-0.9-0.4-1.2-1.3-1.1-2.2c0,1,0.2,1.8,1.1,2.2l6.5,2.7c1,0.4,2-0.2,2.6-1.1l4.9-6.4v0
		c3.3,0.5,6.8,0.5,10.2,0l0,0l4.9,6.4c0.7,0.9,1.6,1.5,2.6,1.1L102,117.1c0.9-0.4,1.2-1.3,1.1-2.2
		C103.2,115.9,102.9,116.8,102,117.1z"/>
	<path class="st1" d="M50.2,80.1c0,1.7,0.1,3.4,0.4,5.1l0,0C50.4,83.5,50.2,81.8,50.2,80.1z"/>
	<path class="st1" d="M88,41.8c-0.6,0.9-1.3,2-2.3,2H80c-1,0-1.7-1.1-2.3-2L74,35.6c0,0,0,0,0,0l3.7,6.3c0.6,0.9,1.3,2,2.3,2h5.7
		C86.7,43.9,87.4,42.8,88,41.8l4.3-7.1c0,0,0,0,0,0L88,41.8z"/>
	<path class="st1" d="M55.2,56.5c-0.7,0.7-2,0.4-3,0.2l-7.1-1.8c0,0,0,0,0,0l7.1,1.8C53.2,56.9,54.5,57.2,55.2,56.5l4-4
		c0.4-0.4,0.5-0.9,0.5-1.4c0,0.5-0.1,1-0.5,1.4L55.2,56.5z"/>
	<path class="st1" d="M46.6,83L46.6,83c0,1-1.1,1.7-2,2.3L38.3,89c0,0,0,0,0,0l6.3-3.7C45.5,84.7,46.6,84,46.6,83z"/>
	<path class="st1" d="M59.7,109.1c0,0.5-0.1,1.1-0.3,1.6l-1.8,7.1c0,0,0,0,0,0l1.8-7.1C59.6,110.3,59.7,109.7,59.7,109.1z"/>
	<path class="st1" d="M123.5,41.8c-0.5,0.9-1.3,2-2.3,2h-5.7c-1,0-1.7-1.1-2.3-2l-4.3-7.1c0,0,0,0,0,0l4.3,7.2c0.6,0.9,1.3,2,2.3,2
		h5.7C122.2,43.9,122.9,42.8,123.5,41.8l4.3-7.1c0,0,0,0,0,0L123.5,41.8z"/>
	<path class="st1" d="M158.9,41.8c-0.6,0.9-1.3,2-2.3,2H151c-1,0-1.7-1.1-2.3-2l-4.3-7.1c0,0,0,0,0,0l4.3,7.2c0.6,0.9,1.3,2,2.3,2
		h5.7C157.7,43.9,158.4,42.8,158.9,41.8l4.3-7.1c0,0,0,0,0,0L158.9,41.8z"/>
	<path class="st1" d="M194.4,41.8c-0.6,0.9-1.3,2-2.3,2h-5.7c-1,0-1.7-1.1-2.3-2l-4.3-7.1c0,0,0,0,0,0l4.3,7.2c0.6,0.9,1.3,2,2.3,2
		h5.7C193.1,43.9,193.8,42.8,194.4,41.8l4.3-7.1c0,0,0,0,0,0L194.4,41.8z"/>
	<path class="st1" d="M229.9,41.8c-0.6,0.9-1.3,2-2.3,2h-5.7c-1,0-1.7-1.1-2.3-2l-4.3-7.1c0,0,0,0,0,0l4.3,7.2c0.6,0.9,1.3,2,2.3,2
		h5.7C228.6,43.9,229.3,42.8,229.9,41.8l4.3-7.1c0,0,0,0,0,0L229.9,41.8z"/>
	<path class="st1" d="M265.3,41.8c-0.5,0.9-1.3,2-2.3,2h-5.7c-1,0-1.7-1.1-2.3-2l-4.3-7.1c0,0,0,0,0,0l4.3,7.2c0.6,0.9,1.3,2,2.3,2
		h5.7C264.1,43.9,264.8,42.8,265.3,41.8l4.3-7.1c0,0,0,0,0,0L265.3,41.8z"/>
	<path class="st1" d="M300.8,41.8c-0.5,0.9-1.3,2-2.3,2h-5.7c-1,0-1.7-1.1-2.3-2l-4.3-7.1c0,0,0,0,0,0l4.3,7.2c0.6,0.9,1.3,2,2.3,2
		h5.7C299.5,43.9,300.2,42.8,300.8,41.8l4.3-7.1c0,0,0,0,0,0L300.8,41.8z"/>
	<path class="st1" d="M336.2,41.8c-0.6,0.9-1.2,2-2.3,2l-5.7,0c-1,0-1.7-1.1-2.3-2l-4.3-7.1c0,0,0,0,0,0l4.3,7.2
		c0.6,0.9,1.3,2,2.3,2l5.7,0C335,43.9,335.7,42.8,336.2,41.8l4.3-7.1c0,0,0,0,0,0L336.2,41.8z"/>
	<path class="st1" d="M442.6,41.8c-0.6,0.9-1.3,2-2.3,2l-5.7,0c-1,0-1.7-1.1-2.3-2l-4.3-7.1c0,0,0,0,0,0l4.3,7.2
		c0.5,0.9,1.3,2,2.3,2l5.7,0C441.4,43.9,442.1,42.8,442.6,41.8l4.3-7.1c0,0,0,0,0,0L442.6,41.8z"/>
	<path class="st1" d="M407.2,41.8c-0.6,0.9-1.3,2-2.3,2l-5.7,0c-1,0-1.7-1.1-2.3-2l-4.3-7.1c0,0,0,0,0,0l4.3,7.2
		c0.6,0.9,1.3,2,2.3,2l5.7,0C405.9,43.9,406.6,42.8,407.2,41.8l4.3-7.1c0,0,0,0,0,0L407.2,41.8z"/>
	<path class="st1" d="M371.7,41.8c-0.6,0.9-1.3,2-2.3,2l-5.7,0c-1,0-1.7-1.1-2.3-2l-4.3-7.1c0,0,0,0,0,0l4.3,7.2
		c0.5,0.9,1.3,2,2.3,2l5.7,0C370.5,43.9,371.2,42.8,371.7,41.8l4.3-7.1c0,0,0,0,0,0L371.7,41.8z"/>
	<path class="st1" d="M478.1,41.8c-0.6,0.9-1.3,2-2.3,2l-5.7,0c-1,0-1.7-1.1-2.3-2l-4.3-7.1c0,0,0,0,0,0l4.3,7.2
		c0.6,0.9,1.2,2,2.3,2l5.7,0C476.8,43.9,477.6,42.8,478.1,41.8l4.3-7.1c0,0,0,0,0,0L478.1,41.8z"/>
	<path class="st1" d="M38.8,69.3c0-0.1,0-0.2,0.1-0.3C38.8,69.1,38.8,69.2,38.8,69.3z"/>
	<path class="st1" d="M463.6,34.7L463.6,34.7c-5.6,0-11.1,0-16.7,0l0,0C452.5,34.7,458,34.7,463.6,34.7z"/>
	<path class="st1" d="M392.7,34.7L392.7,34.7c-5.6,0-11.1,0-16.7,0l0,0C381.6,34.7,387.1,34.7,392.7,34.7z"/>
	<path class="st1" d="M428.2,34.7L428.2,34.7c-5.6,0-11.1,0-16.7,0l0,0C417,34.7,422.6,34.7,428.2,34.7z"/>
	<path class="st1" d="M357.2,34.7L357.2,34.7c-5.6,0-11.1,0-16.7,0l0,0C346.1,34.7,351.7,34.7,357.2,34.7z"/>
	<path class="st1" d="M38.3,71.2L38.3,71.2C38.3,71.2,38.3,71.2,38.3,71.2C38.3,71.2,38.3,71.2,38.3,71.2z"/>
	<path class="st1" d="M493.9,34.7L493.9,34.7c-3.8,0-7.7,0-11.5,0l0,0C486.2,34.7,490.1,34.7,493.9,34.7z"/>
	<path class="st1" d="M67.3,37.4c0.4-0.2,0.9-0.3,1.3-0.4C68.2,37.1,67.8,37.3,67.3,37.4z"/>
	<path class="st1" d="M63.2,39.2c0.4-0.2,0.9-0.4,1.4-0.6C64.1,38.7,63.7,38.9,63.2,39.2z"/>
	<path class="st1" d="M65.3,38.2c0.4-0.2,0.9-0.4,1.3-0.5C66.2,37.9,65.7,38.1,65.3,38.2z"/>
	<path class="st1" d="M43.5,57.5c0.2-0.3,0.3-0.6,0.5-0.9C43.8,56.9,43.7,57.2,43.5,57.5z"/>
	<path class="st1" d="M57.6,42.3L57.6,42.3c0.4-0.3,0.8-0.5,1.2-0.8C58.5,41.8,58.1,42.1,57.6,42.3z"/>
	<path class="st1" d="M61.3,40.2c0.5-0.2,0.9-0.5,1.4-0.7C62.2,39.7,61.7,39.9,61.3,40.2z"/>
	<path class="st1" d="M69.5,36.7c0.4-0.1,0.8-0.2,1.3-0.4C70.3,36.5,69.9,36.6,69.5,36.7z"/>
	<path class="st1" d="M59.4,41.3c0.5-0.3,0.9-0.5,1.4-0.8C60.3,40.7,59.8,41,59.4,41.3z"/>
	<path class="st1" d="M71.6,36.1c0.4-0.1,0.8-0.2,1.3-0.3C72.5,35.9,72.1,36,71.6,36.1z"/>
	<path class="st1" d="M39.3,67.2c0-0.1,0.1-0.2,0.1-0.4C39.4,66.9,39.4,67,39.3,67.2z"/>
	<path class="st1" d="M42.5,59.3c0.1-0.3,0.3-0.5,0.4-0.8C42.8,58.8,42.6,59.1,42.5,59.3z"/>
	<path class="st1" d="M40.8,63.1c0.1-0.2,0.1-0.4,0.2-0.5C40.9,62.8,40.8,63,40.8,63.1z"/>
	<path class="st1" d="M41.6,61.2c0.1-0.2,0.2-0.4,0.3-0.7C41.8,60.8,41.7,61,41.6,61.2z"/>
	<path class="st1" d="M40,65.1c0.1-0.1,0.1-0.3,0.1-0.4C40.1,64.8,40.1,65,40,65.1z"/>
	<path class="st1" d="M144.4,34.7L144.4,34.7c-5.6,0-11.1,0-16.7,0l0,0C133.3,34.7,138.9,34.7,144.4,34.7z"/>
	<path class="st1" d="M179.9,34.7L179.9,34.7c-5.6,0-11.1,0-16.7,0l0,0C168.8,34.7,174.3,34.7,179.9,34.7z"/>
	<path class="st1" d="M215.4,34.7L215.4,34.7c-5.6,0-11.1,0-16.7,0l0,0C204.2,34.7,209.8,34.7,215.4,34.7z"/>
	<path class="st1" d="M250.8,34.7L250.8,34.7c-5.6,0-11.1,0-16.7,0l0,0C239.7,34.7,245.3,34.7,250.8,34.7z"/>
	<path class="st1" d="M74,35.6c-0.1,0-0.1,0-0.2,0C73.9,35.6,74,35.6,74,35.6L74,35.6z"/>
	<path class="st1" d="M45.1,54.9c-0.2,0.3-0.4,0.6-0.5,0.8C44.8,55.4,44.9,55.2,45.1,54.9L45.1,54.9z"/>
	<path class="st1" d="M286.3,34.7L286.3,34.7c-5.6,0-11.1,0-16.7,0l0,0C275.2,34.7,280.7,34.7,286.3,34.7z"/>
	<path class="st1" d="M109,34.7L109,34.7c-5.6,0-11.1,0-16.7,0l0,0C97.8,34.7,103.4,34.7,109,34.7z"/>
	<path class="st1" d="M82.9,133.4c-29.4,0-53.3-23.9-53.3-53.3c0,0,0,0,0,0C29.6,109.5,53.4,133.4,82.9,133.4c137,0,274,0,411,0v0
		C356.9,133.4,219.9,133.4,82.9,133.4z"/>
	<path class="st1" d="M321.8,34.7L321.8,34.7c-5.6,0-11.1,0-16.7,0l0,0C310.6,34.7,316.2,34.7,321.8,34.7z"/>
	<polygon class="st1" points="92.3,34.7 92.3,34.7 92.3,34.7 92.3,34.7 	"/>
	<polygon class="st1" points="74,35.6 74,35.6 74,35.6 74,35.6 	"/>
	<polygon class="st1" points="45.1,54.9 45.1,54.9 45.1,54.9 45.1,54.9 	"/>
	<polygon class="st1" points="127.7,34.7 127.7,34.7 127.7,34.7 127.7,34.7 	"/>
	<polygon class="st1" points="109,34.7 109,34.7 109,34.7 109,34.7 	"/>
	<polygon class="st1" points="163.2,34.7 163.2,34.7 163.2,34.7 163.2,34.7 	"/>
	<polygon class="st1" points="144.4,34.7 144.4,34.7 144.4,34.7 144.4,34.7 	"/>
	<polygon class="st1" points="179.9,34.7 179.9,34.7 179.9,34.7 179.9,34.7 	"/>
	<polygon class="st1" points="198.6,34.7 198.7,34.7 198.7,34.7 198.7,34.7 	"/>
	<polygon class="st1" points="215.4,34.7 215.4,34.7 215.4,34.7 215.4,34.7 	"/>
	<polygon class="st1" points="234.1,34.7 234.1,34.7 234.1,34.7 234.1,34.7 	"/>
	<polygon class="st1" points="269.6,34.7 269.6,34.7 269.6,34.7 269.6,34.7 	"/>
	<polygon class="st1" points="250.8,34.7 250.8,34.7 250.8,34.7 250.8,34.7 	"/>
	<polygon class="st1" points="286.3,34.7 286.3,34.7 286.3,34.7 286.3,34.7 	"/>
	<polygon class="st1" points="305,34.7 305.1,34.7 305.1,34.7 305.1,34.7 	"/>
	<polygon class="st1" points="321.8,34.7 321.8,34.7 321.7,34.7 321.8,34.7 	"/>
	<polygon class="st1" points="340.5,34.7 340.5,34.7 340.5,34.7 340.5,34.7 	"/>
	<polygon class="st1" points="428.2,34.7 428.2,34.7 428.1,34.7 428.2,34.7 	"/>
	<polygon class="st1" points="446.9,34.7 446.9,34.7 446.9,34.7 446.9,34.7 	"/>
	<polygon class="st1" points="411.4,34.7 411.4,34.7 411.5,34.7 411.4,34.7 	"/>
	<polygon class="st1" points="392.7,34.7 392.7,34.7 392.7,34.7 392.7,34.7 	"/>
	<polygon class="st1" points="357.2,34.7 357.2,34.7 357.2,34.7 357.2,34.7 	"/>
	<polygon class="st1" points="376,34.7 376,34.7 376,34.7 376,34.7 	"/>
	<polygon class="st1" points="482.4,34.7 482.4,34.7 482.4,34.7 482.4,34.7 	"/>
	<polygon class="st1" points="463.6,34.7 463.6,34.7 463.6,34.7 463.6,34.7 	"/>
	<path class="st2" d="M437.5,67.8c6.8,0,12.3,5.5,12.3,12.3c0,0,0,0,0,0C449.8,73.3,444.3,67.8,437.5,67.8
		c-6.8,0-12.3,5.5-12.3,12.3c0,0,0,0,0,0C425.3,73.3,430.8,67.8,437.5,67.8z"/>
	<path class="st2" d="M437.5,92.4c6.8,0,12.3-5.5,12.3-12.3c0-6.8-5.5-12.3-12.3-12.3c-6.8,0-12.3,5.5-12.3,12.3
		C425.3,86.9,430.8,92.4,437.5,92.4z"/>
	<path class="st2" d="M405.3,75c-0.3,1.7-0.4,3.4-0.4,5.1C404.9,78.4,405,76.7,405.3,75L405.3,75z"/>
	<path class="st2" d="M400.5,60.9c0.4-1,1.5-1.2,2.6-1.1l8,1.1l0,0c2-2.8,4.5-5.2,7.2-7.2l0,0c-2.7,2-5.2,4.4-7.2,7.2l0,0l-8-1.1
		C402,59.7,400.9,59.9,400.5,60.9l-2.7,6.5c-0.1,0.3-0.1,0.5-0.1,0.8c0-0.2,0-0.5,0.1-0.7L400.5,60.9z"/>
	<path class="st2" d="M398.9,90.1l6.4-4.9l0,0c0,0,0,0,0,0l0,0L398.9,90.1c-0.7,0.5-1.2,1.1-1.2,1.9
		C397.7,91.3,398.2,90.6,398.9,90.1z"/>
	<path class="st2" d="M430.9,96.2c8.9,3.7,19-0.5,22.7-9.4c0.9-2.2,1.3-4.5,1.3-6.8c0,2.3-0.4,4.6-1.3,6.8
		C449.9,95.6,439.8,99.8,430.9,96.2c-6.6-2.8-10.7-9.2-10.7-15.9C420.2,87,424.2,93.4,430.9,96.2z"/>
	<path class="st2" d="M418.4,43.1l6.5-2.7c1-0.4,2,0.2,2.6,1.1l4.9,6.4l0,0c3.3-0.5,6.8-0.5,10.2,0v0l4.9-6.4
		c0.7-0.9,1.6-1.5,2.6-1.1l6.5,2.7c0.9,0.4,1.2,1.3,1.1,2.2c0-0.9-0.2-1.8-1.1-2.2l-6.5-2.7c-1-0.4-2,0.2-2.6,1.1l-4.9,6.4v0
		c-3.4-0.5-6.8-0.5-10.2,0l0,0l-4.9-6.4c-0.7-0.9-1.6-1.5-2.6-1.1L418.4,43.1c-0.9,0.4-1.2,1.3-1.1,2.2
		C417.2,44.4,417.5,43.5,418.4,43.1z"/>
	<path class="st2" d="M456.7,106.5l1.1,8c0,0.3,0,0.5,0,0.8c0-0.3,0-0.5,0-0.8L456.7,106.5C456.7,106.5,456.7,106.5,456.7,106.5
		L456.7,106.5z"/>
	<path class="st2" d="M418.3,106.5L418.3,106.5C418.3,106.5,418.3,106.5,418.3,106.5l-1.1,8c0,0.1,0,0.3,0,0.4c0-0.1,0-0.3,0-0.4
		L418.3,106.5z"/>
	<path class="st2" d="M470.2,80.1c0-1.7-0.1-3.4-0.4-5.1l0,0C470,76.7,470.2,78.4,470.2,80.1z"/>
	<path class="st2" d="M456.7,53.7c2.8,2,5.2,4.5,7.2,7.2l0,0l8-1.1c1.1-0.1,2.2,0.1,2.6,1.1l2.7,6.5c0.1,0.3,0.1,0.5,0.1,0.7
		c0-0.2,0-0.5-0.1-0.8l-2.7-6.5c-0.4-1-1.5-1.2-2.6-1.1l-8,1.1l0,0C461.9,58.2,459.5,55.8,456.7,53.7L456.7,53.7L456.7,53.7z"/>
	<path class="st2" d="M476.2,90.1c0.7,0.5,1.2,1.2,1.2,1.9C477.4,91.3,476.8,90.6,476.2,90.1l-6.4-4.9c0,0,0,0,0,0L476.2,90.1z"/>
	<path class="st2" d="M400.5,99.3c0.4,1,1.5,1.2,2.6,1.1l8-1.1l0,0c2,2.7,4.4,5.2,7.2,7.2v0l0,0c0,0,0,0,0,0v0l-1.1,8
		c0,0.1,0,0.3,0,0.4c0,0.9,0.2,1.8,1.1,2.2l6.5,2.7c1,0.4,2-0.2,2.6-1.1l4.9-6.4v0c3.4,0.5,6.9,0.5,10.2,0v0l4.9,6.4
		c0.7,0.9,1.6,1.5,2.6,1.1l6.5-2.7c0.8-0.3,1.1-1,1.1-1.8c0-0.3,0-0.5,0-0.8l-1.1-8l0,0c0,0,0,0,0,0l0,0l0,0c2.7-2,5.2-4.4,7.2-7.2
		l8,1.1c1.1,0.1,2.2-0.1,2.6-1.1l2.7-6.5c0.1-0.3,0.1-0.5,0.1-0.7c0-0.7-0.6-1.4-1.2-1.9l-6.4-4.9c0,0,0,0,0,0l0,0
		c0.3-1.7,0.4-3.4,0.4-5.1c0-1.7-0.1-3.4-0.4-5.1l0,0c0,0,0,0,0,0l6.4-4.9c0.7-0.5,1.2-1.2,1.2-1.9c0-0.2,0-0.5-0.1-0.7l-2.7-6.5
		c-0.4-1-1.5-1.2-2.6-1.1l-8,1.1l0,0c-2-2.7-4.4-5.2-7.2-7.2h0l0,0c0,0,0,0,0,0h0l1.1-8c0-0.1,0-0.3,0-0.4c0-0.9-0.2-1.8-1.1-2.2
		l-6.5-2.7c-1-0.4-2,0.2-2.6,1.1l-4.9,6.4v0c-3.4-0.5-6.8-0.5-10.2,0l0,0l-4.9-6.4c-0.7-0.9-1.6-1.5-2.6-1.1l-6.5,2.7
		c-0.9,0.4-1.2,1.3-1.1,2.2c0,0.1,0,0.3,0,0.4l1.1,8l0,0c0,0,0,0,0,0l0,0c-2.7,2-5.2,4.4-7.2,7.2l0,0l-8-1.1
		c-1.1-0.1-2.2,0.1-2.6,1.1l-2.7,6.5c-0.1,0.3-0.1,0.5-0.1,0.7c0,0.7,0.6,1.4,1.2,1.9l6.4,4.9h0c0,0,0,0,0,0h0
		c-0.3,1.7-0.4,3.4-0.4,5.1c0,1.7,0.1,3.4,0.4,5l0,0c0,0,0,0,0,0l0,0l-6.4,4.9c-0.7,0.5-1.2,1.1-1.2,1.9c0,0.2,0,0.5,0.1,0.7
		L400.5,99.3z M421.5,73.5c3.7-8.9,13.8-13.1,22.7-9.4c6.6,2.8,10.7,9.2,10.7,15.9c0,2.3-0.4,4.6-1.3,6.8
		c-3.7,8.9-13.8,13.1-22.7,9.4c-6.7-2.8-10.7-9.2-10.7-15.9C420.1,78,420.6,75.7,421.5,73.5z"/>
	<path class="st2" d="M260.2,67.8c6.8,0,12.3,5.5,12.3,12.3c0,0,0,0,0,0C272.5,73.3,267,67.8,260.2,67.8c-6.8,0-12.3,5.5-12.3,12.3
		c0,0,0,0,0,0C247.9,73.3,253.4,67.8,260.2,67.8z"/>
	<path class="st2" d="M260.2,92.4c6.8,0,12.3-5.5,12.3-12.3c0-6.8-5.5-12.3-12.3-12.3c-6.8,0-12.3,5.5-12.3,12.3
		C247.9,86.9,253.4,92.4,260.2,92.4z"/>
	<path class="st2" d="M228,75c-0.3,1.7-0.4,3.4-0.4,5.1C227.6,78.4,227.7,76.7,228,75L228,75z"/>
	<path class="st2" d="M221.6,90.1l6.4-4.9l0,0c0,0,0,0,0,0l0,0L221.6,90.1c-0.7,0.5-1.2,1.1-1.2,1.9
		C220.4,91.3,220.9,90.6,221.6,90.1z"/>
	<path class="st2" d="M253.6,96.2c8.9,3.7,19-0.5,22.7-9.4c0.9-2.2,1.3-4.5,1.3-6.8c0,2.3-0.4,4.6-1.3,6.8
		C272.6,95.6,262.4,99.8,253.6,96.2c-6.6-2.8-10.7-9.2-10.7-15.9C242.9,87,246.9,93.4,253.6,96.2z"/>
	<path class="st2" d="M223.2,60.9c0.4-1,1.5-1.2,2.6-1.1l8,1.1l0,0c2-2.8,4.5-5.2,7.2-7.2l0,0c-2.7,2-5.2,4.4-7.2,7.2l0,0l-8-1.1
		C224.7,59.7,223.6,59.9,223.2,60.9l-2.7,6.5c-0.1,0.3-0.1,0.5-0.1,0.8c0-0.2,0-0.5,0.1-0.7L223.2,60.9z"/>
	<path class="st2" d="M279.4,106.5l1.1,8c0,0.3,0,0.5,0,0.8c0-0.3,0-0.5,0-0.8L279.4,106.5C279.4,106.5,279.4,106.5,279.4,106.5
		L279.4,106.5z"/>
	<path class="st2" d="M241,106.5L241,106.5C241,106.5,241,106.5,241,106.5l-1.1,8c0,0.1,0,0.3,0,0.4c0-0.1,0-0.3,0-0.4L241,106.5z"
		/>
	<path class="st2" d="M279.4,53.7c2.8,2,5.2,4.5,7.2,7.2l0,0l8-1.1c1.1-0.1,2.2,0.1,2.6,1.1l2.7,6.5c0.1,0.3,0.1,0.5,0.1,0.7
		c0-0.2,0-0.5-0.1-0.8l-2.7-6.5c-0.4-1-1.5-1.2-2.6-1.1l-8,1.1l0,0C284.6,58.2,282.2,55.8,279.4,53.7L279.4,53.7L279.4,53.7z"/>
	<path class="st2" d="M298.9,90.1c0.7,0.5,1.2,1.2,1.2,1.9C300,91.3,299.5,90.6,298.9,90.1l-6.4-4.9c0,0,0,0,0,0L298.9,90.1z"/>
	<path class="st2" d="M241,43.1l6.5-2.7c1-0.4,2,0.2,2.6,1.1l4.9,6.4l0,0c3.3-0.5,6.8-0.5,10.2,0v0l4.9-6.4c0.7-0.9,1.6-1.5,2.6-1.1
		l6.5,2.7c0.9,0.4,1.2,1.3,1.1,2.2c0-0.9-0.2-1.8-1.1-2.2l-6.5-2.7c-1-0.4-2,0.2-2.6,1.1l-4.9,6.4v0c-3.4-0.5-6.8-0.5-10.2,0l0,0
		l-4.9-6.4c-0.7-0.9-1.6-1.5-2.6-1.1L241,43.1c-0.9,0.4-1.2,1.3-1.1,2.2C239.9,44.4,240.1,43.5,241,43.1z"/>
	<path class="st2" d="M292.8,80.1c0-1.7-0.1-3.4-0.4-5.1l0,0C292.7,76.7,292.8,78.4,292.8,80.1z"/>
	<path class="st2" d="M223.2,99.3c0.4,1,1.5,1.2,2.6,1.1l8-1.1l0,0c2,2.7,4.4,5.2,7.2,7.2v0l0,0c0,0,0,0,0,0v0l-1.1,8
		c0,0.1,0,0.3,0,0.4c0,0.9,0.3,1.8,1.1,2.2l6.5,2.7c1,0.4,2-0.2,2.6-1.1l4.9-6.4v0c3.4,0.5,6.9,0.5,10.2,0v0l4.9,6.4
		c0.7,0.9,1.6,1.5,2.6,1.1l6.5-2.7c0.8-0.3,1.1-1,1.1-1.8c0-0.3,0-0.5,0-0.8l-1.1-8l0,0c0,0,0,0,0,0l0,0l0,0c2.7-2,5.2-4.4,7.2-7.2
		l8,1.1c1.1,0.1,2.2-0.1,2.6-1.1l2.7-6.5c0.1-0.3,0.1-0.5,0.1-0.7c0-0.7-0.6-1.4-1.2-1.9l-6.4-4.9c0,0,0,0,0,0l0,0
		c0.3-1.7,0.4-3.4,0.4-5.1c0-1.7-0.1-3.4-0.4-5.1l0,0c0,0,0,0,0,0l6.4-4.9c0.7-0.5,1.2-1.2,1.2-1.9c0-0.2,0-0.5-0.1-0.7l-2.7-6.5
		c-0.4-1-1.5-1.2-2.6-1.1l-8,1.1l0,0c-2-2.7-4.4-5.2-7.2-7.2h0l0,0c0,0,0,0,0,0h0l1.1-8c0-0.1,0-0.3,0-0.4c0-0.9-0.2-1.8-1.1-2.2
		l-6.5-2.7c-1-0.4-2,0.2-2.6,1.1l-4.9,6.4v0c-3.4-0.5-6.8-0.5-10.2,0l0,0l-4.9-6.4c-0.7-0.9-1.6-1.5-2.6-1.1l-6.5,2.7
		c-0.9,0.4-1.2,1.3-1.1,2.2c0,0.1,0,0.3,0,0.4l1.1,8l0,0c0,0,0,0,0,0l0,0c-2.7,2-5.2,4.4-7.2,7.2l0,0l-8-1.1
		c-1.1-0.1-2.2,0.1-2.6,1.1l-2.7,6.5c-0.1,0.3-0.1,0.5-0.1,0.7c0,0.7,0.6,1.4,1.2,1.9L228,75h0c0,0,0,0,0,0h0
		c-0.3,1.7-0.4,3.4-0.4,5.1c0,1.7,0.1,3.4,0.4,5l0,0c0,0,0,0,0,0l0,0l-6.4,4.9c-0.7,0.5-1.2,1.1-1.2,1.9c0,0.2,0,0.5,0.1,0.7
		L223.2,99.3z M244.2,73.5c3.7-8.9,13.8-13.1,22.7-9.4c6.6,2.8,10.7,9.2,10.7,15.9c0,2.3-0.4,4.6-1.3,6.8
		c-3.7,8.9-13.8,13.1-22.7,9.4c-6.7-2.8-10.7-9.2-10.7-15.9C242.8,78,243.2,75.7,244.2,73.5z"/>
	<path class="st2" d="M82.9,67.8c6.8,0,12.3,5.5,12.3,12.3c0,0,0,0,0,0C95.2,73.3,89.7,67.8,82.9,67.8c-6.8,0-12.3,5.5-12.3,12.3
		c0,0,0,0,0,0C70.6,73.3,76.1,67.8,82.9,67.8z"/>
	<path class="st2" d="M82.9,92.4c6.8,0,12.3-5.5,12.3-12.3c0-6.8-5.5-12.3-12.3-12.3c-6.8,0-12.3,5.5-12.3,12.3
		C70.6,86.9,76.1,92.4,82.9,92.4z"/>
	<path class="st2" d="M63.7,43.1l6.5-2.7c1-0.4,2,0.2,2.6,1.1l4.9,6.4v0c3.4-0.5,6.8-0.5,10.2,0l0,0l4.9-6.4
		c0.7-0.9,1.6-1.5,2.6-1.1l6.5,2.7c0.9,0.4,1.2,1.3,1.1,2.2c0-0.9-0.2-1.8-1.1-2.2l-6.5-2.7c-1-0.4-2,0.2-2.6,1.1L88,47.9l0,0
		c-3.3-0.5-6.8-0.5-10.2,0v0l-4.9-6.4c-0.7-0.9-1.6-1.5-2.6-1.1L63.7,43.1c-0.8,0.3-1.1,1-1.1,1.8C62.6,44.1,62.9,43.4,63.7,43.1z"
		/>
	<path class="st2" d="M109.3,60.9L109.3,60.9l8-1.1c1.1-0.1,2.2,0.1,2.6,1.1l2.7,6.5c0.1,0.3,0.1,0.5,0.1,0.7c0-0.2,0-0.5-0.1-0.8
		l-2.7-6.5c-0.4-1-1.5-1.2-2.6-1.1L109.3,60.9L109.3,60.9c-2-2.8-4.5-5.2-7.2-7.2l0,0C104.8,55.7,107.2,58.1,109.3,60.9z"/>
	<path class="st2" d="M45.9,60.9c0.4-1,1.5-1.2,2.6-1.1l8,1.1l0,0c2-2.7,4.4-5.2,7.2-7.2h0l0,0c-2.8,2-5.2,4.5-7.2,7.2l0,0l-8-1.1
		C47.4,59.7,46.3,59.9,45.9,60.9l-2.7,6.5C43,67.7,43,68,43,68.2c0-0.2,0-0.5,0.1-0.7L45.9,60.9z"/>
	<path class="st2" d="M66.8,86.8c3.7,8.9,13.8,13.1,22.7,9.4c6.7-2.8,10.7-9.2,10.7-15.9c-0.1,6.8-4.1,13.2-10.7,15.9
		C80.7,99.8,70.5,95.6,66.8,86.8c-0.9-2.2-1.3-4.5-1.3-6.8C65.5,82.2,65.9,84.5,66.8,86.8z"/>
	<path class="st2" d="M115.5,80.1c0-1.7-0.1-3.4-0.4-5.1h0C115.4,76.7,115.5,78.4,115.5,80.1z"/>
	<path class="st2" d="M50.6,75c-0.3,1.7-0.4,3.4-0.4,5.1C50.2,78.4,50.4,76.7,50.6,75L50.6,75z"/>
	<path class="st2" d="M44.2,90.1l6.4-4.9c0,0,0,0,0,0L44.2,90.1C43.6,90.6,43,91.3,43,92C43,91.3,43.6,90.6,44.2,90.1z"/>
	<path class="st2" d="M115.1,85.2l6.4,4.9c0.7,0.5,1.2,1.1,1.2,1.9c0-0.7-0.6-1.4-1.2-1.9L115.1,85.2L115.1,85.2
		C115.1,85.2,115.1,85.2,115.1,85.2L115.1,85.2z"/>
	<path class="st2" d="M63.7,106.5L63.7,106.5C63.7,106.5,63.7,106.5,63.7,106.5l-1.1,8c0,0.1,0,0.3,0,0.4c0-0.1,0-0.3,0-0.4
		L63.7,106.5z"/>
	<path class="st2" d="M102.1,106.5l1.1,8c0,0.1,0,0.3,0,0.4c0-0.1,0-0.3,0-0.4L102.1,106.5C102.1,106.5,102.1,106.5,102.1,106.5
		L102.1,106.5z"/>
	<path class="st2" d="M44.2,70.1l6.4,4.9c0,0,0,0,0,0l0,0c-0.3,1.7-0.4,3.4-0.4,5.1c0,1.7,0.1,3.4,0.4,5.1l0,0c0,0,0,0,0,0l-6.4,4.9
		C43.6,90.6,43,91.3,43,92c0,0.2,0,0.5,0.1,0.7l2.7,6.5c0.4,1,1.5,1.3,2.6,1.1l8-1.1c2,2.8,4.5,5.2,7.2,7.2l0,0l0,0c0,0,0,0,0,0l0,0
		l-1.1,8c0,0.1,0,0.3,0,0.4c0,0.9,0.2,1.8,1.1,2.2l6.5,2.7c1,0.4,2-0.2,2.6-1.1l4.9-6.4v0c3.3,0.5,6.8,0.5,10.2,0l0,0l4.9,6.4
		c0.7,0.9,1.6,1.5,2.6,1.1l6.5-2.7c0.9-0.4,1.2-1.3,1.1-2.2c0-0.1,0-0.3,0-0.4l-1.1-8v0c0,0,0,0,0,0l0,0v0c2.8-2,5.2-4.5,7.2-7.2
		l0,0l8,1.1c1.1,0.1,2.2-0.1,2.6-1.1l2.7-6.5c0.1-0.3,0.1-0.5,0.1-0.7c0-0.7-0.6-1.4-1.2-1.9l-6.4-4.9l0,0c0,0,0,0,0,0l0,0
		c0.3-1.7,0.4-3.3,0.4-5c0-1.7-0.1-3.4-0.4-5.1h0c0,0,0,0,0,0h0l6.4-4.9c0.7-0.5,1.2-1.2,1.2-1.9c0-0.2,0-0.5-0.1-0.7l-2.7-6.5
		c-0.4-1-1.5-1.2-2.6-1.1l-8,1.1l0,0c-2-2.8-4.5-5.2-7.2-7.2l0,0c0,0,0,0,0,0l0,0l1.1-8c0-0.1,0-0.3,0-0.4c0-0.9-0.2-1.8-1.1-2.2
		l-6.5-2.7c-1-0.4-2,0.2-2.6,1.1L88,47.9l0,0c-3.3-0.5-6.8-0.5-10.2,0v0l-4.9-6.4c-0.7-0.9-1.6-1.5-2.6-1.1l-6.5,2.7
		c-0.8,0.3-1.1,1-1.1,1.8c0,0.3,0,0.5,0,0.8l1.1,8h0c0,0,0,0,0,0l0,0h0c-2.8,2-5.2,4.5-7.2,7.2l0,0l-8-1.1c-1.1-0.1-2.2,0.1-2.6,1.1
		l-2.7,6.5C43,67.7,43,68,43,68.2C43,68.9,43.6,69.6,44.2,70.1z M76.2,64.1c8.9-3.7,19,0.5,22.7,9.4c0.9,2.2,1.3,4.5,1.3,6.8
		c0,6.8-4.1,13.2-10.7,15.9c-8.9,3.7-19-0.5-22.7-9.4c-0.9-2.2-1.3-4.5-1.3-6.8C65.5,73.2,69.6,66.8,76.2,64.1z"/>
	<path class="st2" d="M38.3,71.2c0.1-0.7,0.3-1.3,0.4-1.9C38.6,69.9,38.5,70.6,38.3,71.2z"/>
	<path class="st2" d="M55.2,103.7l4,4c0.4,0.4,0.5,0.8,0.5,1.4c0-0.5-0.1-1-0.5-1.4L55.2,103.7c-0.7-0.7-2-0.5-3-0.2l-7.1,1.8
		c-3.3-4.9-5.6-10.4-6.8-16.4l0,0c1.2,6,3.5,11.5,6.8,16.4l7.1-1.8C53.2,103.3,54.5,103,55.2,103.7z"/>
	<path class="st2" d="M59.7,51.1c0-0.5-0.1-1.1-0.3-1.6l-1.8-7.1c0,0,0,0,0,0l1.8,7.1C59.6,50,59.7,50.5,59.7,51.1z"/>
	<path class="st2" d="M70.7,36.4c0.3-0.1,0.6-0.2,0.9-0.3C71.3,36.2,71,36.3,70.7,36.4z"/>
	<path class="st2" d="M38.8,69c0.2-0.6,0.3-1.2,0.5-1.8C39.2,67.8,39,68.4,38.8,69z"/>
	<path class="st2" d="M58.9,41.6c0.2-0.1,0.3-0.2,0.5-0.3C59.2,41.3,59.1,41.5,58.9,41.6z"/>
	<path class="st2" d="M60.8,40.4c0.2-0.1,0.3-0.2,0.5-0.3C61.1,40.2,60.9,40.4,60.8,40.4z"/>
	<path class="st2" d="M42.9,58.6c0.2-0.4,0.4-0.7,0.6-1.1C43.3,57.9,43.1,58.2,42.9,58.6z"/>
	<path class="st2" d="M44,56.7c0.2-0.3,0.4-0.6,0.6-0.9C44.4,56,44.2,56.3,44,56.7z"/>
	<path class="st2" d="M68.6,37c0.3-0.1,0.6-0.2,0.8-0.3C69.2,36.8,68.9,36.9,68.6,37z"/>
	<path class="st2" d="M66.6,37.7c0.3-0.1,0.5-0.2,0.8-0.3C67.1,37.5,66.8,37.6,66.6,37.7z"/>
	<path class="st2" d="M482.4,125.5l-4.3-7.1c-0.6-0.9-1.3-2-2.3-2l-5.7,0c-1,0-1.7,1.1-2.3,2l-4.3,7.1c-5.6,0-11.1,0-16.7,0
		l-4.3-7.1c-0.6-0.9-1.3-2-2.3-2l-5.7,0c-1,0-1.7,1.1-2.3,2l-4.3,7.1c-5.6,0-11.1,0-16.7,0l-4.3-7.1c-0.5-0.9-1.3-2-2.3-2l-5.7,0
		c-1,0-1.7,1.1-2.3,2l-4.3,7.1c-5.6,0-11.1,0-16.7,0l-4.3-7.1c-0.5-0.9-1.3-2-2.3-2l-5.7,0c-1,0-1.7,1.1-2.3,2l-4.3,7.1
		c-5.6,0-11.1,0-16.7,0l-4.3-7.2c-0.5-0.9-1.3-2-2.3-2h-5.7c-1,0-1.7,1.1-2.3,2l-4.3,7.2c-5.6,0-11.2,0-16.7,0l-4.3-7.2
		c-0.6-0.9-1.2-2-2.3-2h-5.7c-1,0-1.7,1.1-2.3,2l-4.3,7.2c-5.6,0-11.1,0-16.7,0l-4.3-7.2c-0.6-0.9-1.3-2-2.3-2h-5.7
		c-1,0-1.7,1.1-2.3,2l-4.3,7.2c-5.6,0-11.1,0-16.7,0l-4.3-7.2c-0.6-0.9-1.3-2-2.3-2h-5.7c-1,0-1.7,1.1-2.3,2l-4.3,7.2
		c-5.6,0-11.1,0-16.7,0l-4.3-7.2c-0.6-0.9-1.2-2-2.3-2h-5.7c-1,0-1.7,1.1-2.3,2l-4.3,7.2c-5.6,0-11.1,0-16.7,0l-4.3-7.2
		c-0.6-0.9-1.2-2-2.3-2H151c-1,0-1.7,1.1-2.3,2l-4.3,7.2c-5.6,0-11.1,0-16.7,0l-4.3-7.2c-0.6-0.9-1.3-2-2.3-2h-5.7
		c-1,0-1.7,1.1-2.3,2l-4.3,7.2c-5.6,0-11.1,0-16.7,0l-4.3-7.2c-0.6-0.9-1.3-2-2.3-2H80c-1,0-1.7,1.1-2.3,2l-3.7,6.3
		c-6-1.2-11.5-3.5-16.4-6.8l0,0c4.9,3.3,10.4,5.6,16.4,6.8l3.7-6.3c0.6-0.9,1.3-2,2.3-2h5.7c1,0,1.7,1.1,2.3,2l4.3,7.2
		c5.6,0,11.1,0,16.7,0l4.3-7.2c0.6-0.9,1.3-2,2.3-2h5.7c1,0,1.7,1.1,2.3,2l4.3,7.2c5.6,0,11.1,0,16.7,0l4.3-7.2c0.6-0.9,1.3-2,2.3-2
		h5.7c1,0,1.7,1.1,2.3,2l4.3,7.2c5.6,0,11.1,0,16.7,0l4.3-7.2c0.5-0.9,1.3-2,2.3-2h5.7c1,0,1.7,1.1,2.3,2l4.3,7.2
		c5.6,0,11.1,0,16.7,0l4.3-7.2c0.6-0.9,1.3-2,2.3-2h5.7c1,0,1.7,1.1,2.3,2l4.3,7.2c5.6,0,11.1,0,16.7,0l4.3-7.2c0.6-0.9,1.3-2,2.3-2
		h5.7c1,0,1.7,1.1,2.3,2l4.3,7.2c5.6,0,11.1,0,16.7,0l4.3-7.2c0.6-0.9,1.3-2,2.3-2h5.7c1,0,1.7,1.1,2.3,2l4.3,7.2
		c5.6,0,11.2,0,16.7,0l4.3-7.2c0.6-0.9,1.3-2,2.3-2h5.7c1,0,1.7,1.1,2.3,2l4.3,7.2c5.6,0,11.1,0,16.7,0l4.3-7.1c0.6-0.9,1.2-2,2.3-2
		l5.7,0c1,0,1.7,1.1,2.3,2l4.3,7.1c5.6,0,11.1,0,16.7,0l4.3-7.1c0.6-0.9,1.3-2,2.3-2l5.7,0c1,0,1.7,1.1,2.3,2l4.3,7.1
		c5.6,0,11.1,0,16.7,0l4.3-7.1c0.6-0.9,1.3-2,2.3-2l5.7,0c1,0,1.7,1.1,2.3,2l4.3,7.1c5.6,0,11.1,0,16.7,0l4.3-7.1
		c0.6-0.9,1.3-2,2.3-2l5.7,0c1,0,1.7,1.1,2.3,2L482.4,125.5c3.9,0,7.7,0,11.6,0v0C490.1,125.5,486.2,125.5,482.4,125.5z"/>
	<path class="st2" d="M62.7,39.4c0.2-0.1,0.4-0.2,0.6-0.3C63,39.2,62.9,39.3,62.7,39.4z"/>
	<path class="st2" d="M64.6,38.5c0.2-0.1,0.4-0.2,0.7-0.3C65,38.3,64.8,38.4,64.6,38.5z"/>
	<path class="st2" d="M72.9,35.8c0.3-0.1,0.6-0.1,0.9-0.2C73.5,35.7,73.2,35.7,72.9,35.8z"/>
	<path class="st2" d="M46.6,77.3V83c0,0,0,0,0,0L46.6,77.3c0-1-1.1-1.7-2-2.3l-6.3-3.7c0,0,0,0,0,0l6.3,3.7
		C45.5,75.5,46.6,76.3,46.6,77.3z"/>
	<path class="st2" d="M40.2,64.7c0.2-0.5,0.4-1,0.6-1.5C40.5,63.6,40.3,64.2,40.2,64.7z"/>
	<path class="st2" d="M41.9,60.6c0.2-0.4,0.4-0.8,0.6-1.2C42.3,59.7,42.1,60.1,41.9,60.6z"/>
	<path class="st2" d="M39.4,66.8c0.2-0.6,0.4-1.1,0.6-1.7C39.8,65.7,39.6,66.2,39.4,66.8z"/>
	<path class="st2" d="M41,62.6c0.2-0.5,0.4-0.9,0.6-1.4C41.4,61.7,41.2,62.1,41,62.6z"/>
	<path class="st2" d="M46.1,41.5C47,40.6,48,39.8,49,39C48,39.8,47,40.6,46.1,41.5z"/>
	<path class="st2" d="M53.1,35.9c1.1-0.7,2.2-1.4,3.3-2C55.2,34.5,54.1,35.2,53.1,35.9z"/>
	<path class="st2" d="M58.9,32.5c1-0.5,1.9-0.9,2.9-1.4C60.8,31.5,59.9,32,58.9,32.5z"/>
	<path class="st2" d="M493.9,26.8L493.9,26.8l-411,0c-5.2,0-10.2,0.7-14.9,2.1c4.7-1.4,9.7-2.1,14.9-2.1H493.9z"/>
	<path class="st2" d="M80,43.9h5.7c1,0,1.7-1.1,2.3-2l4.3-7.1c-3.1,0-6.3,0-9.4,0c-3,0-6,0.3-8.9,0.9l3.7,6.3
		C78.3,42.8,79,43.9,80,43.9z"/>
	<path class="st2" d="M45.1,54.9l7.1,1.8c1,0.3,2.3,0.5,3-0.2l4-4c0.4-0.4,0.5-0.8,0.5-1.4c0-0.5-0.1-1.1-0.3-1.6l-1.8-7.1
		C52.7,45.7,48.4,49.9,45.1,54.9z"/>
	<path class="st2" d="M38.3,89l6.3-3.7c0.9-0.6,2-1.3,2-2.3v-5.7c0-1-1.1-1.7-2-2.3l-6.3-3.7c-0.6,2.9-0.9,5.8-0.9,8.9
		C37.5,83.1,37.8,86.1,38.3,89L38.3,89C38.3,89,38.3,89,38.3,89z"/>
	<path class="st2" d="M57.6,117.9l1.8-7.1c0.1-0.5,0.3-1.1,0.3-1.6c0-0.5-0.1-1-0.5-1.4l-4-4c-0.7-0.7-2-0.5-3-0.2l-7.1,1.8
		C48.4,110.3,52.7,114.5,57.6,117.9L57.6,117.9C57.6,117.9,57.6,117.9,57.6,117.9z"/>
	<path class="st2" d="M85.7,116.4H80c-1,0-1.7,1.1-2.3,2l-3.7,6.3c2.9,0.6,5.8,0.9,8.9,0.9c3.1,0,6.2,0,9.4,0l-4.3-7.2
		C87.4,117.4,86.7,116.4,85.7,116.4z"/>
	<path class="st2" d="M115.5,43.9h5.7c1,0,1.7-1.1,2.3-2l4.3-7.1c-6.3,0-12.5,0-18.8,0l4.3,7.1C113.8,42.8,114.5,43.9,115.5,43.9z"
		/>
	<path class="st2" d="M121.2,116.4h-5.7c-1,0-1.7,1.1-2.3,2l-4.3,7.2c6.3,0,12.5,0,18.8,0l-4.3-7.2
		C122.9,117.4,122.2,116.4,121.2,116.4z"/>
	<path class="st2" d="M151,43.9h5.7c1,0,1.7-1.1,2.3-2l4.3-7.1c-6.3,0-12.5,0-18.8,0l4.3,7.1C149.2,42.8,149.9,43.9,151,43.9z"/>
	<path class="st2" d="M156.6,116.4H151c-1,0-1.7,1.1-2.3,2l-4.3,7.2c6.3,0,12.5,0,18.8,0l-4.3-7.2
		C158.4,117.4,157.7,116.4,156.6,116.4z"/>
	<path class="st2" d="M186.4,43.9h5.7c1,0,1.7-1.1,2.3-2l4.3-7.1c-6.3,0-12.5,0-18.8,0l4.3,7.1C184.7,42.8,185.4,43.9,186.4,43.9z"
		/>
	<path class="st2" d="M192.1,116.4h-5.7c-1,0-1.7,1.1-2.3,2l-4.3,7.2c6.3,0,12.5,0,18.8,0l-4.3-7.2
		C193.8,117.4,193.1,116.4,192.1,116.4z"/>
	<path class="st2" d="M221.9,43.9h5.7c1,0,1.7-1.1,2.3-2l4.3-7.1c-6.3,0-12.5,0-18.8,0l4.3,7.1C220.2,42.8,220.9,43.9,221.9,43.9z"
		/>
	<path class="st2" d="M227.6,116.4h-5.7c-1,0-1.7,1.1-2.3,2l-4.3,7.2c6.3,0,12.5,0,18.8,0l-4.3-7.2
		C229.3,117.4,228.6,116.4,227.6,116.4z"/>
	<path class="st2" d="M257.4,43.9h5.7c1,0,1.7-1.1,2.3-2l4.3-7.1c-6.3,0-12.5,0-18.8,0l4.3,7.1C255.6,42.8,256.3,43.9,257.4,43.9z"
		/>
	<path class="st2" d="M263,116.4h-5.7c-1,0-1.7,1.1-2.3,2l-4.3,7.2c6.3,0,12.5,0,18.8,0l-4.3-7.2C264.7,117.4,264,116.4,263,116.4z"
		/>
	<path class="st2" d="M292.8,43.9h5.7c1,0,1.7-1.1,2.3-2l4.3-7.1c-6.3,0-12.5,0-18.8,0l4.3,7.1C291.1,42.8,291.8,43.9,292.8,43.9z"
		/>
	<path class="st2" d="M298.5,116.4h-5.7c-1,0-1.7,1.1-2.3,2l-4.3,7.2c6.3,0,12.5,0,18.8,0l-4.3-7.2
		C300.2,117.4,299.5,116.4,298.5,116.4z"/>
	<path class="st2" d="M328.3,43.9l5.7,0c1,0,1.7-1.1,2.3-2l4.3-7.1c-6.3,0-12.5,0-18.8,0l4.3,7.1C326.6,42.8,327.3,43.9,328.3,43.9z
		"/>
	<path class="st2" d="M334,116.4h-5.7c-1,0-1.7,1.1-2.3,2l-4.3,7.2c6.3,0,12.5,0,18.8,0l-4.3-7.2C335.7,117.4,335,116.4,334,116.4z"
		/>
	<path class="st2" d="M434.7,43.9l5.7,0c1,0,1.7-1.1,2.3-2l4.3-7.1c-6.3,0-12.5,0-18.8,0l4.3,7.1C433,42.8,433.7,43.9,434.7,43.9z"
		/>
	<path class="st2" d="M440.4,116.4l-5.7,0c-1,0-1.7,1.1-2.3,2l-4.3,7.1c6.3,0,12.5,0,18.8,0l-4.3-7.1
		C442.1,117.5,441.4,116.4,440.4,116.4z"/>
	<path class="st2" d="M399.2,43.9l5.7,0c1,0,1.7-1.1,2.3-2l4.3-7.1c-6.3,0-12.5,0-18.8,0l4.3,7.1C397.5,42.8,398.2,43.9,399.2,43.9z
		"/>
	<path class="st2" d="M404.9,116.4l-5.7,0c-1,0-1.7,1.1-2.3,2l-4.3,7.1c6.3,0,12.5,0,18.8,0l-4.3-7.1
		C406.6,117.5,405.9,116.4,404.9,116.4z"/>
	<path class="st2" d="M363.8,43.9l5.7,0c1,0,1.7-1.1,2.3-2l4.3-7.1c-6.3,0-12.5,0-18.8,0l4.3,7.1C362,42.8,362.8,43.9,363.8,43.9z"
		/>
	<path class="st2" d="M369.5,116.4l-5.7,0c-1,0-1.7,1.1-2.3,2l-4.3,7.1c6.3,0,12.5,0,18.8,0l-4.3-7.1
		C371.2,117.5,370.5,116.4,369.5,116.4z"/>
	<path class="st2" d="M470.1,43.8l5.7,0c1,0,1.7-1.1,2.3-2l4.3-7.1c-6.3,0-12.5,0-18.8,0l4.3,7.1C468.4,42.8,469.1,43.8,470.1,43.8z
		"/>
	<path class="st2" d="M475.8,116.4l-5.7,0c-1,0-1.7,1.1-2.3,2l-4.3,7.1c6.3,0,12.5,0,18.8,0l-4.3-7.1
		C477.5,117.4,476.8,116.4,475.8,116.4z"/>
	<path class="st2" d="M482.4,34.7L484,32h-22l1.6,2.7h-16.7l1.6-2.7h-22l1.6,2.7h-16.7l1.6-2.7h-22l1.6,2.7H376l1.6-2.7h-22l1.6,2.7
		h-16.7l1.6-2.7v0h-22l1.6,2.7h-16.7l1.6-2.7h-22v0l1.6,2.7h-16.7l1.6-2.7h-22v0l1.6,2.7h-16.7l1.6-2.7h-22v0l1.6,2.7h-16.7l1.6-2.7
		h-22v0l1.6,2.7h-16.7l1.6-2.7h-22v0l1.6,2.7h-16.7l1.6-2.7h-22v0l1.6,2.7H92.3l1.6-2.7h-22v0l2.1,3.6c-0.1,0-0.1,0-0.2,0
		c-0.3,0.1-0.6,0.1-1,0.2c-0.4,0.1-0.8,0.2-1.3,0.3c-0.3,0.1-0.6,0.2-0.9,0.3c-0.4,0.1-0.9,0.2-1.3,0.4c-0.3,0.1-0.6,0.2-0.8,0.3
		c-0.4,0.1-0.9,0.3-1.3,0.4c-0.3,0.1-0.5,0.2-0.8,0.3c-0.4,0.2-0.9,0.3-1.3,0.5c-0.2,0.1-0.4,0.2-0.7,0.3c-0.5,0.2-0.9,0.4-1.4,0.6
		c-0.2,0.1-0.4,0.2-0.6,0.3c-0.5,0.2-0.9,0.5-1.4,0.7c-0.2,0.1-0.3,0.2-0.5,0.3c-0.5,0.3-0.9,0.5-1.4,0.8c-0.2,0.1-0.3,0.2-0.5,0.3
		c-0.4,0.3-0.8,0.5-1.3,0.8l-1-4.1L41,53.8l4.1,1c-0.2,0.3-0.4,0.6-0.5,0.8c-0.2,0.3-0.4,0.6-0.6,0.9c-0.2,0.3-0.3,0.6-0.5,0.9
		c-0.2,0.4-0.4,0.7-0.6,1.1c-0.1,0.2-0.3,0.5-0.4,0.8c-0.2,0.4-0.4,0.8-0.6,1.2c-0.1,0.2-0.2,0.4-0.3,0.6c-0.2,0.5-0.4,0.9-0.6,1.4
		c-0.1,0.2-0.1,0.4-0.2,0.5c-0.2,0.5-0.4,1-0.6,1.5c0,0.1-0.1,0.3-0.1,0.4c-0.2,0.6-0.4,1.1-0.6,1.7c0,0.1-0.1,0.2-0.1,0.4
		c-0.2,0.6-0.3,1.2-0.5,1.8c0,0.1,0,0.2-0.1,0.3c-0.2,0.6-0.3,1.3-0.4,1.9c0,0,0,0,0,0h0c0,0,0,0,0,0l-3.6-2.2v22l3.6-2.2
		c1.2,6,3.5,11.5,6.8,16.4v0l-4.1,1l15.6,15.6l1-4.1c0.4,0.3,0.9,0.6,1.3,0.8c0.1,0.1,0.2,0.1,0.3,0.2c0.1,0,0.1,0.1,0.2,0.1
		c0,0,0,0,0,0c0.3,0.2,0.6,0.4,0.9,0.5c0.1,0.1,0.2,0.1,0.3,0.2c0,0,0.1,0.1,0.2,0.1c0.1,0,0.1,0.1,0.2,0.1c0.1,0,0.2,0.1,0.3,0.2v0
		c0.3,0.2,0.7,0.4,1,0.5c0.2,0.1,0.4,0.2,0.6,0.3c0.5,0.2,0.9,0.4,1.4,0.7c0.4,0.2,0.8,0.3,1.2,0.5c0.4,0.2,0.8,0.3,1.2,0.5
		c0.6,0.2,1.2,0.4,1.8,0.6c0.3,0.1,0.7,0.2,1.1,0.3c0.4,0.1,0.9,0.3,1.3,0.4c0.6,0.2,1.2,0.3,1.8,0.4c0.4,0.1,0.8,0.2,1.3,0.3
		l-2.2,3.6h22l-1.6-2.7h16.7l-1.6,2.7h22l-1.6-2.7h16.7l-1.6,2.7h22l-1.6-2.7h16.7l-1.6,2.7h22l-1.6-2.7h16.7l-1.6,2.7h22l-1.6-2.7
		h16.7l-1.6,2.7h22l-1.6-2.7h16.7l-1.6,2.7h22l-1.6-2.7h16.7l-1.6,2.7h22l-1.6-2.7h16.7l-1.6,2.7h22l-1.6-2.7h16.7l-1.6,2.7h22
		l-1.6-2.7h16.7l-1.6,2.7h22l-1.6-2.7h16.7l-1.6,2.7h22l-1.6-2.7h11.5v7.9h-411c-0.5,0-0.9,0-1.4,0c-0.3,0-0.7,0-1,0
		c-0.7,0-1.3-0.1-2-0.1c-0.4,0-0.8-0.1-1.1-0.1c-0.5,0-0.9-0.1-1.3-0.1c-1-0.1-2-0.3-2.9-0.5c-0.5-0.1-0.9-0.2-1.4-0.3
		c-2.1-0.4-4.2-1-6.3-1.7c-0.7-0.3-1.5-0.5-2.2-0.8c-0.5-0.2-1-0.4-1.4-0.6c-0.3-0.1-0.6-0.3-0.9-0.4c-0.8-0.4-1.6-0.8-2.4-1.2
		c-0.4-0.2-0.8-0.4-1.2-0.6c-0.3-0.1-0.5-0.3-0.8-0.4c-0.1-0.1-0.2-0.1-0.3-0.2c-0.4-0.2-0.7-0.4-1.1-0.7c-0.4-0.2-0.7-0.4-1.1-0.7
		c-0.7-0.5-1.4-0.9-2.1-1.4c-0.3-0.3-0.7-0.5-1-0.8c-0.4-0.3-0.7-0.5-1-0.8c-0.7-0.5-1.3-1.1-2-1.6c-0.3-0.3-0.6-0.6-1-0.8
		c-0.6-0.6-1.3-1.2-1.8-1.8c-0.5-0.5-1-1-1.4-1.5c-0.3-0.3-0.6-0.7-0.9-1c0,0-0.1-0.1-0.1-0.1c0,0,0,0,0-0.1c0-0.1-0.1-0.1-0.2-0.2
		c-0.3-0.3-0.6-0.7-0.8-1c0,0-0.1-0.1-0.1-0.1c0,0,0-0.1-0.1-0.1c-0.3-0.4-0.6-0.8-0.9-1.2c-0.1-0.2-0.2-0.3-0.3-0.4
		c0-0.1-0.1-0.1-0.1-0.2c-0.2-0.3-0.5-0.6-0.7-0.9c0,0-0.1-0.1-0.1-0.1c0,0,0,0,0,0c-0.3-0.3-0.5-0.7-0.7-1
		c-0.1-0.1-0.1-0.2-0.2-0.3c0,0,0,0,0,0c-0.3-0.5-0.6-1-0.9-1.4c-0.3-0.5-0.6-1-0.9-1.5v0c-0.2-0.4-0.4-0.7-0.6-1.1
		c-0.2-0.4-0.4-0.8-0.6-1.1c0,0,0,0,0,0c-0.2-0.4-0.4-0.8-0.6-1.2s-0.4-0.8-0.5-1.2v0c-0.2-0.4-0.3-0.8-0.5-1.2
		c-0.2-0.4-0.3-0.8-0.5-1.2v0c-0.2-0.4-0.3-0.8-0.5-1.2c-0.2-0.4-0.3-0.8-0.4-1.2v0c-0.1-0.4-0.3-0.8-0.4-1.2
		c-0.1-0.3-0.2-0.7-0.3-1c0-0.1,0-0.2-0.1-0.2l-0.1-0.5c-0.2-0.9-0.5-1.7-0.6-2.6c0-0.2-0.1-0.3-0.1-0.5c-0.1-0.3-0.1-0.7-0.2-1v0
		c0-0.1,0-0.3-0.1-0.4c0-0.2-0.1-0.4-0.1-0.7c0-0.1,0-0.1,0-0.2c0-0.2-0.1-0.3-0.1-0.5c-0.1-1-0.3-1.9-0.4-2.9
		c0-0.4-0.1-0.7-0.1-1.1v0c0-0.4-0.1-0.8-0.1-1.2c0-0.2,0-0.3,0-0.5c0-0.1,0-0.1,0-0.2c0-0.3,0-0.6,0-0.9c0-0.4,0-0.9,0-1.3v0
		c0-15.2,6.3-28.9,16.5-38.6C47,40.6,48,39.8,49,39c0.7-0.5,1.3-1.1,2-1.6c0.7-0.5,1.4-1,2.1-1.5c1.1-0.7,2.2-1.4,3.3-2
		c0.4-0.2,0.7-0.4,1.1-0.6c0.5-0.3,1-0.5,1.4-0.8c1-0.5,1.9-0.9,2.9-1.4c2-0.9,4-1.6,6.1-2.2c4.7-1.4,9.7-2.1,14.9-2.1h411v7.9
		H482.4z"/>
	<path class="st2" d="M74,35.6c2.9-0.6,5.8-0.9,8.9-0.9c3.1,0,6.3,0,9.4,0l0,0c0,0,0,0,0,0l1.6-2.7h-22v0L74,35.6
		C74,35.6,74,35.6,74,35.6L74,35.6z"/>
	<path class="st2" d="M45.1,54.9c3.3-4.9,7.6-9.2,12.5-12.5l-1-4.1L41,53.8l0,0L45.1,54.9C45.1,54.9,45.1,54.9,45.1,54.9L45.1,54.9z
		"/>
	<path class="st2" d="M38.3,71.2l-3.6-2.2v22h0l3.6-2.1c-0.6-2.9-0.9-5.8-0.9-8.9C37.5,77.1,37.8,74.1,38.3,71.2z"/>
	<path class="st2" d="M45.1,105.3l-4.1,1l15.6,15.6l0,0l1-4.1C52.7,114.5,48.4,110.3,45.1,105.3z"/>
	<path class="st2" d="M74,124.7l-2.2,3.6h22v0l-1.6-2.7c-3.1,0-6.2,0-9.4,0C79.8,125.5,76.9,125.2,74,124.7z"/>
	<path class="st2" d="M109,34.7c6.3,0,12.5,0,18.8,0l0,0c0,0,0,0,0,0l1.6-2.7h-22v0L109,34.7C109,34.7,109,34.7,109,34.7L109,34.7z"
		/>
	<path class="st2" d="M107.3,128.3h22v0l-1.6-2.7c-6.3,0-12.5,0-18.8,0L107.3,128.3z"/>
	<path class="st2" d="M144.4,34.7c6.3,0,12.5,0,18.8,0l0,0c0,0,0,0,0,0l1.6-2.7h-22v0L144.4,34.7C144.4,34.7,144.4,34.7,144.4,34.7
		L144.4,34.7z"/>
	<path class="st2" d="M142.8,128.3h22v0l-1.6-2.7c-6.3,0-12.5,0-18.8,0L142.8,128.3z"/>
	<path class="st2" d="M179.9,34.7c6.3,0,12.5,0,18.8,0l0,0c0,0,0,0,0,0l1.6-2.7h-22v0L179.9,34.7C179.9,34.7,179.9,34.7,179.9,34.7
		L179.9,34.7z"/>
	<path class="st2" d="M178.2,128.3h22v0l-1.6-2.7c-6.3,0-12.5,0-18.8,0L178.2,128.3z"/>
	<path class="st2" d="M215.4,34.7c6.3,0,12.5,0,18.8,0l0,0c0,0,0,0,0,0l1.6-2.7h-22v0L215.4,34.7C215.4,34.7,215.4,34.7,215.4,34.7
		L215.4,34.7z"/>
	<path class="st2" d="M213.7,128.3h22v0l-1.6-2.7c-6.3,0-12.5,0-18.8,0L213.7,128.3z"/>
	<path class="st2" d="M250.8,34.7c6.3,0,12.5,0,18.8,0l0,0c0,0,0,0,0,0l1.6-2.7h-22v0L250.8,34.7C250.8,34.7,250.8,34.7,250.8,34.7
		L250.8,34.7z"/>
	<path class="st2" d="M249.2,128.3h22v0l-1.6-2.7c-6.3,0-12.5,0-18.8,0L249.2,128.3z"/>
	<path class="st2" d="M286.3,34.7c6.3,0,12.5,0,18.8,0l0,0c0,0,0,0,0,0l1.6-2.7h-22v0L286.3,34.7C286.3,34.7,286.3,34.7,286.3,34.7
		L286.3,34.7z"/>
	<path class="st2" d="M284.6,128.3h22v0l-1.6-2.7c-6.3,0-12.5,0-18.8,0L284.6,128.3z"/>
	<path class="st2" d="M321.8,34.7c6.3,0,12.5,0,18.8,0l0,0c0,0,0,0,0,0l1.6-2.7v0h-22L321.8,34.7C321.7,34.7,321.8,34.7,321.8,34.7
		L321.8,34.7z"/>
	<path class="st2" d="M320.1,128.3L320.1,128.3l22,0l-1.6-2.7c-6.3,0-12.5,0-18.8,0L320.1,128.3z"/>
	<path class="st2" d="M428.2,34.7c6.3,0,12.5,0,18.8,0l0,0c0,0,0,0,0,0l1.6-2.7v0h-22L428.2,34.7C428.1,34.7,428.1,34.7,428.2,34.7
		L428.2,34.7z"/>
	<path class="st2" d="M426.5,128.3L426.5,128.3l22,0l-1.6-2.7c-6.3,0-12.5,0-18.8,0L426.5,128.3z"/>
	<path class="st2" d="M392.7,34.7c6.3,0,12.5,0,18.8,0l0,0c0,0,0,0,0,0l1.6-2.7v0h-22L392.7,34.7C392.7,34.7,392.7,34.7,392.7,34.7
		L392.7,34.7z"/>
	<path class="st2" d="M391.1,128.3L391.1,128.3l22,0l-1.6-2.7c-6.3,0-12.5,0-18.8,0L391.1,128.3z"/>
	<path class="st2" d="M357.2,34.7c6.3,0,12.5,0,18.8,0l0,0c0,0,0,0,0,0l1.6-2.7v0h-22L357.2,34.7C357.2,34.7,357.2,34.7,357.2,34.7
		L357.2,34.7z"/>
	<path class="st2" d="M355.6,128.3L355.6,128.3l22,0l-1.6-2.7c-6.3,0-12.5,0-18.8,0L355.6,128.3z"/>
	<path class="st2" d="M463.6,34.7c6.3,0,12.5,0,18.8,0l0,0c0,0,0,0,0,0L484,32h-22v0L463.6,34.7C463.6,34.7,463.6,34.7,463.6,34.7
		L463.6,34.7z"/>
	<path class="st2" d="M462,128.3h22v0l-1.6-2.7c-6.3,0-12.5,0-18.8,0L462,128.3z"/>
	<rect x="493.9" y="125.5" class="st3" width="5.2" height="0"/>
</g>
</svg>
