<?xml version="1.0" encoding="utf-8"?>
<!-- Generator: Adobe Illustrator 22.1.0, SVG Export Plug-In . SVG Version: 6.00 Build 0)  -->
<svg version="1.1" id="Layer_1" xmlns="http://www.w3.org/2000/svg" xmlns:xlink="http://www.w3.org/1999/xlink" x="0px" y="0px"
	 viewBox="0 0 555.3 153.5" style="enable-background:new 0 0 555.3 153.5;" xml:space="preserve">
<style type="text/css">
	.st0{fill:none;}
	.st1{fill:#505050;}
	.st2{fill:#231F20;}
	.st3{fill:#FFFFFF;}
</style>
<g>
	<path class="st0" d="M308.7,60.7c-8.9-3.7-19,0.5-22.7,9.4c-0.9,2.2-1.3,4.5-1.3,6.8c0.1,6.8,4.1,13.2,10.7,15.9
		c8.9,3.7,19-0.5,22.7-9.4c0.9-2.2,1.3-4.5,1.3-6.8C319.3,69.9,315.3,63.5,308.7,60.7z M314.3,76.8c0,6.8-5.5,12.3-12.3,12.3
		c-6.8,0-12.3-5.5-12.3-12.3c0,0,0,0,0,0s0,0,0,0c0-6.8,5.5-12.3,12.3-12.3C308.8,64.5,314.3,70,314.3,76.8
		C314.3,76.8,314.3,76.8,314.3,76.8C314.3,76.8,314.3,76.8,314.3,76.8z"/>
	<path class="st0" d="M131.3,60.7c-8.9-3.7-19,0.5-22.7,9.4c-0.9,2.2-1.3,4.5-1.3,6.8c0.1,6.8,4.1,13.2,10.7,15.9
		c8.9,3.7,19-0.5,22.7-9.4c0.9-2.2,1.3-4.5,1.3-6.8C142,69.9,138,63.5,131.3,60.7z M137,76.8c0,6.8-5.5,12.3-12.3,12.3
		c-6.8,0-12.3-5.5-12.3-12.3c0,0,0,0,0,0c0,0,0,0,0,0c0-6.8,5.5-12.3,12.3-12.3C131.5,64.5,137,70,137,76.8
		C137,76.8,137,76.8,137,76.8C137,76.8,137,76.8,137,76.8z"/>
	<path class="st0" d="M516.9,81.4c-0.1-0.1-0.2-0.2-0.3-0.2v0c0,0,0,0,0,0c-0.1,0-0.1-0.1-0.2-0.2c0,0-0.1-0.1-0.1-0.1v0
		c0-0.1-0.1-0.1-0.1-0.1c0,0-0.1-0.1-0.1-0.1c0,0,0,0,0-0.1c0,0-0.1-0.1-0.1-0.1c0,0,0,0,0,0c0-0.1-0.1-0.1-0.1-0.2
		c-0.1-0.1-0.1-0.2-0.1-0.3c0-0.1,0-0.2,0-0.3v-5.7c0-0.1,0-0.2,0-0.3c0-0.1,0-0.1,0.1-0.2c0,0,0,0,0,0c0,0,0,0,0-0.1
		c0-0.1,0.1-0.2,0.1-0.2c0,0,0.1-0.1,0.1-0.1c0-0.1,0.1-0.1,0.1-0.2s0.1-0.1,0.1-0.1c0.1-0.1,0.2-0.2,0.3-0.3
		c0.1-0.1,0.2-0.2,0.3-0.3c0.1-0.1,0.2-0.2,0.4-0.2c0.1-0.1,0.2-0.1,0.3-0.2l6.3-3.7c0,0,0,0,0,0c-0.1-0.6-0.3-1.3-0.4-1.9
		c0-0.1,0-0.2-0.1-0.3c-0.2-0.6-0.3-1.2-0.5-1.8c0-0.1-0.1-0.2-0.1-0.3c-0.2-0.6-0.4-1.1-0.6-1.7c-0.1-0.2-0.1-0.3-0.2-0.4
		c-0.2-0.5-0.4-1-0.6-1.5c-0.1-0.2-0.1-0.4-0.2-0.5c-0.2-0.5-0.4-0.9-0.6-1.4c-0.1-0.2-0.2-0.5-0.3-0.7c-0.2-0.4-0.4-0.8-0.6-1.2
		c-0.1-0.3-0.3-0.5-0.4-0.8c-0.2-0.4-0.4-0.7-0.6-1.1c-0.2-0.3-0.3-0.6-0.5-0.9c-0.2-0.3-0.4-0.6-0.6-0.9c-0.1-0.1-0.2-0.3-0.3-0.4
		c0-0.1-0.1-0.1-0.1-0.2s-0.1-0.1-0.1-0.2l-7.1,1.8c-0.1,0-0.3,0.1-0.4,0.1c-0.3,0.1-0.5,0.1-0.8,0.1c-0.2,0-0.3,0-0.5,0
		c-0.1,0-0.1,0-0.2,0c-0.1,0-0.1,0-0.2,0c-0.1,0-0.2,0-0.3-0.1c-0.1,0-0.2-0.1-0.3-0.1c0,0,0,0,0,0v0c0,0,0,0-0.1,0c0,0,0,0-0.1,0
		l0,0c0,0-0.1-0.1-0.1-0.1l-4-4c-0.1-0.1-0.2-0.2-0.2-0.3c-0.1-0.1-0.1-0.2-0.1-0.3c0-0.1-0.1-0.2-0.1-0.4c0-0.1,0-0.3,0-0.4
		c0-0.5,0.1-1.1,0.3-1.6l1.8-7.1v0c-0.4-0.3-0.8-0.5-1.2-0.8c-0.2-0.1-0.3-0.2-0.5-0.3c-0.5-0.3-0.9-0.5-1.4-0.8
		c-0.2-0.1-0.3-0.2-0.5-0.3c-0.5-0.3-0.9-0.5-1.4-0.7c-0.2-0.1-0.4-0.2-0.6-0.3c-0.5-0.2-0.9-0.4-1.4-0.6c-0.2-0.1-0.4-0.2-0.7-0.3
		c-0.4-0.2-0.9-0.4-1.3-0.5c-0.3-0.1-0.5-0.2-0.7-0.3c-0.4-0.2-0.9-0.3-1.3-0.4c-0.3-0.1-0.5-0.2-0.8-0.3c-0.4-0.1-0.8-0.3-1.3-0.4
		c-0.3-0.1-0.6-0.2-0.9-0.3c-0.4-0.1-0.9-0.2-1.3-0.3c-0.3-0.1-0.6-0.1-0.9-0.2c0,0-0.1,0-0.2,0c0,0,0,0,0,0l-3.8,6.3
		c-0.1,0.1-0.2,0.3-0.2,0.4c-0.1,0.1-0.1,0.2-0.2,0.3c0,0,0,0.1-0.1,0.1c-0.1,0.1-0.2,0.2-0.3,0.3c-0.1,0.1-0.2,0.3-0.3,0.4
		c0,0-0.1,0.1-0.1,0.1v0c0,0-0.1,0.1-0.1,0.1c0,0,0,0,0,0v0c0,0-0.1,0.1-0.2,0.1c0,0,0,0,0,0c0,0-0.1,0-0.1,0.1c0,0-0.1,0-0.2,0v0
		c0,0,0,0,0,0c0,0-0.1,0-0.1,0c0,0-0.1,0-0.1,0c0,0-0.1,0-0.1,0h-5.7c0,0-0.1,0-0.1,0c0,0,0,0-0.1,0c0,0-0.1,0-0.1,0
		c-0.1,0-0.3-0.1-0.4-0.1v0c-0.1,0-0.1,0-0.2-0.1c-0.1,0-0.1-0.1-0.2-0.1v0c0,0-0.1-0.1-0.1-0.1c-0.4-0.4-0.8-1-1.1-1.5l-4.3-7.2
		c0,0,0,0,0,0h-16.7l-4.3,7.2c-0.1,0.1-0.2,0.3-0.2,0.4c-0.1,0.1-0.1,0.2-0.2,0.3c0,0,0,0.1-0.1,0.1c-0.1,0.1-0.2,0.2-0.3,0.3
		c-0.1,0.1-0.2,0.3-0.3,0.4c0,0-0.1,0.1-0.2,0.1v0c0,0-0.1,0.1-0.1,0.1c0,0,0,0,0,0v0c-0.1,0-0.1,0.1-0.2,0.1c0,0,0,0,0,0
		c0,0-0.1,0-0.1,0.1c0,0-0.1,0-0.2,0v0c0,0,0,0-0.1,0c0,0-0.1,0-0.1,0c0,0-0.1,0-0.1,0c0,0-0.1,0-0.1,0H441c0,0-0.1,0-0.1,0
		c0,0-0.1,0-0.1,0c0,0-0.1,0-0.1,0c0,0,0,0-0.1,0v0c-0.1,0-0.1,0-0.2,0c0,0-0.1,0-0.1-0.1c0,0,0,0,0,0c-0.1,0-0.1-0.1-0.2-0.1v0
		c0,0,0,0,0,0c0,0,0,0-0.1-0.1c-0.1,0-0.1-0.1-0.2-0.2c-0.2-0.2-0.3-0.4-0.5-0.6c-0.1-0.1-0.1-0.1-0.2-0.2c-0.1-0.1-0.1-0.2-0.2-0.3
		c0,0,0,0,0,0c-0.1-0.1-0.1-0.2-0.2-0.4l-4.3-7.2h-16.7l-4.3,7.2c-0.1,0.1-0.1,0.2-0.2,0.4c0,0,0,0,0,0c-0.1,0.1-0.1,0.2-0.2,0.3
		c0,0.1-0.1,0.1-0.2,0.2c-0.1,0.2-0.3,0.4-0.5,0.6c0,0-0.1,0.1-0.1,0.1v0c0,0-0.1,0.1-0.1,0.1c0,0,0,0,0,0v0c0,0-0.1,0.1-0.2,0.1
		c0,0,0,0,0,0c-0.1,0.1-0.2,0.1-0.3,0.1c0,0-0.1,0-0.1,0c0,0,0,0-0.1,0c0,0-0.1,0-0.1,0h-5.7c0,0-0.1,0-0.1,0c0,0-0.1,0-0.1,0
		c0,0-0.1,0-0.1,0c0,0,0,0,0,0v0c-0.1,0-0.1,0-0.2,0c0,0-0.1,0-0.1-0.1c0,0,0,0,0,0c0,0-0.1-0.1-0.2-0.1v0c0,0,0,0,0,0
		c0,0-0.1,0-0.1-0.1v0c0,0-0.1-0.1-0.1-0.1l-0.2-0.2c-0.1-0.1-0.2-0.2-0.2-0.3c-0.1-0.1-0.1-0.2-0.2-0.3c0,0,0-0.1-0.1-0.1
		c-0.1-0.1-0.1-0.2-0.2-0.3c-0.1-0.1-0.2-0.3-0.2-0.4l-4.3-7.2c0,0,0,0,0,0h-16.7l-4.3,7.2c-0.2,0.3-0.4,0.6-0.6,0.9
		c-0.1,0.1-0.1,0.2-0.2,0.3c-0.1,0.1-0.2,0.3-0.3,0.4c-0.1,0-0.1,0.1-0.2,0.1v0c0,0-0.1,0.1-0.1,0.1c0,0,0,0,0,0v0
		c0,0-0.1,0.1-0.2,0.1c0,0,0,0,0,0c0,0-0.1,0-0.1,0.1c0,0-0.1,0-0.2,0v0c0,0,0,0,0,0c0,0-0.1,0-0.1,0c0,0-0.1,0-0.1,0
		c0,0-0.1,0-0.1,0h-5.7c0,0-0.1,0-0.1,0c0,0-0.1,0-0.1,0c0,0-0.1,0-0.1,0c-0.1,0-0.2-0.1-0.3-0.1c0,0,0,0,0,0
		c-0.1,0-0.1-0.1-0.2-0.1v0c0,0,0,0,0,0c0,0,0,0-0.1-0.1c-0.1,0-0.1-0.1-0.2-0.2c-0.1-0.1-0.2-0.2-0.3-0.4c-0.1-0.1-0.2-0.2-0.3-0.3
		c0,0-0.1-0.1-0.1-0.1c-0.1-0.1-0.1-0.2-0.2-0.3c-0.1-0.1-0.2-0.3-0.2-0.4l-4.3-7.2h-16.7l-4.3,7.2c-0.1,0.1-0.2,0.3-0.2,0.4
		c-0.1,0.1-0.1,0.2-0.2,0.3c0,0,0,0.1-0.1,0.1c-0.1,0.1-0.2,0.2-0.3,0.3c-0.1,0.1-0.2,0.3-0.3,0.4c0,0-0.1,0.1-0.1,0.1v0
		c0,0-0.1,0.1-0.1,0.1c0,0,0,0,0,0v0c0,0-0.1,0.1-0.2,0.1c0,0,0,0,0,0c0,0-0.1,0-0.1,0.1c0,0-0.1,0-0.2,0v0c0,0,0,0,0,0
		c0,0-0.1,0-0.1,0c0,0-0.1,0-0.1,0c-0.1,0-0.1,0-0.1,0h-5.7c0,0-0.1,0-0.1,0c0,0,0,0-0.1,0c0,0-0.1,0-0.1,0c-0.1,0-0.3-0.1-0.4-0.1
		v0c-0.1,0-0.1,0-0.2-0.1c-0.1,0-0.1-0.1-0.2-0.1v0c0,0-0.1-0.1-0.1-0.1c-0.1-0.1-0.1-0.1-0.2-0.2c-0.1-0.1-0.2-0.2-0.2-0.3
		c-0.1-0.1-0.1-0.2-0.2-0.3c0,0,0-0.1-0.1-0.1v0c-0.1-0.1-0.2-0.2-0.2-0.3c-0.1-0.1-0.2-0.2-0.2-0.4l-4.3-7.2h-16.7l-4.3,7.2
		c-0.1,0.1-0.1,0.2-0.2,0.4c-0.1,0.1-0.1,0.2-0.2,0.3c0,0-0.1,0.1-0.1,0.2c-0.1,0.1-0.1,0.2-0.2,0.3c-0.1,0.1-0.2,0.3-0.3,0.4
		c-0.1,0-0.1,0.1-0.2,0.1v0c0,0-0.1,0.1-0.1,0.1c0,0,0,0,0,0v0c0,0-0.1,0.1-0.2,0.1c0,0,0,0,0,0c0,0-0.1,0-0.1,0.1
		c-0.1,0-0.1,0-0.2,0v0c0,0,0,0,0,0c0,0-0.1,0-0.1,0c0,0-0.1,0-0.1,0c0,0-0.1,0-0.1,0h-5.7c0,0-0.1,0-0.1,0c0,0-0.1,0-0.1,0
		c0,0-0.1,0-0.1,0c0,0,0,0,0,0v0c-0.1,0-0.1,0-0.2,0c0,0-0.1,0-0.1-0.1c0,0,0,0,0,0c-0.1,0-0.1-0.1-0.2-0.1v0c0,0,0,0,0,0
		c0,0,0,0-0.1-0.1c-0.1,0-0.1-0.1-0.2-0.2l-0.2-0.2c-0.1-0.1-0.2-0.2-0.2-0.3c-0.3-0.3-0.5-0.7-0.7-1l-4.3-7.2h-16.7l-4.3,7.2
		c-0.2,0.3-0.4,0.6-0.6,0.9c-0.1,0.1-0.1,0.2-0.2,0.3c-0.1,0.1-0.2,0.3-0.3,0.4c0,0-0.1,0.1-0.2,0.1v0c0,0-0.1,0.1-0.1,0.1
		c0,0,0,0,0,0v0c0,0-0.1,0.1-0.2,0.1c0,0,0,0,0,0c-0.1,0.1-0.2,0.1-0.3,0.1c0,0-0.1,0-0.1,0c0,0,0,0-0.1,0c0,0-0.1,0-0.1,0h-5.7
		c-0.1,0-0.1,0-0.1,0c0,0-0.1,0-0.1,0c0,0-0.1,0-0.1,0c0,0,0,0,0,0v0c-0.1,0-0.1,0-0.2,0c0,0-0.1,0-0.1-0.1c0,0,0,0,0,0
		c0,0-0.1-0.1-0.2-0.1v0c0,0,0,0,0,0c0,0-0.1,0-0.1-0.1v0c0,0-0.1-0.1-0.2-0.1l-0.2-0.2c-0.1-0.1-0.2-0.2-0.2-0.3
		c-0.1-0.1-0.1-0.2-0.2-0.3c0,0,0-0.1-0.1-0.1c-0.1-0.1-0.1-0.2-0.2-0.3c-0.1-0.1-0.2-0.3-0.2-0.4l-4.3-7.2h-16.7c0,0,0,0,0,0
		l-4.3,7.2c-0.5,0.9-1.3,2-2.3,2h-5.7c0,0-0.1,0-0.1,0c0,0-0.1,0-0.1,0c0,0-0.1,0-0.1,0c0,0,0,0,0,0v0c-0.1,0-0.1,0-0.2,0
		c0,0-0.1,0-0.1-0.1c0,0,0,0,0,0c0,0-0.1-0.1-0.2-0.1v0c0,0,0,0,0,0c0,0-0.1,0-0.1-0.1v0c-0.1,0-0.1-0.1-0.2-0.1
		c-0.1-0.1-0.1-0.1-0.2-0.2c-0.1-0.1-0.1-0.2-0.2-0.2c-0.3-0.3-0.5-0.7-0.7-1l-4.3-7.2c0,0,0,0,0,0H205c0,0,0,0,0,0l-4.3,7.2
		c-0.1,0.1-0.2,0.3-0.2,0.4c-0.1,0.1-0.1,0.2-0.2,0.3c0,0,0,0.1-0.1,0.1c0,0.1-0.1,0.1-0.1,0.2c0,0-0.1,0.1-0.1,0.1
		c-0.1,0.1-0.1,0.2-0.2,0.2c-0.1,0.1-0.1,0.1-0.2,0.2c0,0-0.1,0.1-0.1,0.1v0c0,0-0.1,0.1-0.1,0.1c0,0,0,0,0,0v0c0,0-0.1,0.1-0.2,0.1
		c0,0,0,0,0,0c0,0-0.1,0-0.1,0.1c0,0-0.1,0-0.2,0v0c0,0,0,0,0,0c0,0-0.1,0-0.1,0c0,0-0.1,0-0.1,0c-0.1,0-0.1,0-0.1,0h-5.7
		c0,0-0.1,0-0.1,0c0,0,0,0-0.1,0c0,0-0.1,0-0.1,0c-0.1,0-0.2-0.1-0.4-0.1c0,0,0,0,0,0c0,0-0.1-0.1-0.2-0.1v0c0,0,0,0,0,0
		c0,0-0.1,0-0.1-0.1v0c0,0-0.1-0.1-0.2-0.1c-0.1-0.1-0.2-0.3-0.3-0.4c0,0,0,0-0.1-0.1c0-0.1-0.1-0.1-0.1-0.2c0,0-0.1-0.1-0.1-0.2
		c-0.1-0.1-0.1-0.2-0.2-0.3c0,0,0,0,0,0c0,0-0.1-0.1-0.1-0.1c0-0.1-0.1-0.1-0.1-0.2v0l-4.3-7.2h-16.7l-4.3,7.2v0
		c0,0.1-0.1,0.1-0.1,0.2c0,0-0.1,0.1-0.1,0.1c0,0,0,0,0,0c-0.1,0.1-0.1,0.2-0.2,0.3c0,0-0.1,0.1-0.1,0.2c0,0.1-0.1,0.1-0.1,0.2
		c0,0,0,0.1-0.1,0.1c-0.1,0.1-0.2,0.3-0.4,0.4c-0.1,0-0.1,0.1-0.2,0.2c0,0-0.1,0-0.1,0.1c0,0,0,0,0,0v0c0,0-0.1,0.1-0.2,0.1
		c0,0,0,0,0,0c0,0-0.1,0-0.1,0.1c-0.1,0-0.1,0-0.2,0v0c0,0,0,0,0,0c0,0-0.1,0-0.1,0c0,0-0.1,0-0.1,0c0,0-0.1,0-0.1,0h-5.7
		c0,0-0.1,0-0.1,0c0,0-0.1,0-0.1,0c0,0-0.1,0-0.1,0c0,0,0,0,0,0v0c-0.1,0-0.1,0-0.2,0c0,0-0.1,0-0.1-0.1c0,0,0,0,0,0
		c-0.1,0-0.1-0.1-0.2-0.1v0c0,0,0,0,0,0c0,0-0.1,0-0.1-0.1v0c-0.1,0-0.1-0.1-0.2-0.1c-0.1-0.1-0.2-0.2-0.3-0.4
		c-0.1-0.1-0.1-0.2-0.2-0.3c0,0-0.1-0.1-0.1-0.2c-0.1-0.1-0.2-0.2-0.2-0.3c0,0-0.1-0.1-0.1-0.1c0-0.1-0.1-0.1-0.1-0.2v0l-4.3-7.2
		h-16.7l-4.3,7.2c-0.1,0.1-0.2,0.3-0.2,0.4c-0.1,0.1-0.1,0.2-0.2,0.3c0,0,0,0.1-0.1,0.1c-0.1,0.1-0.2,0.2-0.3,0.3
		c-0.1,0.1-0.2,0.3-0.3,0.4c0,0-0.1,0.1-0.1,0.1v0c0,0-0.1,0.1-0.1,0.1c0,0,0,0,0,0v0c0,0-0.1,0.1-0.2,0.1c0,0,0,0,0,0
		c0,0-0.1,0-0.1,0.1c0,0-0.1,0-0.2,0v0c0,0,0,0,0,0c0,0-0.1,0-0.1,0c0,0-0.1,0-0.1,0c0,0-0.1,0-0.1,0h-5.7c0,0-0.1,0-0.1,0
		c0,0-0.1,0-0.1,0c0,0-0.1,0-0.1,0c0,0,0,0,0,0v0c-0.1,0-0.1,0-0.2,0c-0.1,0-0.1,0-0.1-0.1c0,0,0,0,0,0c-0.1,0-0.1-0.1-0.2-0.1v0
		c0,0,0,0,0,0c0,0-0.1,0-0.1-0.1c-0.1,0-0.1-0.1-0.2-0.2c-0.2-0.2-0.3-0.4-0.5-0.6c-0.1-0.1-0.1-0.1-0.2-0.2
		c-0.1-0.1-0.1-0.2-0.2-0.3c0,0,0,0,0,0c-0.1-0.1-0.2-0.2-0.2-0.4l-4.3-7.2c0,0,0,0,0,0H98.6c0,0,0,0,0,0l-4.3,7.2
		c-0.1,0.1-0.1,0.2-0.2,0.4C94,39,94,39.1,93.9,39.2v0c0,0,0,0-0.1,0.1c-0.1,0.1-0.1,0.2-0.2,0.3c-0.1,0.1-0.1,0.2-0.2,0.3L93.2,40
		c0,0-0.1,0.1-0.2,0.1v0c0,0-0.1,0.1-0.1,0.1c0,0,0,0,0,0v0c-0.1,0-0.1,0.1-0.2,0.1c0,0,0,0,0,0c-0.1,0.1-0.2,0.1-0.4,0.1
		c0,0-0.1,0-0.1,0c0,0,0,0-0.1,0c0,0-0.1,0-0.1,0h-5.7c0,0-0.1,0-0.1,0c0,0-0.1,0-0.1,0c0,0-0.1,0-0.1,0c0,0,0,0-0.1,0v0
		c-0.1,0-0.1,0-0.2,0c0,0-0.1,0-0.1-0.1c0,0,0,0,0,0c0,0-0.1-0.1-0.2-0.1v0c0,0,0,0,0,0c0,0-0.1,0-0.1-0.1v0c0,0-0.1-0.1-0.2-0.1
		L85,39.8c-0.1-0.1-0.2-0.2-0.2-0.3c-0.1-0.1-0.1-0.2-0.2-0.3c0,0,0-0.1-0.1-0.1c-0.1-0.1-0.1-0.2-0.2-0.3c-0.1-0.1-0.2-0.3-0.2-0.4
		l-4.3-7.2c0,0,0,0,0,0H63.1l-4.3,7.2c-0.6,0.9-1.3,2-2.3,2h-5.7c0,0-0.1,0-0.1,0c0,0-0.1,0-0.1,0c0,0-0.1,0-0.1,0c0,0,0,0,0,0v0
		c-0.1,0-0.1,0-0.2,0c0,0-0.1,0-0.1-0.1c0,0,0,0-0.1,0c-0.1,0-0.1-0.1-0.2-0.1v0c0,0,0,0,0,0c0,0-0.1,0-0.1-0.1v0
		c0,0-0.1-0.1-0.1-0.1c-0.1-0.1-0.2-0.2-0.3-0.4c-0.1-0.1-0.2-0.2-0.3-0.3c0,0,0-0.1-0.1-0.1c-0.1-0.1-0.1-0.2-0.2-0.3
		c-0.1-0.1-0.2-0.3-0.2-0.4l-4.3-7.2h-8v90.8h8l4.3-7.1c0.3-0.5,0.6-1,1-1.4c0,0,0.1-0.1,0.1-0.1c0.1-0.1,0.1-0.1,0.2-0.1
		c0,0,0.1,0,0.1-0.1c0,0,0,0,0,0v0c0,0,0.1-0.1,0.2-0.1c0,0,0,0,0,0c0,0,0.1,0,0.1,0h0c0,0,0.1,0,0.2,0v0c0,0,0,0,0,0
		c0,0,0.1,0,0.1,0c0,0,0.1,0,0.1,0c0.1,0,0.1,0,0.1,0h5.7c0,0,0.1,0,0.1,0c0,0,0,0,0.1,0c0,0,0.1,0,0.1,0c0,0,0,0,0,0v0
		c0.1,0,0.1,0,0.2,0c0,0,0.1,0,0.1,0c0,0,0,0,0,0c0,0,0.1,0.1,0.2,0.1v0c0,0,0,0,0,0c0,0,0,0,0.1,0.1c0.1,0,0.1,0.1,0.2,0.1
		c0,0,0.1,0.1,0.1,0.1c0,0,0.1,0.1,0.1,0.1c0,0,0.1,0.1,0.1,0.2c0,0,0,0,0,0c0.1,0.1,0.2,0.2,0.2,0.3c0,0,0.1,0.1,0.1,0.1
		c0.1,0.2,0.2,0.4,0.3,0.6v0l4.3,7.1h16.7l4.3-7.1v0c0.1-0.2,0.2-0.4,0.3-0.6c0,0,0.1-0.1,0.1-0.1c0.1-0.1,0.2-0.2,0.2-0.3
		c0.1-0.1,0.2-0.2,0.3-0.3c0-0.1,0.1-0.1,0.1-0.1c0.1-0.1,0.1-0.1,0.2-0.1c0,0,0.1,0,0.1-0.1c0,0,0,0,0,0v0c0,0,0.1-0.1,0.2-0.1
		c0,0,0,0,0,0c0,0,0.1,0,0.1,0h0c0,0,0.1,0,0.2,0v0c0,0,0,0,0,0c0,0,0.1,0,0.1,0c0,0,0.1,0,0.1,0c0,0,0.1,0,0.1,0h5.7
		c0.1,0,0.1,0,0.1,0c0,0,0.1,0,0.1,0c0,0,0.1,0,0.1,0c0,0,0,0,0.1,0v0c0.1,0,0.1,0,0.2,0h0c0,0,0.1,0,0.1,0c0,0,0,0,0,0
		c0.1,0,0.1,0.1,0.2,0.1v0c0,0,0,0,0,0c0.1,0.1,0.2,0.1,0.3,0.2c0,0,0.1,0.1,0.1,0.1c0.4,0.4,0.7,0.9,1,1.4l4.3,7.1h16.7l4.3-7.1v0
		c0.1-0.2,0.2-0.4,0.4-0.6c0,0,0.1-0.1,0.1-0.1c0.1-0.1,0.2-0.2,0.2-0.3c0,0,0,0,0,0c0-0.1,0.1-0.1,0.1-0.2c0,0,0.1-0.1,0.1-0.1
		c0-0.1,0.1-0.1,0.1-0.1c0.1-0.1,0.1-0.1,0.2-0.1c0,0,0.1,0,0.1-0.1c0,0,0,0,0,0v0c0,0,0.1-0.1,0.2-0.1c0,0,0,0,0,0c0,0,0.1,0,0.1,0
		c0.1,0,0.1,0,0.2,0v0c0,0,0,0,0,0c0,0,0.1,0,0.1,0c0,0,0,0,0.1,0c0,0,0.1,0,0.1,0h5.7c0,0,0.1,0,0.1,0c0,0,0.1,0,0.1,0
		c0,0,0.1,0,0.1,0c0,0,0,0,0,0c0.1,0,0.1,0,0.2,0v0c0,0,0,0,0,0c0,0,0,0,0.1,0c0,0,0,0,0,0c0.1,0,0.1,0.1,0.2,0.1v0c0,0,0,0,0,0
		c0.1,0.1,0.2,0.1,0.3,0.2c0,0,0.1,0.1,0.1,0.1c0.4,0.4,0.7,0.9,1,1.4l4.3,7.1h16.6l4.3-7.1c0.3-0.5,0.6-1,1-1.4
		c0.1,0,0.1-0.1,0.1-0.1c0.1-0.1,0.2-0.1,0.3-0.2c0,0,0,0,0,0v0c0,0,0.1-0.1,0.2-0.1c0,0,0,0,0,0c0,0,0,0,0.1,0c0,0,0,0,0,0v0
		c0,0,0.1,0,0.2,0c0,0,0,0,0.1,0c0,0,0.1,0,0.1,0c0,0,0.1,0,0.1,0c0,0,0.1,0,0.1,0h5.7c0.1,0,0.1,0,0.1,0c0,0,0.1,0,0.1,0
		c0,0,0.1,0,0.1,0c0,0,0,0,0,0v0c0.1,0,0.1,0,0.2,0h0c0,0,0.1,0,0.1,0c0,0,0,0,0,0c0,0,0.1,0.1,0.2,0.1v0c0,0,0,0,0,0
		c0,0,0,0,0.1,0.1c0.1,0,0.1,0.1,0.2,0.1c0,0,0.1,0.1,0.1,0.1c0.1,0.1,0.2,0.2,0.3,0.3c0.1,0.1,0.2,0.2,0.2,0.3c0,0,0.1,0.1,0.1,0.1
		c0.1,0.2,0.2,0.4,0.3,0.6v0l4.3,7.1h16.7l4.3-7.1c0.3-0.5,0.6-1,1-1.4c0,0,0.1-0.1,0.1-0.1c0.1,0,0.1-0.1,0.2-0.1c0,0,0,0,0.1-0.1
		c0,0,0,0,0.1-0.1c0,0,0.1-0.1,0.2-0.1v0c0,0,0.1,0,0.1-0.1c0,0,0,0,0,0v0c0.1,0,0.1,0,0.2,0v0c0,0,0,0,0,0c0,0,0.1,0,0.1,0
		c0,0,0,0,0.1,0c0,0,0.1,0,0.1,0h5.7c0,0,0.1,0,0.1,0c0,0,0.1,0,0.1,0c0,0,0.1,0,0.1,0c0,0,0,0,0,0c0.1,0,0.1,0,0.2,0v0c0,0,0,0,0,0
		c0,0,0,0,0.1,0c0,0,0,0,0.1,0c0.1,0,0.1,0.1,0.2,0.1v0c0,0,0,0,0,0c0,0,0.1,0,0.1,0.1c0.1,0,0.1,0.1,0.2,0.1c0,0,0.1,0.1,0.1,0.1
		c0.1,0.1,0.2,0.2,0.3,0.3c0.1,0.2,0.2,0.3,0.3,0.5c0,0.1,0.1,0.1,0.1,0.2c0,0,0,0,0,0c0.1,0.1,0.1,0.2,0.2,0.3v0l4.3,7.1h16.7
		l4.3-7.1c0.3-0.5,0.6-1,1-1.4c0.1,0,0.1-0.1,0.1-0.1c0.1,0,0.1-0.1,0.2-0.1c0,0,0,0,0.1-0.1c0,0,0,0,0.1-0.1c0,0,0.1-0.1,0.2-0.1v0
		c0,0,0.1,0,0.1-0.1c0,0,0,0,0,0v0c0.1,0,0.1,0,0.2,0v0c0,0,0,0,0,0c0,0,0.1,0,0.1,0c0,0,0,0,0.1,0c0,0,0.1,0,0.1,0h5.7
		c0.1,0,0.1,0,0.1,0c0,0,0.1,0,0.1,0c0,0,0.1,0,0.1,0c0,0,0,0,0.1,0c0.1,0,0.1,0,0.2,0v0c0,0,0,0,0,0c0,0,0.1,0,0.1,0c0,0,0,0,0,0
		c0.1,0,0.1,0.1,0.2,0.1v0c0,0,0,0,0,0c0,0,0,0,0.1,0.1c0.1,0,0.1,0.1,0.2,0.1c0,0,0.1,0.1,0.1,0.1c0,0,0.1,0.1,0.1,0.1
		c0.1,0,0.1,0.1,0.1,0.2c0,0,0,0,0,0c0.1,0.2,0.2,0.3,0.4,0.5c0.1,0.2,0.2,0.4,0.3,0.5v0l4.3,7.1h16.7l4.3-7.1v0
		c0.1-0.1,0.1-0.2,0.2-0.3c0,0,0,0,0,0c0-0.1,0.1-0.1,0.1-0.2c0.1-0.2,0.2-0.3,0.4-0.5c0.1-0.1,0.2-0.2,0.3-0.3
		c0-0.1,0.1-0.1,0.1-0.1c0.1-0.1,0.1-0.1,0.2-0.1c0,0,0.1,0,0.1-0.1c0,0,0,0,0,0v0c0.1,0,0.1-0.1,0.2-0.1c0,0,0,0,0,0c0,0,0,0,0.1,0
		c0,0,0,0,0,0v0c0.1,0,0.1,0,0.2,0c0,0,0,0,0,0c0,0,0.1,0,0.1,0c0,0,0.1,0,0.1,0c0,0,0.1,0,0.1,0h5.7c0,0,0.1,0,0.1,0
		c0,0,0.1,0,0.1,0c0,0,0.1,0,0.1,0c0,0,0,0,0,0v0c0.1,0,0.1,0,0.2,0v0c0,0,0,0,0,0c0,0,0.1,0,0.1,0.1v0c0.1,0,0.1,0.1,0.2,0.1
		c0,0,0.1,0,0.1,0.1l0.1,0.1c0.1,0,0.1,0.1,0.2,0.1c0,0,0.1,0.1,0.1,0.1c0.4,0.4,0.7,0.9,1,1.4l4.3,7.1h16.7l4.3-7.1v0
		c0.1-0.2,0.2-0.4,0.4-0.5c0.1-0.2,0.2-0.3,0.3-0.5c0,0,0,0,0,0c0-0.1,0.1-0.1,0.1-0.2c0,0,0.1-0.1,0.1-0.1c0-0.1,0.1-0.1,0.1-0.1
		c0.1-0.1,0.1-0.1,0.2-0.1c0,0,0.1,0,0.1-0.1c0,0,0,0,0,0v0c0,0,0.1-0.1,0.2-0.1c0,0,0,0,0,0c0,0,0.1,0,0.1,0c0.1,0,0.1,0,0.2,0v0
		c0,0,0,0,0,0c0,0,0.1,0,0.1,0c0,0,0,0,0.1,0c0,0,0.1,0,0.1,0h5.7c0,0,0.1,0,0.1,0c0,0,0.1,0,0.1,0c0,0,0.1,0,0.1,0c0,0,0,0,0,0v0
		c0.1,0,0.1,0,0.2,0h0c0,0,0.1,0,0.1,0c0,0,0,0,0,0c0.1,0,0.1,0.1,0.2,0.1v0c0,0,0,0,0,0c0.1,0.1,0.2,0.1,0.3,0.2
		c0.1,0,0.1,0.1,0.1,0.1c0.4,0.4,0.7,0.9,1,1.4l4.3,7.1h16.7l4.3-7.1v0c0.1-0.2,0.2-0.4,0.3-0.6c0,0,0.1-0.1,0.1-0.1
		c0.1-0.1,0.2-0.2,0.2-0.3c0,0,0,0,0,0c0-0.1,0.1-0.1,0.1-0.2c0,0,0.1-0.1,0.1-0.1c0-0.1,0.1-0.1,0.1-0.1c0.1-0.1,0.1-0.1,0.2-0.1
		c0,0,0.1,0,0.1-0.1c0,0,0,0,0,0v0c0,0,0.1-0.1,0.2-0.1c0,0,0,0,0,0c0,0,0.1,0,0.1,0c0.1,0,0.1,0,0.2,0v0c0,0,0,0,0,0
		c0,0,0.1,0,0.1,0c0,0,0,0,0.1,0c0,0,0.1,0,0.1,0h5.7c0,0,0.1,0,0.1,0c0,0,0.1,0,0.1,0c0,0,0.1,0,0.1,0c0,0,0,0,0,0v0
		c0.1,0,0.1,0,0.2,0h0c0,0,0.1,0,0.1,0c0,0,0,0,0,0c0.1,0,0.1,0.1,0.2,0.1v0c0,0,0,0,0,0c0,0,0,0,0.1,0.1c0.1,0,0.1,0.1,0.2,0.1
		c0,0,0.1,0.1,0.1,0.1c0.4,0.4,0.7,0.9,1,1.4l4.3,7.1h16.7l4.3-7.1v0c0.1-0.1,0.1-0.2,0.2-0.3c0,0,0,0,0,0c0-0.1,0.1-0.1,0.1-0.2
		c0.1-0.2,0.2-0.3,0.3-0.5c0.1-0.1,0.2-0.2,0.3-0.3c0-0.1,0.1-0.1,0.1-0.1c0.1-0.1,0.1-0.1,0.2-0.1c0,0,0,0,0.1-0.1c0,0,0,0,0,0v0
		c0,0,0.1-0.1,0.2-0.1c0,0,0,0,0.1,0c0,0,0,0,0.1,0c0,0,0,0,0,0v0c0,0,0.1,0,0.2,0c0,0,0,0,0,0c0,0,0.1,0,0.1,0c0,0,0.1,0,0.1,0
		c0,0,0.1,0,0.1,0h5.7c0.1,0,0.1,0,0.2,0c0,0,0,0,0.1,0c0,0,0.1,0,0.1,0c0,0,0,0,0,0v0c0.1,0,0.1,0,0.2,0c0,0,0.1,0,0.1,0
		c0,0,0,0,0,0v0c0,0,0.1,0.1,0.2,0.1c0,0,0.1,0,0.1,0.1c0,0,0,0,0.1,0.1c0.1,0,0.1,0.1,0.2,0.1c0,0,0.1,0.1,0.1,0.1
		c0.4,0.4,0.7,0.9,1,1.4l4.3,7.1H399l4.3-7.1c0.3-0.5,0.6-1,1-1.4c0-0.1,0.1-0.1,0.1-0.1c0.1-0.1,0.1-0.1,0.2-0.1c0,0,0,0,0.1-0.1
		c0,0,0,0,0,0v0c0,0,0.1-0.1,0.2-0.1c0,0,0,0,0,0c0,0,0.1,0,0.1,0c0,0,0,0,0,0v0c0,0,0.1,0,0.2,0c0,0,0,0,0,0c0,0,0.1,0,0.1,0
		c0,0,0.1,0,0.1,0c0,0,0.1,0,0.1,0h5.7c0,0,0.1,0,0.1,0c0,0,0,0,0.1,0c0,0,0.1,0,0.1,0c0,0,0,0,0,0v0c0.1,0,0.1,0,0.2,0v0
		c0,0,0,0,0,0c0,0,0.1,0,0.1,0.1v0c0.1,0,0.1,0.1,0.2,0.1c0,0,0.1,0,0.1,0.1c0,0,0,0,0.1,0.1c0.1,0,0.1,0.1,0.2,0.1
		c0,0,0.1,0.1,0.1,0.1c0.4,0.4,0.7,0.9,1,1.4l4.3,7.1h16.7l4.3-7.1v0c0.1-0.2,0.2-0.4,0.3-0.6c0,0,0.1-0.1,0.1-0.1
		c0.1-0.1,0.2-0.2,0.2-0.3c0,0,0,0,0,0c0-0.1,0.1-0.1,0.1-0.2c0,0,0.1-0.1,0.1-0.1c0-0.1,0.1-0.1,0.1-0.1c0.1-0.1,0.1-0.1,0.2-0.1
		c0,0,0.1,0,0.1-0.1c0,0,0,0,0,0v0c0,0,0.1-0.1,0.2-0.1c0,0,0,0,0,0c0,0,0.1,0,0.1,0c0.1,0,0.1,0,0.2,0v0c0,0,0,0,0,0
		c0,0,0.1,0,0.1,0c0,0,0,0,0.1,0c0,0,0.1,0,0.1,0h5.7c0,0,0.1,0,0.1,0c0,0,0.1,0,0.1,0c0,0,0.1,0,0.1,0c0,0,0,0,0.1,0v0
		c0.1,0,0.1,0,0.2,0h0c0,0,0.1,0,0.1,0c0,0,0,0,0,0c0.1,0,0.1,0.1,0.2,0.1v0c0,0,0,0,0,0c0.1,0.1,0.2,0.1,0.3,0.2
		c0,0,0.1,0.1,0.1,0.1c0.4,0.4,0.7,0.9,1,1.4l4.3,7.1h16.7l4.3-7.1v0c0.1-0.2,0.2-0.4,0.4-0.6c0,0,0.1-0.1,0.1-0.1
		c0.1-0.1,0.2-0.2,0.2-0.3c0,0,0,0,0,0c0-0.1,0.1-0.1,0.1-0.2c0,0,0.1-0.1,0.1-0.1c0-0.1,0.1-0.1,0.1-0.1c0.1-0.1,0.1-0.1,0.2-0.1
		c0,0,0.1,0,0.1-0.1c0,0,0,0,0,0v0c0,0,0.1-0.1,0.2-0.1c0,0,0,0,0,0c0,0,0.1,0,0.1,0h0c0,0,0.1,0,0.2,0v0c0,0,0,0,0,0
		c0,0,0.1,0,0.1,0c0,0,0.1,0,0.1,0c0,0,0.1,0,0.1,0h5.7c0,0,0.1,0,0.2,0c0,0,0,0,0.1,0c0,0,0.1,0,0.1,0c0,0,0,0,0,0v0
		c0.1,0,0.1,0,0.2,0c0,0,0.1,0,0.1,0c0,0,0,0,0,0c0.1,0,0.1,0.1,0.2,0.1v0c0,0,0,0,0,0c0.1,0.1,0.2,0.1,0.3,0.2c0,0,0.1,0.1,0.1,0.1
		c0.4,0.4,0.7,0.9,1,1.4l3.8,6.3c0.4-0.1,0.8-0.2,1.3-0.3c0.6-0.1,1.2-0.3,1.8-0.4c0.5-0.1,0.9-0.3,1.3-0.4c0.4-0.1,0.7-0.2,1.1-0.3
		c1.4-0.5,2.8-1,4.2-1.6c0.4-0.2,0.9-0.4,1.3-0.6c0,0,0.1,0,0.1,0c0.1,0,0.2-0.1,0.3-0.2c0.1,0,0.2-0.1,0.3-0.1v0
		c0.2-0.1,0.4-0.2,0.6-0.3c0.2-0.1,0.3-0.2,0.5-0.2c0.1-0.1,0.3-0.1,0.4-0.2c0.1,0,0.1-0.1,0.2-0.1v0c0.1-0.1,0.3-0.1,0.4-0.2
		c0.3-0.2,0.6-0.3,0.9-0.5c0.1,0,0.1-0.1,0.2-0.1c0,0,0.1-0.1,0.1-0.1v0c0.3-0.2,0.6-0.3,0.8-0.5c0.2-0.2,0.5-0.3,0.7-0.5l-1.8-7.1
		c-0.1-0.5-0.3-1.1-0.3-1.6c0-0.1,0-0.3,0-0.4c0-0.1,0-0.2,0.1-0.3c0-0.1,0.1-0.2,0.1-0.3s0.1-0.2,0.2-0.3v0l4-4v0
		c0.7-0.7,2-0.5,3-0.2l7.1,1.8c3.3-4.9,5.6-10.4,6.8-16.4l-6.3-3.8C517.3,81.7,517.1,81.6,516.9,81.4z M164.4,89.4l-2.7,6.5
		c0,0,0,0.1-0.1,0.1c0,0,0,0.1-0.1,0.1c0,0,0,0,0,0c0,0,0,0,0,0c0,0,0,0-0.1,0.1c0,0,0,0.1-0.1,0.1c0,0-0.1,0.1-0.1,0.1
		c0,0.1-0.1,0.1-0.2,0.1c-0.1,0.1-0.2,0.1-0.3,0.2v0c0,0,0,0,0,0c-0.1,0-0.1,0.1-0.2,0.1c0,0,0,0-0.1,0c0,0-0.1,0-0.1,0c0,0,0,0,0,0
		c0,0-0.1,0-0.1,0c0,0-0.1,0-0.2,0c0,0-0.1,0-0.1,0h0c-0.1,0-0.2,0-0.3,0c-0.2,0-0.4,0-0.6,0l-8-1.1c-0.3,0.3-0.5,0.7-0.8,1
		c0,0,0,0,0,0c-0.3,0.3-0.5,0.7-0.8,1c0,0,0,0,0,0c-0.3,0.3-0.6,0.6-0.9,1h0c0,0,0,0,0,0c-0.3,0.3-0.6,0.6-0.9,0.9
		c-0.6,0.6-1.2,1.2-1.9,1.7c-0.6,0.6-1.3,1.1-2,1.6l1.1,8c0,0.1,0,0.3,0,0.4c0,0.1,0,0.3,0,0.4c0,0.1,0,0.1,0,0.2c0,0,0,0,0,0
		c0,0.1,0,0.1,0,0.2c0,0.1-0.1,0.2-0.1,0.3c0,0.1-0.1,0.2-0.1,0.3c-0.1,0.1-0.1,0.2-0.2,0.3c0,0,0,0,0,0.1c0,0-0.1,0.1-0.1,0.1
		c-0.1,0.1-0.2,0.1-0.2,0.2c-0.1,0.1-0.2,0.1-0.3,0.2l-6.5,2.7c-0.2,0.1-0.4,0.1-0.7,0.1c-0.1,0-0.2,0-0.2,0c0,0,0,0,0,0
		c0,0-0.1,0-0.1,0c-0.1,0-0.2,0-0.3-0.1c0,0-0.1,0-0.2-0.1c0,0,0,0,0,0v0c0,0-0.1,0-0.1,0c-0.1,0-0.1-0.1-0.2-0.1v0
		c-0.1,0-0.2-0.1-0.3-0.2c-0.1-0.1-0.1-0.1-0.2-0.2c-0.2-0.2-0.3-0.3-0.4-0.5v0l-4.9-6.4c-3.3,0.5-6.8,0.5-10.2,0l-4.9,6.4
		c-0.1,0.2-0.3,0.3-0.4,0.5c0,0.1-0.1,0.1-0.2,0.2c0,0,0,0-0.1,0c0,0-0.1,0.1-0.1,0.1c0,0-0.1,0-0.1,0.1v0c0,0-0.1,0-0.1,0
		c-0.1,0.1-0.3,0.1-0.4,0.2c0,0,0,0-0.1,0c0,0-0.1,0-0.1,0c-0.3,0.1-0.7,0.1-1.1-0.1l-6.5-2.7c-0.9-0.4-1.2-1.3-1.1-2.2
		c0-0.1,0-0.3,0-0.4l1.1-8v0c-1.2-0.9-2.4-1.9-3.4-2.9c-0.2-0.1-0.3-0.3-0.5-0.5c-0.3-0.3-0.6-0.6-0.9-0.9c-0.3-0.3-0.6-0.6-0.8-0.9
		l0,0c-0.3-0.3-0.5-0.6-0.8-1c0,0,0,0,0,0c-0.3-0.3-0.5-0.7-0.8-1l0,0l-8,1.1c-0.2,0-0.4,0-0.6,0c-0.1,0-0.1,0-0.2,0
		c-0.1,0-0.2,0-0.2,0c0,0-0.1,0-0.1,0c-0.1,0-0.3-0.1-0.4-0.1c-0.1,0-0.2-0.1-0.3-0.1c0,0-0.1,0-0.1-0.1c-0.1,0-0.2-0.1-0.2-0.2
		c0,0,0,0,0,0c-0.1-0.1-0.2-0.1-0.2-0.2c0,0,0,0,0,0c-0.1-0.1-0.1-0.2-0.2-0.3v0L85,89.4c-0.1-0.3-0.2-0.5-0.1-0.7
		c0-0.1,0-0.2,0-0.3c0-0.1,0-0.2,0.1-0.3h0c0,0,0,0,0,0c0-0.1,0.1-0.1,0.1-0.2c0,0,0-0.1,0.1-0.1c0,0,0-0.1,0.1-0.1c0,0,0,0,0,0
		c0.1-0.1,0.2-0.3,0.4-0.4c0.1-0.1,0.3-0.3,0.5-0.4l6.4-4.9h0c-0.1-0.8-0.2-1.7-0.3-2.5c-0.1-0.8-0.1-1.7-0.1-2.5v-0.2
		c0-0.4,0-0.7,0-1c0-0.3,0-0.6,0-0.9c0-0.3,0-0.5,0.1-0.8c0-0.3,0-0.7,0.1-1c0-0.4,0.1-0.8,0.2-1.2L86,66.8
		c-0.1-0.1-0.2-0.1-0.2-0.2c-0.2-0.1-0.3-0.3-0.4-0.4c-0.1-0.2-0.2-0.3-0.3-0.5c-0.1-0.2-0.1-0.3-0.2-0.5c0-0.1,0-0.2,0-0.3
		c0-0.2,0-0.5,0.1-0.7l2.7-6.5c0.1-0.3,0.4-0.6,0.6-0.8c0,0,0.1-0.1,0.2-0.1c0,0,0,0,0,0c0.1,0,0.1-0.1,0.2-0.1c0,0,0.1,0,0.1,0
		c0,0,0.1,0,0.1,0c0,0,0.1,0,0.1,0c0.2-0.1,0.4-0.1,0.6-0.1c0.2,0,0.4,0,0.6,0l8,1.1h0c0,0,0,0,0.1-0.1l3.3-3.8
		c0.6-0.6,1.2-1.2,1.9-1.7c0.7-0.5,1.3-1.1,2-1.6l0,0v0l-1.1-8c0-0.1,0-0.3,0-0.4c0-0.3,0-0.5,0-0.7c0-0.1,0-0.2,0.1-0.2
		c0,0,0,0,0,0c0-0.1,0.1-0.2,0.1-0.2c0,0,0,0,0,0c0,0,0-0.1,0.1-0.1c0.1-0.3,0.3-0.5,0.6-0.6c0.1-0.1,0.2-0.1,0.3-0.2l6.5-2.7
		c0.4-0.2,0.8-0.2,1.1-0.1c0.1,0,0.1,0,0.2,0c0.1,0,0.3,0.1,0.4,0.2c0,0,0,0,0.1,0v0c0,0,0.1,0,0.1,0.1c0,0,0.1,0.1,0.1,0.1
		c0,0,0,0,0.1,0c0.1,0,0.1,0.1,0.2,0.2c0.2,0.1,0.3,0.3,0.4,0.5l4.9,6.4l0,0c1.7-0.3,3.4-0.4,5.1-0.4c1.7,0,3.4,0.1,5,0.4l4.9-6.4
		c0.1-0.1,0.1-0.1,0.2-0.2c0,0,0,0,0,0c0.1-0.1,0.1-0.2,0.2-0.2c0.1-0.1,0.1-0.2,0.2-0.2c0.1-0.1,0.2-0.1,0.3-0.2
		c0.2-0.1,0.3-0.2,0.5-0.3s0.4-0.1,0.6-0.1c0,0,0.1,0,0.2,0c0,0,0.1,0,0.1,0c0.1,0,0.1,0,0.2,0c0.1,0,0.1,0,0.2,0.1l6.5,2.7
		c0.1,0,0.2,0.1,0.3,0.2c0.1,0.1,0.2,0.1,0.2,0.2c0,0,0,0,0.1,0.1c0,0.1,0.1,0.1,0.1,0.2c0.1,0.1,0.1,0.2,0.2,0.3c0,0,0,0,0,0
		c0.1,0.2,0.1,0.4,0.2,0.6c0,0.1,0,0.1,0,0.2c0,0,0,0,0,0c0,0.1,0,0.1,0,0.2c0,0.1,0,0.3,0,0.4c0,0.1,0,0.3,0,0.4l-1.1,8
		c1,0.8,2,1.6,3,2.5v0h0c0.3,0.3,0.6,0.6,0.9,0.9c0.1,0.1,0.3,0.3,0.4,0.4c0.2,0.2,0.3,0.3,0.5,0.5c0,0,0,0,0,0
		c0.6,0.6,1.1,1.3,1.6,1.9c0.3,0.3,0.5,0.7,0.8,1h0l8-1.1c0.3,0,0.5,0,0.7,0c0.1,0,0.2,0,0.3,0h0c0,0,0,0,0,0c0.2,0,0.3,0,0.4,0.1
		c0.1,0,0.1,0,0.2,0.1c0,0,0,0,0.1,0c0,0,0.1,0,0.1,0c0.1,0,0.1,0.1,0.2,0.1v0c0,0,0,0,0,0c0,0,0.1,0.1,0.1,0.1c0,0,0.1,0,0.1,0.1
		c0.1,0.2,0.3,0.3,0.3,0.5l2.7,6.5c0.1,0.3,0.1,0.5,0.1,0.7c0,0.2-0.1,0.5-0.2,0.7c0,0.1-0.1,0.1-0.1,0.2c-0.1,0.1-0.2,0.3-0.3,0.4
		c0,0,0,0,0,0c0,0,0,0,0,0c0,0.1-0.1,0.1-0.2,0.2c-0.1,0.1-0.1,0.1-0.2,0.2s-0.2,0.1-0.2,0.2l-6.4,4.9c0.3,1.7,0.4,3.4,0.4,5.1
		s-0.1,3.4-0.4,5.1l6.4,4.9c0.2,0.1,0.3,0.3,0.5,0.4c0.1,0.1,0.1,0.1,0.1,0.2c0,0.1,0.1,0.1,0.1,0.2c0.1,0.2,0.3,0.4,0.3,0.5
		c0,0,0,0.1,0,0.1c0,0.1,0,0.1,0,0.2c0,0.1,0,0.2,0,0.3C164.6,88.9,164.5,89.1,164.4,89.4z M341.7,89.4l-2.7,6.5c0,0,0,0.1-0.1,0.1
		c0,0,0,0.1-0.1,0.1c0,0,0,0,0,0c0,0,0,0,0,0c0,0,0,0-0.1,0.1c0,0,0,0.1-0.1,0.1c0,0-0.1,0.1-0.1,0.1c0,0.1-0.1,0.1-0.2,0.1
		c-0.1,0.1-0.2,0.1-0.3,0.2v0c0,0,0,0,0,0c-0.1,0-0.1,0.1-0.2,0.1c0,0,0,0-0.1,0c0,0-0.1,0-0.1,0c0,0-0.1,0-0.2,0
		c-0.1,0-0.1,0-0.2,0c0,0-0.1,0-0.1,0h-0.1c-0.1,0-0.2,0-0.3,0c-0.2,0-0.4,0-0.6,0l-8-1.1c-0.2,0.3-0.5,0.6-0.7,1c0,0,0,0-0.1,0
		c-0.1,0.2-0.3,0.4-0.4,0.5c-0.1,0.2-0.3,0.3-0.4,0.5c0,0,0,0,0,0h0c0,0.1-0.1,0.1-0.1,0.2l-0.3,0.3c0,0-0.1,0.1-0.1,0.1
		c-0.3,0.4-0.6,0.7-1,1c-0.1,0.1-0.3,0.3-0.5,0.5c-0.2,0.2-0.4,0.4-0.6,0.5c-0.3,0.3-0.7,0.6-1.1,1c-0.6,0.5-1.3,1.1-2,1.6l1.1,8
		c0,0.3,0,0.5,0,0.8c0,0.1,0,0.2,0,0.3c0,0.1,0,0.1,0,0.2c0,0.1,0,0.2-0.1,0.2c0,0.1,0,0.1-0.1,0.2c0,0,0,0.1-0.1,0.1c0,0,0,0,0,0
		c0,0,0,0.1-0.1,0.2c-0.1,0.2-0.3,0.3-0.5,0.4c-0.1,0-0.2,0.1-0.3,0.1l-6.5,2.7c-0.2,0.1-0.4,0.1-0.7,0.1c-0.1,0-0.2,0-0.2,0
		c0,0-0.1,0-0.1,0c-0.1,0-0.1,0-0.2-0.1c0,0-0.1,0-0.1,0c0,0-0.1,0-0.1,0c0,0,0,0-0.1,0c-0.1,0-0.1-0.1-0.2-0.1c0,0,0,0-0.1,0
		c-0.1,0-0.2-0.1-0.2-0.2c-0.1-0.1-0.2-0.1-0.2-0.2c-0.2-0.2-0.3-0.3-0.4-0.5v0l-4.9-6.4c-3.3,0.5-6.8,0.5-10.2,0l-4.9,6.4v0
		c-0.1,0.2-0.3,0.3-0.4,0.5c-0.1,0.1-0.1,0.1-0.2,0.2c0,0,0,0-0.1,0c0,0-0.1,0.1-0.1,0.1c0,0-0.1,0-0.1,0.1v0c0,0,0,0-0.1,0
		c-0.1,0.1-0.3,0.1-0.4,0.2c0,0,0,0-0.1,0c0,0-0.1,0-0.1,0c-0.4,0.1-0.7,0.1-1.1-0.1l-6.5-2.7c-0.9-0.4-1.2-1.3-1.1-2.2
		c0-0.1,0-0.3,0-0.4l1.1-8v0c-1-0.8-2-1.6-3-2.5c-0.3-0.3-0.6-0.6-0.9-0.9c-1.2-1.2-2.3-2.5-3.3-3.8l0,0l-8,1.1c-0.2,0-0.4,0-0.6,0
		c-0.1,0-0.1,0-0.2,0c-0.1,0-0.2,0-0.2,0c0,0-0.1,0-0.1,0c-0.1,0-0.3-0.1-0.4-0.1c-0.1,0-0.2-0.1-0.3-0.1c0,0-0.1,0-0.1-0.1
		c-0.1,0-0.2-0.1-0.2-0.2c0,0,0,0,0,0c-0.1-0.1-0.2-0.1-0.2-0.2c0,0,0,0,0,0c-0.1-0.1-0.1-0.2-0.2-0.3v0l-2.7-6.5
		c0-0.1-0.1-0.2-0.1-0.2c0,0,0-0.1,0-0.1c0,0,0,0,0-0.1c0-0.1,0-0.1,0-0.2v-0.1c0-0.1,0-0.2,0-0.3c0-0.1,0-0.1,0-0.2
		c0,0,0-0.1,0-0.1c0.1-0.1,0.1-0.3,0.2-0.4c0,0,0,0,0-0.1c0,0,0,0,0,0c0-0.1,0.1-0.1,0.1-0.2c0.1,0,0.1-0.1,0.2-0.2
		c0.1-0.1,0.3-0.3,0.5-0.4l6.4-4.9h0c-0.3-1.7-0.4-3.3-0.4-5s0.1-3.4,0.4-5.1l-6.4-4.9c-0.1-0.1-0.2-0.1-0.2-0.2
		c-0.1-0.1-0.1-0.1-0.2-0.2c-0.1-0.1-0.1-0.1-0.2-0.2c0,0,0,0,0,0c0,0,0,0,0,0c-0.1-0.1-0.2-0.3-0.3-0.4c0-0.1-0.1-0.1-0.1-0.2
		c-0.1-0.2-0.2-0.5-0.2-0.7s0-0.5,0.1-0.7l2.7-6.5c0.1-0.1,0.1-0.3,0.2-0.4c0.1-0.1,0.1-0.2,0.2-0.3c0,0,0,0,0,0
		c0.1-0.1,0.1-0.1,0.2-0.2c0,0,0,0,0.1,0c0,0,0,0,0.1,0c0.1,0,0.2-0.1,0.3-0.1c0.1,0,0.2-0.1,0.3-0.1c0.2-0.1,0.4-0.1,0.7-0.1
		c0.2,0,0.4,0,0.6,0l8,1.1h0c0,0,0,0,0.1-0.1l3.3-3.8c0.6-0.6,1.2-1.2,1.9-1.7c0.7-0.5,1.3-1.1,2-1.6c0,0,0,0,0,0v0l-1.1-8
		c0-0.1,0-0.3,0-0.4c0-0.3,0-0.5,0-0.7c0-0.1,0-0.2,0.1-0.2c0,0,0,0,0,0c0-0.1,0-0.1,0.1-0.2c0-0.1,0.1-0.2,0.1-0.2
		c0-0.1,0.1-0.1,0.1-0.2c0.1-0.2,0.3-0.3,0.5-0.5c0.1-0.1,0.2-0.1,0.3-0.2l6.5-2.7c0.4-0.2,0.8-0.2,1.1-0.1c0,0,0.1,0,0.2,0
		c0.1,0,0.3,0.1,0.4,0.2c0,0,0,0,0.1,0v0c0,0,0.1,0,0.1,0.1c0,0,0.1,0.1,0.1,0.1c0,0,0,0,0.1,0c0.1,0,0.1,0.1,0.2,0.2
		c0.2,0.1,0.3,0.3,0.4,0.5v0l4.9,6.4l0,0c1.7-0.3,3.4-0.4,5.1-0.4c1.7,0,3.4,0.1,5,0.4l4.9-6.4c0.1-0.1,0.1-0.1,0.2-0.2c0,0,0,0,0,0
		c0.1-0.1,0.1-0.2,0.2-0.2c0,0,0.1-0.1,0.1-0.1c0,0,0.1-0.1,0.1-0.1c0,0,0.1-0.1,0.2-0.1c0,0,0,0,0,0c0,0,0,0,0.1,0
		c0.1,0,0.1-0.1,0.2-0.1c0,0,0,0,0.1,0v0h0c0.1,0,0.1-0.1,0.2-0.1c0,0,0,0,0.1,0c0,0,0,0,0,0c0,0,0.1,0,0.2,0c0,0,0.1,0,0.1,0
		c0,0,0,0,0,0c0.2,0,0.4,0,0.6,0c0.1,0,0.1,0,0.2,0c0.1,0,0.1,0,0.2,0.1l6.5,2.7c0.1,0.1,0.3,0.1,0.4,0.2c0,0,0.1,0.1,0.1,0.1
		c0.1,0.1,0.2,0.2,0.2,0.3c0,0.1,0.1,0.1,0.1,0.2c0.1,0.3,0.2,0.5,0.3,0.8c0,0.1,0,0.1,0,0.2c0,0.2,0,0.3,0,0.5c0,0.1,0,0.3,0,0.4
		l-1.1,8c0.7,0.5,1.4,1,2,1.6c0.6,0.6,1.3,1.1,1.9,1.8c0.3,0.3,0.6,0.6,0.9,0.9c0.4,0.5,0.9,1,1.3,1.5c0.4,0.5,0.8,1,1.1,1.5h0
		l8-1.1c0.2,0,0.4,0,0.6,0c0.2,0,0.4,0,0.6,0.1c0,0,0.1,0,0.1,0c0,0,0.1,0,0.1,0c0,0,0,0,0.1,0c0.1,0,0.1,0,0.2,0.1c0,0,0,0,0,0
		c0.1,0,0.1,0.1,0.2,0.1c0.2,0.1,0.3,0.2,0.4,0.4c0,0,0.1,0.1,0.1,0.1c0,0.1,0.1,0.1,0.1,0.2l2.7,6.5c0.1,0.3,0.1,0.5,0.1,0.7
		c0,0.1,0,0.2,0,0.3c0,0.2-0.1,0.3-0.2,0.5c-0.1,0.2-0.2,0.3-0.3,0.5c-0.1,0.2-0.3,0.3-0.4,0.4c-0.1,0.1-0.2,0.1-0.2,0.2l-6.4,4.9
		c0.3,1.7,0.4,3.4,0.4,5.1c0,1.7-0.1,3.4-0.4,5.1l6.4,4.9c0.2,0.1,0.3,0.3,0.5,0.4c0.2,0.1,0.3,0.3,0.4,0.5c0.1,0.1,0.1,0.2,0.2,0.2
		c0.1,0.2,0.2,0.3,0.2,0.5c0,0.1,0,0.2,0,0.3C341.9,88.9,341.8,89.1,341.7,89.4z M518.3,87.1c0,0,0.1,0.1,0.1,0.1
		c0.1,0.1,0.1,0.1,0.1,0.2c0.1,0.1,0.1,0.1,0.1,0.2c0,0,0,0,0,0c0,0,0,0,0,0.1c0.1,0.1,0.2,0.3,0.2,0.4c0,0,0,0.1,0,0.1
		c0,0.1,0,0.1,0,0.2c0,0.1,0,0.2,0,0.3c0,0.1,0,0.3,0,0.4c0,0,0,0.1,0,0.1c0,0.1,0,0.1-0.1,0.2l-2.7,6.5c-0.1,0.2-0.2,0.4-0.3,0.5
		c-0.1,0-0.1,0.1-0.1,0.1c0,0,0,0,0,0c0,0,0,0,0,0v0c-0.1,0.1-0.1,0.1-0.2,0.1c0,0,0,0-0.1,0v0c0,0-0.1,0-0.1,0
		c-0.1,0-0.2,0.1-0.3,0.1c0,0-0.1,0-0.1,0c0,0,0,0,0,0v0c0,0-0.1,0-0.2,0c-0.1,0-0.1,0-0.2,0c0,0,0,0-0.1,0c-0.3,0-0.5,0-0.8,0
		l-8-1.1c-0.3,0.3-0.5,0.7-0.8,1c-0.5,0.7-1.1,1.3-1.7,2c-0.2,0.2-0.4,0.5-0.7,0.7c-0.1,0.1-0.1,0.2-0.2,0.2
		c-0.2,0.2-0.3,0.3-0.5,0.5c-0.2,0.2-0.3,0.3-0.5,0.4c-0.1,0.1-0.2,0.2-0.2,0.2c-0.2,0.2-0.5,0.4-0.7,0.6c0,0,0,0,0,0
		c-0.3,0.3-0.6,0.5-1,0.8l0,0c-0.3,0.3-0.7,0.5-1,0.8v0l1.1,8c0,0.1,0,0.3,0,0.4v0.4c0,0.4-0.1,0.8-0.3,1.1c0,0,0,0,0,0.1
		c0,0,0,0.1-0.1,0.1c0,0-0.1,0.1-0.1,0.1c0,0-0.1,0.1-0.1,0.2c0,0-0.1,0.1-0.1,0.1c-0.1,0.1-0.2,0.2-0.4,0.2l-6.5,2.7
		c-0.4,0.2-0.8,0.2-1.2,0v0c0,0,0,0-0.1,0c-0.2-0.1-0.4-0.2-0.6-0.4c0,0,0,0-0.1,0v0c0,0,0,0,0,0c-0.1-0.1-0.1-0.1-0.2-0.2
		c-0.2-0.2-0.3-0.3-0.4-0.5l-4.9-6.4c-1.7,0.3-3.4,0.4-5.1,0.4c-1.7,0-3.4-0.1-5-0.4l-4.9,6.4c-0.2,0.3-0.4,0.5-0.7,0.7
		c-0.1,0.1-0.2,0.1-0.2,0.2c-0.2,0.1-0.3,0.2-0.5,0.3c-0.1,0-0.2,0.1-0.3,0.1c-0.1,0-0.2,0-0.2,0h0c-0.1,0-0.2,0-0.3,0
		c-0.1,0-0.2,0-0.3-0.1l-6.5-2.7c-0.1,0-0.2-0.1-0.3-0.1c0,0,0,0,0,0c-0.1,0-0.1-0.1-0.2-0.1c0,0,0,0-0.1-0.1c0,0,0,0-0.1,0
		c-0.1,0-0.1-0.1-0.1-0.2c-0.1-0.2-0.2-0.3-0.3-0.5c0-0.1-0.1-0.2-0.1-0.3c0-0.1,0-0.1,0-0.2c0-0.2,0-0.4,0-0.6c0-0.1,0-0.3,0-0.4
		l1.1-8v0c-0.7-0.5-1.4-1-2-1.6c-0.3-0.3-0.6-0.6-1-0.9c-0.3-0.3-0.6-0.6-0.9-0.9s-0.6-0.6-0.9-0.9c-0.6-0.6-1.1-1.3-1.6-1.9
		c0,0,0,0,0,0c-0.3-0.3-0.5-0.7-0.8-1h0l-8,1.1c-0.2,0-0.4,0-0.6,0c-0.2,0-0.4,0-0.6-0.1c-0.2,0-0.4-0.1-0.6-0.2
		c-0.2-0.1-0.3-0.2-0.5-0.4c-0.1-0.1-0.3-0.3-0.3-0.5l-2.7-6.5c-0.1-0.3-0.1-0.5-0.1-0.7c0-0.1,0-0.2,0-0.3c0-0.2,0.1-0.3,0.2-0.5
		c0-0.1,0.1-0.2,0.1-0.3c0.1-0.1,0.2-0.3,0.4-0.4c0,0,0.1-0.1,0.1-0.1c0.1-0.1,0.2-0.2,0.3-0.3l6.4-4.9h0v0c-0.3-1.7-0.4-3.4-0.4-5
		v-0.2c0-1.6,0.1-3.3,0.4-4.9l-6.4-4.9c-0.1-0.1-0.2-0.1-0.2-0.2v0c0,0,0,0,0,0c-0.1-0.1-0.2-0.1-0.2-0.2c-0.1-0.1-0.1-0.1-0.2-0.2
		c-0.1-0.2-0.2-0.3-0.3-0.5c-0.1-0.3-0.2-0.5-0.2-0.8c0-0.2,0-0.5,0.1-0.8l2.7-6.5c0.1-0.2,0.2-0.4,0.3-0.5c0.1,0,0.1-0.1,0.2-0.2
		c0,0,0,0,0,0c0,0,0.1-0.1,0.1-0.1c0,0,0,0,0,0c0.1,0,0.1-0.1,0.2-0.1c0,0,0.1,0,0.1,0c0,0,0.1,0,0.1,0v0c0.1,0,0.2-0.1,0.2-0.1
		c0,0,0,0,0.1,0v0c0.1,0,0.1,0,0.2,0h0.1c0,0,0.1,0,0.1,0c0.3,0,0.5,0,0.8,0l8,1.1v0h0c0.8-1,1.6-2,2.4-3c0,0,0,0,0,0
		c0.3-0.3,0.6-0.6,0.9-0.9c0.3-0.3,0.6-0.6,0.9-0.9c0.3-0.3,0.6-0.6,0.9-0.8c0.5-0.4,1-0.9,1.6-1.2c0.1-0.1,0.3-0.2,0.4-0.3v0
		l-1.1-8c0-0.1,0-0.3,0-0.4c0-0.1,0-0.3,0-0.4c0-0.1,0-0.1,0-0.2c0-0.2,0.1-0.4,0.1-0.5c0-0.1,0.1-0.2,0.1-0.3c0,0,0,0,0,0
		c0-0.1,0.1-0.1,0.1-0.2c0,0,0,0,0,0s0,0,0,0c0-0.1,0.1-0.1,0.2-0.2c0.1-0.1,0.1-0.1,0.2-0.2c0.1-0.1,0.2-0.1,0.3-0.2l6.5-2.7
		c0.1,0,0.1,0,0.2,0c0.1,0,0.1,0,0.2-0.1c0.2,0,0.3,0,0.5,0c0,0,0.1,0,0.2,0c0,0,0.1,0,0.1,0c0.1,0,0.3,0.1,0.4,0.1
		c0.1,0,0.2,0.1,0.3,0.2c0.1,0,0.2,0.1,0.2,0.2v0c0,0,0,0,0,0c0.1,0.1,0.1,0.1,0.2,0.2c0.2,0.1,0.3,0.3,0.4,0.5l4.9,6.4l0,0
		c1.7-0.3,3.4-0.4,5.1-0.4l1.4,0c0.4,0,0.7,0,1.1,0.1c0.4,0,0.8,0.1,1.3,0.1c0.4,0.1,0.9,0.1,1.3,0.2l4.9-6.4v0
		c0.1-0.2,0.3-0.3,0.4-0.5c0.1-0.1,0.1-0.1,0.2-0.2c0.1,0,0.1-0.1,0.2-0.1c0.1-0.1,0.2-0.1,0.3-0.2c0.1-0.1,0.2-0.1,0.3-0.2
		c0,0,0.1,0,0.2,0c0.4-0.1,0.7-0.1,1.1,0.1l6.5,2.7c0.1,0,0.2,0.1,0.3,0.2c0.1,0,0.2,0.1,0.2,0.2c0,0,0.1,0.1,0.1,0.1
		c0,0,0,0,0.1,0.1c0,0,0,0.1,0.1,0.1c0,0.1,0.1,0.1,0.1,0.2c0.1,0.2,0.1,0.4,0.2,0.6c0,0.1,0,0.2,0,0.2c0,0.1,0,0.1,0,0.2
		c0,0.1,0,0.3,0,0.4s0,0.3,0,0.4l-1.1,8c0.4,0.3,0.7,0.5,1,0.8c0,0,0,0,0,0c0.3,0.3,0.7,0.5,1,0.8c0,0,0,0,0,0
		c0.7,0.6,1.3,1.1,1.9,1.7l3.3,3.8l8-1.1c0.3,0,0.6,0,0.8,0c0,0,0,0,0.1,0h0.1c0.1,0,0.2,0,0.2,0v0c0,0,0,0,0.1,0
		c0.1,0,0.2,0,0.2,0.1v0c0,0,0.1,0,0.1,0c0,0,0.1,0,0.1,0c0.1,0,0.1,0.1,0.2,0.1c0,0,0,0,0,0c0,0,0.1,0.1,0.2,0.1c0,0,0,0,0,0
		c0.1,0,0.1,0.1,0.2,0.2c0.1,0.2,0.3,0.3,0.3,0.5l2.7,6.5c0.1,0.3,0.2,0.5,0.1,0.8c0,0.1,0,0.2,0,0.3c0,0.1,0,0.1,0,0.2
		c0,0,0,0.1,0,0.1c0,0.1-0.1,0.2-0.2,0.3c0,0,0,0-0.1,0.1c0,0.1-0.1,0.1-0.1,0.2c0,0-0.1,0.1-0.1,0.1c0,0-0.1,0.1-0.1,0.2
		c-0.1,0.1-0.1,0.1-0.2,0.2h0v0c-0.1,0.1-0.2,0.1-0.2,0.2l-6.4,4.9c0.3,1.7,0.4,3.4,0.4,5c0,1.7-0.1,3.4-0.4,5.1l6.4,4.9
		C518.1,86.9,518.2,87,518.3,87.1z"/>
	<path class="st0" d="M486,60.7c-8.9-3.7-19,0.5-22.7,9.4c-0.9,2.2-1.3,4.5-1.3,6.8c0.1,6.8,4.1,13.2,10.7,15.9
		c8.9,3.7,19-0.5,22.7-9.4c0.9-2.2,1.3-4.5,1.3-6.8C496.6,69.9,492.6,63.5,486,60.7z M491.6,76.8c0,6.8-5.5,12.3-12.3,12.3
		c-6.8,0-12.3-5.5-12.3-12.3c0,0,0,0,0,0s0,0,0,0c0-6.8,5.5-12.3,12.3-12.3C486.1,64.5,491.6,70,491.6,76.8
		C491.6,76.8,491.6,76.8,491.6,76.8C491.6,76.8,491.6,76.8,491.6,76.8z"/>
	<path class="st1" d="M302,89.1c-6.8,0-12.3-5.5-12.3-12.3c0,0,0,0,0,0C289.7,83.6,295.2,89.1,302,89.1c6.8,0,12.3-5.5,12.3-12.3
		c0,0,0,0,0,0C314.3,83.6,308.8,89.1,302,89.1z"/>
	<path class="st1" d="M321.2,50.4L321.2,50.4C321.2,50.4,321.2,50.4,321.2,50.4l1.1-8c0-0.1,0-0.3,0-0.4c0,0.1,0,0.3,0,0.4
		L321.2,50.4z"/>
	<path class="st1" d="M340.7,66.8l-6.4,4.9c0,0,0,0,0,0L340.7,66.8c0.7-0.5,1.2-1.2,1.2-1.9C341.8,65.6,341.3,66.3,340.7,66.8z"/>
	<path class="st1" d="M334.2,81.9c0.3-1.7,0.4-3.4,0.4-5.1C334.6,78.4,334.5,80.2,334.2,81.9L334.2,81.9z"/>
	<path class="st1" d="M282.8,50.4l-1.1-8c0-0.1,0-0.3,0-0.4c0,0.1,0,0.3,0,0.4L282.8,50.4L282.8,50.4
		C282.8,50.4,282.8,50.4,282.8,50.4L282.8,50.4z"/>
	<path class="st1" d="M308.7,60.7c-8.9-3.7-19,0.5-22.7,9.4c-0.9,2.2-1.3,4.5-1.3,6.8c0-2.3,0.4-4.5,1.3-6.8
		C289.6,61.3,299.8,57.1,308.7,60.7c6.6,2.8,10.7,9.2,10.7,15.9C319.3,69.9,315.3,63.5,308.7,60.7z"/>
	<path class="st1" d="M282.8,103.2c-2.8-2-5.2-4.5-7.2-7.2l0,0l-8,1.1c-1.1,0.1-2.2-0.1-2.6-1.1l-2.7-6.5c-0.1-0.3-0.1-0.5-0.1-0.7
		c0,0.2,0,0.5,0.1,0.7l2.7,6.5c0.4,1,1.5,1.2,2.6,1.1l8-1.1l0,0C277.6,98.7,280,101.1,282.8,103.2L282.8,103.2L282.8,103.2z"/>
	<path class="st1" d="M321.2,113.8l-6.5,2.7c-1,0.4-2-0.2-2.6-1.1l-4.9-6.4v0c-3.3,0.5-6.8,0.5-10.2,0v0l-4.9,6.4
		c-0.7,0.9-1.6,1.5-2.6,1.1l-6.5-2.7c-0.9-0.4-1.2-1.3-1.1-2.2c0,1,0.2,1.9,1.1,2.2l6.5,2.7c1,0.4,2-0.2,2.6-1.1l4.9-6.4v0
		c3.4,0.5,6.9,0.5,10.2,0v0l4.9,6.4c0.7,0.9,1.6,1.5,2.6,1.1L321.2,113.8c0.8-0.3,1.1-1,1.1-1.8
		C322.3,112.8,321.9,113.5,321.2,113.8z"/>
	<path class="st1" d="M269.4,76.8c0,1.7,0.1,3.4,0.4,5l0,0C269.5,80.2,269.4,78.5,269.4,76.8z"/>
	<path class="st1" d="M269.8,71.7l-6.4-4.9c-0.7-0.5-1.2-1.2-1.2-1.9c0,0.7,0.6,1.4,1.2,1.9L269.8,71.7L269.8,71.7
		C269.8,71.7,269.8,71.7,269.8,71.7L269.8,71.7z"/>
	<path class="st1" d="M339,95.9c-0.4,1-1.5,1.3-2.6,1.1l-8-1.1c-2,2.8-4.5,5.2-7.2,7.2l0,0l0,0c2.7-2,5.2-4.4,7.2-7.2l8,1.1
		C337.5,97.2,338.6,97,339,95.9l2.7-6.5c0.1-0.3,0.1-0.5,0.1-0.7c0,0.2,0,0.5-0.1,0.7L339,95.9z"/>
	<path class="st1" d="M124.7,89.1c-6.8,0-12.3-5.5-12.3-12.3c0,0,0,0,0,0C112.4,83.6,117.9,89.1,124.7,89.1
		c6.8,0,12.3-5.5,12.3-12.3c0,0,0,0,0,0C137,83.6,131.5,89.1,124.7,89.1z"/>
	<path class="st1" d="M163.3,66.8l-6.4,4.9c0,0,0,0,0,0L163.3,66.8c0.7-0.5,1.2-1.2,1.2-1.9C164.5,65.6,164,66.3,163.3,66.8z"/>
	<path class="st1" d="M143.9,113.8l-6.5,2.7c-1,0.4-2-0.2-2.6-1.1l-4.9-6.4v0c-3.3,0.5-6.8,0.5-10.2,0v0l-4.9,6.4
		c-0.7,0.9-1.6,1.5-2.6,1.1l-6.5-2.7c-0.9-0.4-1.2-1.3-1.1-2.2c0,1,0.2,1.9,1.1,2.2l6.5,2.7c1,0.4,2-0.2,2.6-1.1l4.9-6.4v0
		c3.4,0.5,6.9,0.5,10.2,0v0l4.9,6.4c0.7,0.9,1.6,1.5,2.6,1.1L143.9,113.8c0.9-0.4,1.2-1.3,1.1-2.2
		C145,112.5,144.8,113.4,143.9,113.8z"/>
	<path class="st1" d="M161.7,95.9c-0.4,1-1.5,1.3-2.6,1.1l-8-1.1c-2,2.8-4.5,5.2-7.2,7.2l0,0l0,0c2.7-2,5.2-4.4,7.2-7.2l8,1.1
		C160.2,97.2,161.3,97,161.7,95.9l2.7-6.5c0.1-0.3,0.1-0.5,0.1-0.7c0,0.2,0,0.5-0.1,0.7L161.7,95.9z"/>
	<path class="st1" d="M105.5,103.2c-2.8-2-5.2-4.5-7.2-7.2l0,0l-8,1.1c-1.1,0.1-2.2-0.1-2.6-1.1L85,89.4c-0.1-0.3-0.1-0.5-0.1-0.7
		c0,0.2,0,0.5,0.1,0.7l2.7,6.5c0.4,1,1.5,1.2,2.6,1.1l8-1.1l0,0C100.3,98.7,102.7,101.1,105.5,103.2L105.5,103.2L105.5,103.2z"/>
	<path class="st1" d="M92.1,76.8c0,1.7,0.1,3.4,0.4,5l0,0C92.2,80.2,92.1,78.5,92.1,76.8z"/>
	<path class="st1" d="M131.3,60.7c-8.9-3.7-19,0.5-22.7,9.4c-0.9,2.2-1.3,4.5-1.3,6.8c0-2.3,0.4-4.6,1.3-6.8
		C112.3,61.3,122.5,57.1,131.3,60.7c6.6,2.8,10.7,9.2,10.7,15.9C142,69.9,138,63.5,131.3,60.7z"/>
	<path class="st1" d="M143.9,50.4L143.9,50.4C143.9,50.4,143.9,50.4,143.9,50.4l1.1-8c0-0.1,0-0.3,0-0.4c0,0.1,0,0.3,0,0.4
		L143.9,50.4z"/>
	<path class="st1" d="M156.9,81.9c0.3-1.7,0.4-3.4,0.4-5.1C157.3,78.4,157.2,80.2,156.9,81.9L156.9,81.9z"/>
	<path class="st1" d="M105.5,50.4l-1.1-8c0-0.1,0-0.3,0-0.4c0,0.1,0,0.3,0,0.4L105.5,50.4L105.5,50.4
		C105.5,50.4,105.5,50.4,105.5,50.4L105.5,50.4z"/>
	<path class="st1" d="M92.5,71.7L86,66.8c-0.7-0.5-1.2-1.2-1.2-1.9c0,0.7,0.6,1.4,1.2,1.9L92.5,71.7L92.5,71.7
		C92.5,71.7,92.5,71.7,92.5,71.7L92.5,71.7z"/>
	<path class="st1" d="M121.8,40.5h5.7c1,0,1.7-1.1,2.3-2l4.3-7.2c0,0,0,0,0,0l-4.3,7.1c-0.6,0.9-1.3,2-2.3,2L121.8,40.5
		c-1,0-1.7-1.1-2.3-2l-4.3-7.1c0,0,0,0,0,0l4.3,7.2C120.1,39.4,120.8,40.5,121.8,40.5z"/>
	<path class="st1" d="M86.4,40.5h5.7c1,0,1.7-1.1,2.3-2l4.3-7.2c0,0,0,0,0,0l-4.3,7.1c-0.6,0.9-1.3,2-2.3,2L86.4,40.5
		c-1,0-1.7-1.1-2.3-2l-4.3-7.1c0,0,0,0,0,0l4.3,7.2C84.6,39.4,85.4,40.5,86.4,40.5z"/>
	<path class="st1" d="M50.9,40.5l5.7,0c1,0,1.7-1.1,2.3-2l4.3-7.2c0,0,0,0,0,0l-4.3,7.1c-0.6,0.9-1.3,2-2.3,2L50.9,40.5
		c-1,0-1.7-1.1-2.3-2l-4.3-7.1c0,0,0,0,0,0l4.3,7.2C49.2,39.4,49.9,40.5,50.9,40.5z"/>
	<path class="st1" d="M479.3,89.1c-6.8,0-12.3-5.5-12.3-12.3c0,0,0,0,0,0C467,83.6,472.5,89.1,479.3,89.1c6.8,0,12.3-5.5,12.3-12.3
		c0,0,0,0,0,0C491.6,83.6,486.1,89.1,479.3,89.1z"/>
	<path class="st1" d="M460.1,50.4l-1.1-8c0-0.1,0-0.3,0-0.4c0,0.1,0,0.3,0,0.4L460.1,50.4L460.1,50.4
		C460.1,50.4,460.1,50.4,460.1,50.4L460.1,50.4z"/>
	<path class="st1" d="M460.1,103.2c-2.8-2-5.2-4.5-7.2-7.2l0,0l-8,1.1c-1.1,0.1-2.2-0.1-2.6-1.1l-2.7-6.5c-0.1-0.3-0.1-0.5-0.1-0.7
		c0,0.2,0,0.5,0.1,0.7l2.7,6.5c0.4,1,1.5,1.2,2.6,1.1l8-1.1l0,0C454.9,98.7,457.3,101.1,460.1,103.2L460.1,103.2L460.1,103.2z"/>
	<path class="st1" d="M499.6,111.6c0,0.1,0,0.2,0,0.3C499.6,111.8,499.6,111.7,499.6,111.6z"/>
	<path class="st1" d="M447.1,71.7l-6.4-4.9c-0.7-0.5-1.2-1.2-1.2-1.9c0,0.7,0.6,1.4,1.2,1.9L447.1,71.7L447.1,71.7
		C447.1,71.7,447.1,71.7,447.1,71.7L447.1,71.7z"/>
	<path class="st1" d="M517.9,66.8l-6.4,4.9c0,0,0,0,0,0L517.9,66.8c0.7-0.5,1.2-1.2,1.2-1.9C519.1,65.6,518.6,66.3,517.9,66.8z"/>
	<path class="st1" d="M498.5,50.4L498.5,50.4C498.5,50.4,498.5,50.4,498.5,50.4l1.1-8c0-0.1,0-0.3,0-0.4c0,0.1,0,0.3,0,0.4
		L498.5,50.4z"/>
	<path class="st1" d="M486,60.7c-8.9-3.7-19,0.5-22.7,9.4c-0.9,2.2-1.3,4.5-1.3,6.8c0-2.3,0.4-4.6,1.3-6.8
		C466.9,61.3,477.1,57.1,486,60.7c6.6,2.8,10.7,9.2,10.7,15.9C496.6,69.9,492.6,63.5,486,60.7z"/>
	<path class="st1" d="M516.3,95.9c-0.4,1-1.5,1.3-2.6,1.1l-8-1.1c-2,2.8-4.5,5.2-7.2,7.2l0,0l0,0c2.7-2,5.2-4.4,7.2-7.2l8,1.1
		C514.8,97.2,515.9,97,516.3,95.9l2.7-6.5c0.1-0.3,0.1-0.5,0.1-0.7c0,0.2,0,0.5-0.1,0.7L516.3,95.9z"/>
	<path class="st1" d="M511.5,81.9c0.3-1.7,0.4-3.4,0.4-5.1C511.9,78.4,511.8,80.2,511.5,81.9L511.5,81.9z"/>
	<path class="st1" d="M498.5,113.8l-6.5,2.7c-1,0.4-2-0.2-2.6-1.1l-4.9-6.4v0c-3.3,0.5-6.8,0.5-10.2,0v0l-4.9,6.4
		c-0.7,0.9-1.6,1.5-2.6,1.1l-6.5-2.7c-0.9-0.4-1.2-1.3-1.1-2.2c0,1,0.2,1.9,1.1,2.2l6.5,2.7c1,0.4,2-0.2,2.6-1.1l4.9-6.4v0
		c3.4,0.5,6.9,0.5,10.2,0v0l4.9,6.4c0.7,0.9,1.6,1.5,2.6,1.1L498.5,113.8c0.8-0.3,1.1-1,1.1-1.8
		C499.5,112.8,499.2,113.5,498.5,113.8z"/>
	<path class="st1" d="M446.7,76.8c0,1.7,0.1,3.4,0.4,5l0,0C446.8,80.2,446.7,78.5,446.7,76.8z"/>
	<path class="st1" d="M476.5,40.5h5.7c1,0,1.7-1.1,2.3-2l3.7-6.3c0,0,0,0,0,0l-3.7,6.3c-0.6,0.9-1.3,2-2.3,2L476.5,40.5
		c-1,0-1.7-1.1-2.3-2l-4.3-7.1c0,0,0,0,0,0l4.3,7.2C474.7,39.4,475.4,40.5,476.5,40.5z"/>
	<path class="st1" d="M510,53.3c-1,0.3-2.3,0.5-3-0.2l-4-4c-0.4-0.4-0.5-0.9-0.5-1.4c0,0.5,0.1,1,0.5,1.4l4,4
		C507.7,53.9,508.9,53.6,510,53.3l7.1-1.8c0,0,0,0,0,0L510,53.3z"/>
	<path class="st1" d="M517.6,81.9c-0.9-0.6-2-1.3-2-2.3v0C515.6,80.6,516.6,81.3,517.6,81.9l6.3,3.8c0,0,0,0,0,0L517.6,81.9z"/>
	<path class="st1" d="M502.8,107.4c-0.1-0.5-0.3-1.1-0.3-1.6C502.5,106.3,502.6,106.9,502.8,107.4l1.8,7.1c0,0,0,0,0,0L502.8,107.4z
		"/>
	<path class="st1" d="M441,40.5h5.7c1,0,1.7-1.1,2.3-2l4.3-7.2c0,0,0,0,0,0l-4.3,7.1c-0.6,0.9-1.3,2-2.3,2L441,40.5
		c-1,0-1.7-1.1-2.3-2l-4.3-7.1c0,0,0,0,0,0l4.3,7.2C439.3,39.4,440,40.5,441,40.5z"/>
	<path class="st1" d="M405.5,40.5h5.7c1,0,1.7-1.1,2.3-2l4.3-7.2c0,0,0,0,0,0l-4.3,7.1c-0.6,0.9-1.3,2-2.3,2L405.5,40.5
		c-1,0-1.7-1.1-2.3-2l-4.3-7.1c0,0,0,0,0,0l4.3,7.2C403.8,39.4,404.5,40.5,405.5,40.5z"/>
	<path class="st1" d="M370.1,40.5h5.7c1,0,1.7-1.1,2.3-2l4.3-7.2c0,0,0,0,0,0l-4.3,7.1c-0.6,0.9-1.3,2-2.3,2L370.1,40.5
		c-1,0-1.7-1.1-2.3-2l-4.3-7.1c0,0,0,0,0,0l4.3,7.2C368.3,39.4,369,40.5,370.1,40.5z"/>
	<path class="st1" d="M334.6,40.5h5.7c1,0,1.7-1.1,2.3-2l4.3-7.2c0,0,0,0,0,0l-4.3,7.1c-0.6,0.9-1.3,2-2.3,2L334.6,40.5
		c-1,0-1.7-1.1-2.3-2l-4.3-7.1c0,0,0,0,0,0l4.3,7.2C332.9,39.4,333.6,40.5,334.6,40.5z"/>
	<path class="st1" d="M299.1,40.5h5.7c1,0,1.7-1.1,2.3-2l4.3-7.2c0,0,0,0,0,0l-4.3,7.1c-0.6,0.9-1.3,2-2.3,2L299.1,40.5
		c-1,0-1.7-1.1-2.3-2l-4.3-7.1c0,0,0,0,0,0l4.3,7.2C297.4,39.4,298.1,40.5,299.1,40.5z"/>
	<path class="st1" d="M263.7,40.5h5.7c1,0,1.7-1.1,2.3-2l4.3-7.2c0,0,0,0,0,0l-4.3,7.1c-0.6,0.9-1.3,2-2.3,2L263.7,40.5
		c-1,0-1.7-1.1-2.3-2l-4.3-7.1c0,0,0,0,0,0l4.3,7.2C261.9,39.4,262.7,40.5,263.7,40.5z"/>
	<path class="st1" d="M228.2,40.5l5.7,0c1,0,1.7-1.1,2.3-2l4.3-7.2c0,0,0,0,0,0l-4.3,7.1c-0.6,0.9-1.3,2-2.3,2L228.2,40.5
		c-1,0-1.7-1.1-2.3-2l-4.3-7.1c0,0,0,0,0,0l4.3,7.2C226.5,39.4,227.2,40.5,228.2,40.5z"/>
	<path class="st1" d="M157.3,40.5l5.7,0c1,0,1.7-1.1,2.3-2l4.3-7.2c0,0,0,0,0,0l-4.3,7.1c-0.6,0.9-1.3,2-2.3,2L157.3,40.5
		c-1,0-1.7-1.1-2.3-2l-4.3-7.1c0,0,0,0,0,0l4.3,7.2C155.5,39.4,156.2,40.5,157.3,40.5z"/>
	<path class="st1" d="M192.7,40.5l5.7,0c1,0,1.7-1.1,2.3-2l4.3-7.2c0,0,0,0,0,0l-4.3,7.1c-0.6,0.9-1.3,2-2.3,2L192.7,40.5
		c-1,0-1.7-1.1-2.3-2l-4.3-7.1c0,0,0,0,0,0l4.3,7.2C191,39.4,191.7,40.5,192.7,40.5z"/>
	<path class="st1" d="M488.3,32.3c-0.1,0-0.1,0-0.2,0l0,0C488.2,32.2,488.3,32.3,488.3,32.3z"/>
	<path class="st1" d="M399,31.4L399,31.4c-5.6,0-11.1,0-16.7,0l0,0C387.8,31.4,393.4,31.4,399,31.4z"/>
	<path class="st1" d="M469.9,31.4L469.9,31.4c-5.6,0-11.1,0-16.7,0l0,0C458.8,31.4,464.3,31.4,469.9,31.4z"/>
	<path class="st1" d="M434.4,31.4L434.4,31.4c-5.6,0-11.1,0-16.7,0l0,0C423.3,31.4,428.9,31.4,434.4,31.4z"/>
	<path class="st1" d="M517.6,52.4c-0.2-0.3-0.4-0.6-0.5-0.8l0,0C517.2,51.8,517.4,52.1,517.6,52.4z"/>
	<path class="st1" d="M328.1,31.4L328.1,31.4c-5.6,0-11.1,0-16.7,0l0,0C316.9,31.4,322.5,31.4,328.1,31.4z"/>
	<path class="st1" d="M221.7,31.4L221.7,31.4c-5.6,0-11.1,0-16.7,0l0,0C210.5,31.4,216.1,31.4,221.7,31.4z"/>
	<path class="st1" d="M44.4,31.4L44.4,31.4c-2.7,0-5.3,0-8,0v0C39.1,31.4,41.7,31.4,44.4,31.4z"/>
	<path class="st1" d="M186.2,31.4L186.2,31.4c-5.6,0-11.1,0-16.7,0l0,0C175.1,31.4,180.6,31.4,186.2,31.4z"/>
	<path class="st1" d="M150.7,31.4L150.7,31.4c-5.6,0-11.1,0-16.7,0l0,0C139.6,31.4,145.2,31.4,150.7,31.4z"/>
	<path class="st1" d="M292.6,31.4L292.6,31.4c-5.6,0-11.1,0-16.7,0l0,0C281.4,31.4,287,31.4,292.6,31.4z"/>
	<path class="st1" d="M79.8,31.4L79.8,31.4c-5.6,0-11.1,0-16.7,0l0,0C68.7,31.4,74.3,31.4,79.8,31.4z"/>
	<path class="st1" d="M363.5,31.4L363.5,31.4c-5.6,0-11.1,0-16.7,0l0,0C352.4,31.4,358,31.4,363.5,31.4z"/>
	<path class="st1" d="M257.1,31.4L257.1,31.4c-5.6,0-11.1,0-16.7,0l0,0C246,31.4,251.6,31.4,257.1,31.4z"/>
	<path class="st1" d="M499.5,36.1c0.5,0.2,0.9,0.5,1.4,0.7C500.4,36.6,500,36.3,499.5,36.1z"/>
	<path class="st1" d="M495.6,34.4c0.4,0.2,0.9,0.3,1.3,0.5C496.5,34.7,496,34.6,495.6,34.4z"/>
	<path class="st1" d="M497.6,35.2c0.5,0.2,0.9,0.4,1.4,0.6C498.5,35.6,498,35.4,497.6,35.2z"/>
	<path class="st1" d="M493.5,33.7c0.4,0.1,0.9,0.3,1.3,0.4C494.4,33.9,494,33.8,493.5,33.7z"/>
	<path class="st1" d="M489.3,32.5c0.4,0.1,0.9,0.2,1.3,0.3C490.1,32.7,489.7,32.6,489.3,32.5z"/>
	<path class="st1" d="M491.4,33c0.4,0.1,0.9,0.2,1.3,0.4C492.3,33.3,491.9,33.1,491.4,33z"/>
	<path class="st1" d="M520.3,57.2c0.1,0.2,0.2,0.4,0.3,0.7C520.5,57.7,520.4,57.4,520.3,57.2z"/>
	<path class="st1" d="M521.2,59.3c0.1,0.2,0.1,0.4,0.2,0.5C521.3,59.6,521.3,59.4,521.2,59.3z"/>
	<path class="st1" d="M519.3,55.2c0.1,0.3,0.3,0.5,0.4,0.8C519.5,55.7,519.4,55.5,519.3,55.2z"/>
	<path class="st1" d="M522,61.3c0.1,0.1,0.1,0.3,0.1,0.4C522.1,61.6,522.1,61.5,522,61.3z"/>
	<path class="st1" d="M522.7,63.5c0,0.1,0.1,0.2,0.1,0.3C522.8,63.7,522.8,63.6,522.7,63.5z"/>
	<path class="st1" d="M523.3,65.7c0,0.1,0,0.2,0.1,0.3C523.4,65.8,523.4,65.7,523.3,65.7z"/>
	<path class="st1" d="M523.8,67.9C523.8,67.9,523.8,67.9,523.8,67.9C523.8,67.9,523.8,67.9,523.8,67.9L523.8,67.9z"/>
	<path class="st1" d="M501.4,37.1c0.5,0.3,0.9,0.5,1.4,0.8C502.3,37.6,501.9,37.4,501.4,37.1z"/>
	<path class="st1" d="M504.5,39c-0.4-0.3-0.8-0.5-1.2-0.8C503.7,38.5,504.1,38.7,504.5,39L504.5,39z"/>
	<path class="st1" d="M518.2,53.3c0.2,0.3,0.3,0.6,0.5,0.9C518.5,53.9,518.4,53.6,518.2,53.3z"/>
	<path class="st1" d="M115.3,31.4L115.3,31.4c-5.6,0-11.1,0-16.7,0l0,0C104.2,31.4,109.7,31.4,115.3,31.4z"/>
	<path class="st1" d="M479.3,130.1c-147.6,0-295.3,0-442.9,0v0C184,130.1,331.7,130.1,479.3,130.1c29.4,0,53.3-23.9,53.3-53.3
		c0,0,0,0,0,0C532.6,106.2,508.7,130.1,479.3,130.1z"/>
	<polygon class="st1" points="115.3,31.4 115.3,31.4 115.3,31.4 115.3,31.4 	"/>
	<polygon class="st1" points="134,31.4 134.1,31.4 134.1,31.4 134.1,31.4 	"/>
	<polygon class="st1" points="79.8,31.4 79.8,31.4 79.8,31.4 79.8,31.4 	"/>
	<polygon class="st1" points="98.6,31.4 98.6,31.4 98.6,31.4 98.6,31.4 	"/>
	<polygon class="st1" points="63.1,31.4 63.1,31.4 63.1,31.4 63.1,31.4 	"/>
	<polygon class="st1" points="44.4,31.4 44.4,31.4 44.4,31.4 44.4,31.4 	"/>
	<polygon class="st1" points="469.9,31.4 469.9,31.4 469.9,31.4 469.9,31.4 	"/>
	<polygon class="st1" points="488.2,32.2 488.2,32.2 488.2,32.2 488.2,32.2 	"/>
	<polygon class="st1" points="517.1,51.5 517.1,51.5 517.1,51.5 517.1,51.5 	"/>
	<polygon class="st1" points="453.2,31.4 453.2,31.4 453.2,31.4 453.2,31.4 	"/>
	<polygon class="st1" points="434.5,31.4 434.4,31.4 434.4,31.4 434.4,31.4 	"/>
	<polygon class="st1" points="399,31.4 399,31.4 399,31.4 399,31.4 	"/>
	<polygon class="st1" points="417.7,31.4 417.7,31.4 417.8,31.4 417.7,31.4 	"/>
	<polygon class="st1" points="363.5,31.4 363.5,31.4 363.5,31.4 363.5,31.4 	"/>
	<polygon class="st1" points="382.3,31.4 382.3,31.4 382.3,31.4 382.3,31.4 	"/>
	<polygon class="st1" points="328.1,31.4 328.1,31.4 328,31.4 328.1,31.4 	"/>
	<polygon class="st1" points="346.8,31.4 346.8,31.4 346.8,31.4 346.8,31.4 	"/>
	<polygon class="st1" points="292.6,31.4 292.6,31.4 292.6,31.4 292.6,31.4 	"/>
	<polygon class="st1" points="311.3,31.4 311.3,31.4 311.4,31.4 311.3,31.4 	"/>
	<polygon class="st1" points="257.1,31.4 257.1,31.4 257.1,31.4 257.1,31.4 	"/>
	<polygon class="st1" points="275.9,31.4 275.9,31.4 275.9,31.4 275.9,31.4 	"/>
	<polygon class="st1" points="221.7,31.4 221.7,31.4 221.6,31.4 221.7,31.4 	"/>
	<polygon class="st1" points="240.4,31.4 240.4,31.4 240.4,31.4 240.4,31.4 	"/>
	<polygon class="st1" points="150.7,31.4 150.7,31.4 150.7,31.4 150.7,31.4 	"/>
	<polygon class="st1" points="169.5,31.4 169.5,31.4 169.5,31.4 169.5,31.4 	"/>
	<polygon class="st1" points="186.2,31.4 186.2,31.4 186.2,31.4 186.2,31.4 	"/>
	<polygon class="st1" points="204.9,31.4 205,31.4 205,31.4 205,31.4 	"/>
	<path class="st2" d="M302,64.5c-6.8,0-12.3,5.5-12.3,12.3c0,0,0,0,0,0C289.7,70,295.2,64.5,302,64.5c6.8,0,12.3,5.5,12.3,12.3
		c0,0,0,0,0,0C314.3,70,308.8,64.5,302,64.5z"/>
	<path class="st2" d="M302,64.5c-6.8,0-12.3,5.5-12.3,12.3c0,6.8,5.5,12.3,12.3,12.3c6.8,0,12.3-5.5,12.3-12.3
		C314.3,70,308.8,64.5,302,64.5z"/>
	<path class="st2" d="M321.2,103.2l1.1,8c0,0.3,0,0.5,0,0.8c0-0.3,0-0.5,0-0.8L321.2,103.2C321.2,103.2,321.2,103.2,321.2,103.2
		L321.2,103.2z"/>
	<path class="st2" d="M282.8,103.2L282.8,103.2C282.8,103.2,282.8,103.2,282.8,103.2l-1.1,8c0,0.1,0,0.3,0,0.4c0-0.1,0-0.3,0-0.4
		L282.8,103.2z"/>
	<path class="st2" d="M263.4,86.8l6.4-4.9l0,0c0,0,0,0,0,0l0,0L263.4,86.8c-0.7,0.5-1.2,1.1-1.2,1.9
		C262.2,87.9,262.7,87.3,263.4,86.8z"/>
	<path class="st2" d="M269.8,71.7c-0.3,1.7-0.4,3.4-0.4,5.1C269.4,75.1,269.5,73.4,269.8,71.7L269.8,71.7z"/>
	<path class="st2" d="M265,57.6c0.4-1,1.5-1.2,2.6-1.1l8,1.1l0,0c2-2.8,4.5-5.2,7.2-7.2l0,0c-2.7,2-5.2,4.4-7.2,7.2l0,0l-8-1.1
		C266.5,56.4,265.4,56.6,265,57.6l-2.7,6.5c-0.1,0.3-0.1,0.5-0.1,0.8c0-0.2,0-0.5,0.1-0.7L265,57.6z"/>
	<path class="st2" d="M334.6,76.7c0-1.7-0.1-3.4-0.4-5.1l0,0C334.5,73.4,334.6,75,334.6,76.7z"/>
	<path class="st2" d="M340.7,86.8l-6.4-4.9c0,0,0,0,0,0L340.7,86.8c0.7,0.5,1.2,1.2,1.2,1.9C341.8,87.9,341.3,87.3,340.7,86.8z"/>
	<path class="st2" d="M321.2,50.4c2.8,2,5.2,4.5,7.2,7.2l0,0l8-1.1c1.1-0.1,2.2,0.1,2.6,1.1l2.7,6.5c0.1,0.3,0.1,0.5,0.1,0.7
		c0-0.2,0-0.5-0.1-0.8l-2.7-6.5c-0.4-1-1.5-1.2-2.6-1.1l-8,1.1l0,0C326.4,54.9,324,52.4,321.2,50.4L321.2,50.4L321.2,50.4z"/>
	<path class="st2" d="M282.8,39.8l6.5-2.7c1-0.4,2,0.2,2.6,1.1l4.9,6.4l0,0c3.3-0.5,6.8-0.5,10.2,0v0l4.9-6.4
		c0.7-0.9,1.6-1.5,2.6-1.1l6.5,2.7c0.9,0.4,1.2,1.3,1.1,2.2c0-0.9-0.2-1.8-1.1-2.2l-6.5-2.7c-1-0.4-2,0.2-2.6,1.1l-4.9,6.4v0
		c-3.4-0.5-6.8-0.5-10.2,0l0,0l-4.9-6.4c-0.7-0.9-1.6-1.5-2.6-1.1L282.8,39.8c-0.9,0.4-1.2,1.3-1.1,2.2
		C281.7,41,281.9,40.1,282.8,39.8z"/>
	<path class="st2" d="M295.4,92.8c-6.6-2.8-10.7-9.2-10.7-15.9C284.7,83.7,288.7,90.1,295.4,92.8c8.9,3.7,19-0.5,22.7-9.4
		c0.9-2.2,1.3-4.5,1.3-6.8c0,2.3-0.4,4.6-1.3,6.8C314.4,92.3,304.2,96.5,295.4,92.8z"/>
	<path class="st2" d="M340.7,86.8l-6.4-4.9c0,0,0,0,0,0l0,0c0.3-1.7,0.4-3.4,0.4-5.1c0-1.7-0.1-3.4-0.4-5.1l0,0c0,0,0,0,0,0l6.4-4.9
		c0.7-0.5,1.2-1.2,1.2-1.9c0-0.2,0-0.5-0.1-0.7l-2.7-6.5c-0.4-1-1.5-1.2-2.6-1.1l-8,1.1l0,0c-2-2.7-4.4-5.2-7.2-7.2h0l0,0
		c0,0,0,0,0,0h0l1.1-8c0-0.1,0-0.3,0-0.4c0-0.9-0.2-1.8-1.1-2.2l-6.5-2.7c-1-0.4-2,0.2-2.6,1.1l-4.9,6.4v0c-3.4-0.5-6.8-0.5-10.2,0
		l0,0l-4.9-6.4c-0.7-0.9-1.6-1.5-2.6-1.1l-6.5,2.7c-0.9,0.4-1.2,1.3-1.1,2.2c0,0.1,0,0.3,0,0.4l1.1,8l0,0c0,0,0,0,0,0l0,0
		c-2.7,2-5.2,4.4-7.2,7.2l0,0l-8-1.1c-1.1-0.1-2.2,0.1-2.6,1.1l-2.7,6.5c-0.1,0.3-0.1,0.5-0.1,0.7c0,0.7,0.6,1.4,1.2,1.9l6.4,4.9h0
		c0,0,0,0,0,0h0c-0.3,1.7-0.4,3.4-0.4,5.1c0,1.7,0.1,3.4,0.4,5l0,0c0,0,0,0,0,0l0,0l-6.4,4.9c-0.7,0.5-1.2,1.1-1.2,1.9
		c0,0.2,0,0.5,0.1,0.7l2.7,6.5c0.4,1,1.5,1.2,2.6,1.1l8-1.1l0,0c2,2.7,4.4,5.2,7.2,7.2v0l0,0c0,0,0,0,0,0v0l-1.1,8
		c0,0.1,0,0.3,0,0.4c0,0.9,0.2,1.8,1.1,2.2l6.5,2.7c1,0.4,2-0.2,2.6-1.1l4.9-6.4v0c3.4,0.5,6.9,0.5,10.2,0v0l4.9,6.4
		c0.7,0.9,1.6,1.5,2.6,1.1l6.5-2.7c0.8-0.3,1.1-1,1.1-1.8c0-0.3,0-0.5,0-0.8l-1.1-8l0,0c0,0,0,0,0,0l0,0l0,0c2.7-2,5.2-4.4,7.2-7.2
		l8,1.1c1.1,0.1,2.2-0.1,2.6-1.1l2.7-6.5c0.1-0.3,0.1-0.5,0.1-0.7C341.8,87.9,341.3,87.3,340.7,86.8z M318.1,83.4
		c-3.7,8.9-13.8,13.1-22.7,9.4c-6.7-2.8-10.7-9.2-10.7-15.9c0-2.3,0.4-4.6,1.3-6.8c3.7-8.9,13.8-13.1,22.7-9.4
		c6.6,2.8,10.7,9.2,10.7,15.9C319.4,78.9,319,81.2,318.1,83.4z"/>
	<path class="st2" d="M124.7,64.5c-6.8,0-12.3,5.5-12.3,12.3c0,0,0,0,0,0C112.4,70,117.9,64.5,124.7,64.5c6.8,0,12.3,5.5,12.3,12.3
		c0,0,0,0,0,0C137,70,131.5,64.5,124.7,64.5z"/>
	<path class="st2" d="M124.7,64.5c-6.8,0-12.3,5.5-12.3,12.3c0,6.8,5.5,12.3,12.3,12.3c6.8,0,12.3-5.5,12.3-12.3
		C137,70,131.5,64.5,124.7,64.5z"/>
	<path class="st2" d="M157.3,76.7c0-1.7-0.1-3.4-0.4-5.1l0,0C157.2,73.4,157.3,75,157.3,76.7z"/>
	<path class="st2" d="M87.7,57.6c0.4-1,1.5-1.2,2.6-1.1l8,1.1l0,0c2-2.8,4.5-5.2,7.2-7.2l0,0c-2.7,2-5.2,4.4-7.2,7.2l0,0l-8-1.1
		C89.2,56.4,88.1,56.6,87.7,57.6L85,64.1c-0.1,0.3-0.1,0.5-0.1,0.8c0-0.2,0-0.5,0.1-0.7L87.7,57.6z"/>
	<path class="st2" d="M105.5,39.8l6.5-2.7c1-0.4,2,0.2,2.6,1.1l4.9,6.4l0,0c3.3-0.5,6.8-0.5,10.2,0v0l4.9-6.4
		c0.7-0.9,1.6-1.5,2.6-1.1l6.5,2.7c0.9,0.4,1.2,1.3,1.1,2.2c0-0.9-0.2-1.8-1.1-2.2l-6.5-2.7c-1-0.4-2,0.2-2.6,1.1l-4.9,6.4v0
		c-3.4-0.5-6.8-0.5-10.2,0l0,0l-4.9-6.4c-0.7-0.9-1.6-1.5-2.6-1.1L105.5,39.8c-0.9,0.4-1.2,1.3-1.1,2.2
		C104.3,41,104.6,40.1,105.5,39.8z"/>
	<path class="st2" d="M143.9,50.4c2.8,2,5.2,4.5,7.2,7.2l0,0l8-1.1c1.1-0.1,2.2,0.1,2.6,1.1l2.7,6.5c0.1,0.3,0.1,0.5,0.1,0.7
		c0-0.2,0-0.5-0.1-0.8l-2.7-6.5c-0.4-1-1.5-1.2-2.6-1.1l-8,1.1l0,0C149.1,54.9,146.7,52.4,143.9,50.4L143.9,50.4L143.9,50.4z"/>
	<path class="st2" d="M143.9,103.2l1.1,8c0,0.1,0,0.3,0,0.4c0-0.1,0-0.3,0-0.4L143.9,103.2C143.9,103.2,143.9,103.2,143.9,103.2
		L143.9,103.2z"/>
	<path class="st2" d="M118,92.8c-6.6-2.8-10.7-9.2-10.7-15.9C107.4,83.7,111.4,90.1,118,92.8c8.9,3.7,19-0.5,22.7-9.4
		c0.9-2.2,1.3-4.5,1.3-6.8c0,2.3-0.4,4.6-1.3,6.8C137.1,92.3,126.9,96.5,118,92.8z"/>
	<path class="st2" d="M163.3,86.8l-6.4-4.9c0,0,0,0,0,0L163.3,86.8c0.7,0.5,1.2,1.2,1.2,1.9C164.5,87.9,164,87.3,163.3,86.8z"/>
	<path class="st2" d="M105.5,103.2L105.5,103.2C105.5,103.2,105.5,103.2,105.5,103.2l-1.1,8c0,0.1,0,0.3,0,0.4c0-0.1,0-0.3,0-0.4
		L105.5,103.2z"/>
	<path class="st2" d="M92.5,71.7c-0.3,1.7-0.4,3.4-0.4,5.1C92.1,75.1,92.2,73.4,92.5,71.7L92.5,71.7z"/>
	<path class="st2" d="M86,86.8l6.4-4.9l0,0c0,0,0,0,0,0l0,0L86,86.8c-0.7,0.5-1.2,1.1-1.2,1.9C84.9,87.9,85.4,87.3,86,86.8z"/>
	<path class="st2" d="M163.3,86.8l-6.4-4.9c0,0,0,0,0,0l0,0c0.3-1.7,0.4-3.4,0.4-5.1c0-1.7-0.1-3.4-0.4-5.1l0,0c0,0,0,0,0,0l6.4-4.9
		c0.7-0.5,1.2-1.2,1.2-1.9c0-0.2,0-0.5-0.1-0.7l-2.7-6.5c-0.4-1-1.5-1.2-2.6-1.1l-8,1.1l0,0c-2-2.7-4.4-5.2-7.2-7.2h0l0,0
		c0,0,0,0,0,0h0l1.1-8c0-0.1,0-0.3,0-0.4c0-0.9-0.2-1.8-1.1-2.2l-6.5-2.7c-1-0.4-2,0.2-2.6,1.1l-4.9,6.4v0c-3.4-0.5-6.8-0.5-10.2,0
		l0,0l-4.9-6.4c-0.7-0.9-1.6-1.5-2.6-1.1l-6.5,2.7c-0.9,0.4-1.2,1.3-1.1,2.2c0,0.1,0,0.3,0,0.4l1.1,8l0,0c0,0,0,0,0,0l0,0
		c-2.7,2-5.2,4.4-7.2,7.2l0,0l-8-1.1c-1.1-0.1-2.2,0.1-2.6,1.1L85,64.2c-0.1,0.3-0.1,0.5-0.1,0.7c0,0.7,0.6,1.4,1.2,1.9l6.4,4.9h0
		c0,0,0,0,0,0h0c-0.3,1.7-0.4,3.4-0.4,5.1c0,1.7,0.1,3.4,0.4,5l0,0c0,0,0,0,0,0l0,0L86,86.8c-0.7,0.5-1.2,1.1-1.2,1.9
		c0,0.2,0,0.5,0.1,0.7l2.7,6.5c0.4,1,1.5,1.2,2.6,1.1l8-1.1l0,0c2,2.7,4.4,5.2,7.2,7.2v0l0,0c0,0,0,0,0,0v0l-1.1,8
		c0,0.1,0,0.3,0,0.4c0,0.9,0.3,1.8,1.1,2.2l6.5,2.7c1,0.4,2-0.2,2.6-1.1l4.9-6.4v0c3.4,0.5,6.9,0.5,10.2,0v0l4.9,6.4
		c0.7,0.9,1.6,1.5,2.6,1.1l6.5-2.7c0.9-0.4,1.2-1.3,1.1-2.2c0-0.1,0-0.3,0-0.4l-1.1-8l0,0c0,0,0,0,0,0l0,0l0,0
		c2.7-2,5.2-4.4,7.2-7.2l8,1.1c1.1,0.1,2.2-0.1,2.6-1.1l2.7-6.5c0.1-0.3,0.1-0.5,0.1-0.7C164.5,87.9,164,87.3,163.3,86.8z
		 M140.7,83.4c-3.7,8.9-13.8,13.1-22.7,9.4c-6.7-2.8-10.7-9.2-10.7-15.9c0-2.3,0.4-4.6,1.3-6.8c3.7-8.9,13.8-13.1,22.7-9.4
		c6.6,2.8,10.7,9.2,10.7,15.9C142.1,78.9,141.7,81.2,140.7,83.4z"/>
	<path class="st2" d="M479.3,64.5c-6.8,0-12.3,5.5-12.3,12.3c0,0,0,0,0,0C467,70,472.5,64.5,479.3,64.5c6.8,0,12.3,5.5,12.3,12.3
		c0,0,0,0,0,0C491.6,70,486.1,64.5,479.3,64.5z"/>
	<path class="st2" d="M479.3,64.5c-6.8,0-12.3,5.5-12.3,12.3c0,6.8,5.5,12.3,12.3,12.3c6.8,0,12.3-5.5,12.3-12.3
		C491.6,70,486.1,64.5,479.3,64.5z"/>
	<path class="st2" d="M460.1,103.2L460.1,103.2C460.1,103.2,460.1,103.2,460.1,103.2l-1.1,8c0,0.1,0,0.3,0,0.4c0-0.1,0-0.3,0-0.4
		L460.1,103.2z"/>
	<path class="st2" d="M499.6,111.8c0,0,0,0.1,0,0.1C499.6,111.9,499.6,111.9,499.6,111.8z"/>
	<path class="st2" d="M472.7,92.8c-6.6-2.8-10.7-9.2-10.7-15.9C462,83.7,466,90.1,472.7,92.8c8.9,3.7,19-0.5,22.7-9.4
		c0.9-2.2,1.3-4.5,1.3-6.8c0,2.3-0.4,4.6-1.3,6.8C491.7,92.3,481.5,96.5,472.7,92.8z"/>
	<path class="st2" d="M442.3,57.6c0.4-1,1.5-1.2,2.6-1.1l8,1.1l0,0c2-2.8,4.5-5.2,7.2-7.2l0,0c-2.7,2-5.2,4.4-7.2,7.2l0,0l-8-1.1
		C443.8,56.4,442.7,56.6,442.3,57.6l-2.7,6.5c-0.1,0.3-0.1,0.5-0.1,0.8c0-0.2,0-0.5,0.1-0.7L442.3,57.6z"/>
	<path class="st2" d="M447.1,71.7c-0.3,1.7-0.4,3.4-0.4,5.1C446.7,75.1,446.8,73.4,447.1,71.7L447.1,71.7z"/>
	<path class="st2" d="M484.4,44.5L484.4,44.5c-3.4-0.5-6.8-0.5-10.2,0l0,0l-4.9-6.4c-0.7-0.9-1.6-1.5-2.6-1.1l-6.5,2.7
		c-0.9,0.4-1.2,1.3-1.1,2.2c0-0.9,0.3-1.8,1.1-2.2l6.5-2.7c1-0.4,2,0.2,2.6,1.1l4.9,6.4l0,0C477.5,44,481,44,484.4,44.5L484.4,44.5
		l4.9-6.4c0.7-0.9,1.6-1.5,2.6-1.1l6.5,2.7c0.9,0.4,1.2,1.3,1.1,2.2c0-0.9-0.2-1.8-1.1-2.2l-6.5-2.7c-1-0.4-2,0.2-2.6,1.1
		L484.4,44.5z"/>
	<path class="st2" d="M517.9,86.8c0.7,0.5,1.2,1.2,1.2,1.9C519.1,87.9,518.6,87.3,517.9,86.8l-6.4-4.9c0,0,0,0,0,0L517.9,86.8z"/>
	<path class="st2" d="M440.6,86.8l6.4-4.9l0,0c0,0,0,0,0,0l0,0L440.6,86.8c-0.7,0.5-1.2,1.1-1.2,1.9C439.5,87.9,440,87.3,440.6,86.8
		z"/>
	<path class="st2" d="M498.5,50.4c2.8,2,5.2,4.5,7.2,7.2l0,0l8-1.1c1.1-0.1,2.2,0.1,2.6,1.1l2.7,6.5c0.1,0.3,0.1,0.5,0.1,0.7
		c0-0.2,0-0.5-0.1-0.8l-2.7-6.5c-0.4-1-1.5-1.2-2.6-1.1l-8,1.1l0,0C503.7,54.9,501.3,52.4,498.5,50.4L498.5,50.4L498.5,50.4z"/>
	<path class="st2" d="M511.9,76.7c0-1.7-0.1-3.4-0.4-5.1l0,0C511.8,73.4,511.9,75,511.9,76.7z"/>
	<path class="st2" d="M498.5,103.2l1.1,8c0,0.1,0,0.3,0,0.4c0-0.1,0-0.3,0-0.4L498.5,103.2C498.5,103.2,498.5,103.2,498.5,103.2
		L498.5,103.2z"/>
	<path class="st2" d="M498.5,39.8l-6.5-2.7c-1-0.4-2,0.2-2.6,1.1l-4.9,6.4v0c-3.4-0.5-6.8-0.5-10.2,0l0,0l-4.9-6.4
		c-0.7-0.9-1.6-1.5-2.6-1.1l-6.5,2.7c-0.9,0.4-1.2,1.3-1.1,2.2c0,0.1,0,0.3,0,0.4l1.1,8l0,0c0,0,0,0,0,0l0,0c-2.7,2-5.2,4.4-7.2,7.2
		l0,0l-8-1.1c-1.1-0.1-2.2,0.1-2.6,1.1l-2.7,6.5c-0.1,0.3-0.1,0.5-0.1,0.7c0,0.7,0.6,1.4,1.2,1.9l6.4,4.9h0c0,0,0,0,0,0h0
		c-0.3,1.7-0.4,3.4-0.4,5.1c0,1.7,0.1,3.4,0.4,5l0,0c0,0,0,0,0,0l0,0l-6.4,4.9c-0.7,0.5-1.2,1.1-1.2,1.9c0,0.2,0,0.5,0.1,0.7
		l2.7,6.5c0.4,1,1.5,1.2,2.6,1.1l8-1.1l0,0c2,2.7,4.4,5.2,7.2,7.2v0l0,0c0,0,0,0,0,0v0l-1.1,8c0,0.1,0,0.3,0,0.4
		c0,0.9,0.2,1.8,1.1,2.2l6.5,2.7c1,0.4,2-0.2,2.6-1.1l4.9-6.4v0c3.4,0.5,6.9,0.5,10.2,0v0l4.9,6.4c0.7,0.9,1.6,1.5,2.6,1.1l6.5-2.7
		c0.8-0.3,1.1-1,1.1-1.8c0,0,0-0.1,0-0.1c0-0.1,0-0.2,0-0.3c0-0.1,0-0.3,0-0.4l-1.1-8l0,0c0,0,0,0,0,0l0,0l0,0
		c2.7-2,5.2-4.4,7.2-7.2l8,1.1c1.1,0.1,2.2-0.1,2.6-1.1l2.7-6.5c0.1-0.3,0.1-0.5,0.1-0.7c0-0.7-0.6-1.4-1.2-1.9l-6.4-4.9
		c0,0,0,0,0,0l0,0c0.3-1.7,0.4-3.4,0.4-5.1c0-1.7-0.1-3.4-0.4-5.1l0,0c0,0,0,0,0,0l6.4-4.9c0.7-0.5,1.2-1.2,1.2-1.9
		c0-0.2,0-0.5-0.1-0.7l-2.7-6.5c-0.4-1-1.5-1.2-2.6-1.1l-8,1.1l0,0c-2-2.7-4.4-5.2-7.2-7.2h0l0,0c0,0,0,0,0,0h0l1.1-8
		c0-0.1,0-0.3,0-0.4C499.6,41,499.4,40.1,498.5,39.8z M495.4,83.4c-3.7,8.9-13.8,13.1-22.7,9.4c-6.7-2.8-10.7-9.2-10.7-15.9
		c0-2.3,0.4-4.6,1.3-6.8c3.7-8.9,13.8-13.1,22.7-9.4c6.6,2.8,10.7,9.2,10.7,15.9C496.7,78.9,496.3,81.2,495.4,83.4z"/>
	<path class="st2" d="M515.6,73.9L515.6,73.9c0-1,1.1-1.7,2-2.3l6.3-3.7c0,0,0,0,0,0l-6.3,3.7C516.6,72.2,515.6,72.9,515.6,73.9z"/>
	<path class="st2" d="M490.5,32.8c0.3,0.1,0.6,0.2,0.9,0.2C491.1,32.9,490.8,32.8,490.5,32.8z"/>
	<path class="st2" d="M502.8,37.9c0.2,0.1,0.3,0.2,0.5,0.3C503.1,38.1,503,38,502.8,37.9z"/>
	<path class="st2" d="M488.3,32.3c0.3,0.1,0.6,0.1,0.9,0.2C489,32.4,488.6,32.3,488.3,32.3z"/>
	<path class="st2" d="M520.6,57.9c0.2,0.5,0.4,0.9,0.6,1.4C521,58.8,520.8,58.3,520.6,57.9z"/>
	<path class="st2" d="M496.9,34.9c0.2,0.1,0.4,0.2,0.7,0.3C497.3,35.1,497.1,35,496.9,34.9z"/>
	<path class="st2" d="M494.8,34.1c0.2,0.1,0.5,0.2,0.7,0.3C495.3,34.3,495.1,34.2,494.8,34.1z"/>
	<path class="st2" d="M517.6,52.4c0.2,0.3,0.4,0.6,0.6,0.9C518,53,517.8,52.7,517.6,52.4z"/>
	<path class="st2" d="M498.9,35.8c0.2,0.1,0.4,0.2,0.6,0.3C499.3,36,499.1,35.9,498.9,35.8z"/>
	<path class="st2" d="M492.7,33.4c0.3,0.1,0.6,0.2,0.8,0.3C493.3,33.6,493,33.5,492.7,33.4z"/>
	<path class="st2" d="M500.9,36.8c0.2,0.1,0.3,0.2,0.5,0.3C501.2,37,501.1,36.9,500.9,36.8z"/>
	<path class="st2" d="M502.5,47.7c0-0.5,0.1-1.1,0.3-1.6l1.8-7.1c0,0,0,0,0,0l-1.8,7.1C502.6,46.6,502.5,47.2,502.5,47.7z"/>
	<path class="st2" d="M518.7,54.2c0.2,0.4,0.4,0.7,0.6,1.1C519.1,54.9,518.9,54.5,518.7,54.2z"/>
	<path class="st2" d="M517.1,102l-7.1-1.8c-1-0.3-2.3-0.5-3,0.2l-4,4c-0.4,0.4-0.5,0.9-0.5,1.4c0-0.5,0.1-1,0.5-1.4l4-4
		c0.7-0.7,2-0.5,3-0.2L517.1,102c3.3-4.9,5.6-10.4,6.8-16.4l0,0C522.7,91.6,520.3,97.1,517.1,102z"/>
	<path class="st2" d="M488.2,121.3l-3.7-6.3c-0.6-0.9-1.3-2-2.3-2h-5.7c-1,0-1.7,1.1-2.3,2l-4.3,7.2c-5.6,0-11.1,0-16.7,0L449,115
		c-0.6-0.9-1.3-2-2.3-2H441c-1,0-1.7,1.1-2.3,2l-4.3,7.2c-5.6,0-11.1,0-16.7,0l-4.3-7.2c-0.5-0.9-1.3-2-2.3-2h-5.7
		c-1,0-1.7,1.1-2.3,2l-4.3,7.2c-5.6,0-11.1,0-16.7,0L378,115c-0.5-0.9-1.3-2-2.3-2h-5.7c-1,0-1.7,1.1-2.3,2l-4.3,7.2
		c-5.6,0-11.1,0-16.7,0l-4.3-7.2c-0.6-0.9-1.3-2-2.3-2h-5.7c-1,0-1.7,1.1-2.3,2l-4.3,7.2c-5.6,0-11.1,0-16.7,0l-4.3-7.2
		c-0.6-0.9-1.3-2-2.3-2h-5.7c-1,0-1.7,1.1-2.3,2l-4.3,7.2c-5.6,0-11.1,0-16.7,0l-4.3-7.2c-0.6-0.9-1.3-2-2.3-2h-5.7
		c-1,0-1.7,1.1-2.3,2l-4.3,7.2c-5.6,0-11.2,0-16.7,0l-4.3-7.2c-0.6-0.9-1.3-2-2.3-2h-5.7c-1,0-1.7,1.1-2.3,2l-4.3,7.2
		c-5.6,0-11.1,0-16.7,0l-4.3-7.1c-0.6-0.9-1.3-2-2.3-2l-5.7,0c-1,0-1.7,1.1-2.3,2l-4.3,7.1c-5.6,0-11.1,0-16.7,0l-4.3-7.1
		c-0.6-0.9-1.3-2-2.3-2l-5.7,0c-1,0-1.7,1.1-2.3,2l-4.3,7.1c-5.5,0-11.1,0-16.6,0l-4.3-7.2c-0.6-0.9-1.3-2-2.3-2h-5.7
		c-1,0-1.7,1.1-2.3,2l-4.3,7.2c-5.6,0-11.1,0-16.7,0l-4.3-7.2c-0.6-0.9-1.3-2-2.3-2h-5.7c-1,0-1.7,1.1-2.3,2l-4.3,7.2
		c-5.6,0-11.2,0-16.7,0l-4.3-7.2c-0.6-0.9-1.3-2-2.3-2h-5.7c-1,0-1.7,1.1-2.3,2l-4.3,7.2c-2.6,0-5.3,0-7.9,0v0c2.6,0,5.3,0,7.9,0
		l4.3-7.2c0.5-0.9,1.3-2,2.3-2h5.7c1,0,1.7,1.1,2.3,2l4.3,7.2c5.6,0,11.2,0,16.7,0l4.3-7.2c0.6-0.9,1.2-2,2.3-2h5.7
		c1,0,1.7,1.1,2.3,2l4.3,7.2c5.6,0,11.1,0,16.7,0l4.3-7.2c0.6-0.9,1.3-2,2.3-2h5.7c1,0,1.7,1.1,2.3,2l4.3,7.2c5.5,0,11.1,0,16.6,0
		l4.3-7.1c0.5-0.9,1.3-2,2.3-2l5.7,0c1,0,1.7,1.1,2.3,2l4.3,7.1c5.6,0,11.1,0,16.7,0l4.3-7.1c0.6-0.9,1.3-2,2.3-2l5.7,0
		c1,0,1.7,1.1,2.3,2l4.3,7.1c5.6,0,11.1,0,16.7,0l4.3-7.2c0.5-0.9,1.3-2,2.3-2h5.7c1,0,1.7,1.1,2.3,2l4.3,7.2c5.6,0,11.2,0,16.7,0
		l4.3-7.2c0.6-0.9,1.2-2,2.3-2h5.7c1,0,1.7,1.1,2.3,2l4.3,7.2c5.6,0,11.1,0,16.7,0l4.3-7.2c0.6-0.9,1.3-2,2.3-2h5.7
		c1,0,1.7,1.1,2.3,2l4.3,7.2c5.6,0,11.1,0,16.7,0l4.3-7.2c0.6-0.9,1.3-2,2.3-2h5.7c1,0,1.7,1.1,2.3,2l4.3,7.2c5.6,0,11.1,0,16.7,0
		l4.3-7.2c0.6-0.9,1.2-2,2.3-2h5.7c1,0,1.7,1.1,2.3,2l4.3,7.2c5.6,0,11.1,0,16.7,0l4.3-7.2c0.6-0.9,1.2-2,2.3-2h5.7
		c1,0,1.7,1.1,2.3,2l4.3,7.2c5.6,0,11.1,0,16.7,0l4.3-7.2c0.5-0.9,1.3-2,2.3-2h5.7c1,0,1.7,1.1,2.3,2l4.3,7.2c5.6,0,11.1,0,16.7,0
		l4.3-7.2c0.6-0.9,1.3-2,2.3-2h5.7c1,0,1.7,1.1,2.3,2L488.2,121.3c6-1.2,11.5-3.5,16.4-6.8l0,0C499.7,117.8,494.1,120.1,488.2,121.3
		z"/>
	<path class="st2" d="M519.7,56c0.2,0.4,0.4,0.8,0.6,1.2C520.1,56.8,519.9,56.4,519.7,56z"/>
	<path class="st2" d="M522.8,63.8c0.2,0.6,0.4,1.2,0.5,1.8C523.2,65,523,64.4,522.8,63.8z"/>
	<path class="st2" d="M479.3,23.5c5.2,0,10.2,0.7,14.9,2.1C489.5,24.2,484.5,23.5,479.3,23.5l-442.9,0v0H479.3z"/>
	<path class="st2" d="M503.3,29.2c-1-0.5-1.9-0.9-2.9-1.4C501.3,28.2,502.3,28.7,503.3,29.2z"/>
	<path class="st2" d="M505.8,30.5c1.1,0.6,2.2,1.3,3.3,2C508,31.9,506.9,31.2,505.8,30.5z"/>
	<path class="st2" d="M516.1,38.2c-0.9-0.9-1.9-1.7-2.9-2.5C514.2,36.5,515.2,37.3,516.1,38.2z"/>
	<path class="st2" d="M523.4,65.9c0.2,0.6,0.3,1.3,0.4,1.9C523.7,67.2,523.6,66.6,523.4,65.9z"/>
	<path class="st2" d="M522.2,61.8c0.2,0.6,0.4,1.1,0.6,1.7C522.6,62.9,522.4,62.3,522.2,61.8z"/>
	<path class="st2" d="M521.4,59.8c0.2,0.5,0.4,1,0.6,1.5C521.8,60.8,521.6,60.3,521.4,59.8z"/>
	<path class="st2" d="M121.8,40.5h5.7c1,0,1.7-1.1,2.3-2l4.3-7.1c-6.3,0-12.5,0-18.8,0l4.3,7.1C120.1,39.4,120.8,40.5,121.8,40.5z"
		/>
	<path class="st2" d="M127.5,113h-5.7c-1,0-1.7,1.1-2.3,2l-4.3,7.2c6.3,0,12.5,0,18.8,0l-4.3-7.2C129.3,114.1,128.5,113,127.5,113z"
		/>
	<path class="st2" d="M86.4,40.5h5.7c1,0,1.7-1.1,2.3-2l4.3-7.1c-6.3,0-12.5,0-18.8,0l4.3,7.1C84.6,39.4,85.4,40.5,86.4,40.5z"/>
	<path class="st2" d="M92.1,113h-5.7c-1,0-1.7,1.1-2.3,2l-4.3,7.2c6.3,0,12.5,0,18.8,0l-4.3-7.2C93.8,114.1,93.1,113,92.1,113z"/>
	<path class="st2" d="M50.9,40.5l5.7,0c1,0,1.7-1.1,2.3-2l4.3-7.1c-6.3,0-12.5,0-18.8,0l4.3,7.1C49.2,39.4,49.9,40.5,50.9,40.5z"/>
	<path class="st2" d="M56.6,113h-5.7c-1,0-1.7,1.1-2.3,2l-4.3,7.2c6.3,0,12.5,0,18.8,0l-4.3-7.2C58.3,114.1,57.6,113,56.6,113z"/>
	<path class="st2" d="M476.5,40.5h5.7c1,0,1.7-1.1,2.3-2l3.7-6.3c-2.9-0.6-5.8-0.9-8.9-0.9c-3.1,0-6.3,0-9.4,0l4.3,7.1
		C474.7,39.4,475.4,40.5,476.5,40.5z"/>
	<path class="st2" d="M502.5,47.7c0,0.5,0.1,1,0.5,1.4l4,4c0.7,0.7,2,0.4,3,0.2l7.1-1.8c-3.3-4.9-7.6-9.2-12.5-12.5l-1.8,7.1
		C502.6,46.6,502.5,47.2,502.5,47.7z"/>
	<path class="st2" d="M515.6,73.9v5.7c0,1,1.1,1.7,2,2.3l6.3,3.7c0,0,0,0,0,0l0,0c0.6-2.9,0.9-5.8,0.9-8.9c0-3-0.3-6-0.9-8.9
		l-6.3,3.7C516.6,72.2,515.6,72.9,515.6,73.9z"/>
	<path class="st2" d="M507,100.4l-4,4c-0.4,0.4-0.5,0.8-0.5,1.4c0,0.5,0.1,1.1,0.3,1.6l1.8,7.1c0,0,0,0,0,0l0,0
		c5-3.3,9.2-7.6,12.5-12.5l-7.1-1.8C508.9,100,507.7,99.7,507,100.4z"/>
	<path class="st2" d="M482.1,113h-5.7c-1,0-1.7,1.1-2.3,2l-4.3,7.2c3.1,0,6.2,0,9.4,0c3,0,6-0.3,8.9-0.9l-3.7-6.3
		C483.9,114.1,483.2,113,482.1,113z"/>
	<path class="st2" d="M441,40.5h5.7c1,0,1.7-1.1,2.3-2l4.3-7.1c-6.3,0-12.5,0-18.8,0l4.3,7.1C439.3,39.4,440,40.5,441,40.5z"/>
	<path class="st2" d="M446.7,113H441c-1,0-1.7,1.1-2.3,2l-4.3,7.2c6.3,0,12.5,0,18.8,0L449,115C448.4,114.1,447.7,113,446.7,113z"/>
	<path class="st2" d="M405.5,40.5h5.7c1,0,1.7-1.1,2.3-2l4.3-7.1c-6.3,0-12.5,0-18.8,0l4.3,7.1C403.8,39.4,404.5,40.5,405.5,40.5z"
		/>
	<path class="st2" d="M411.2,113h-5.7c-1,0-1.7,1.1-2.3,2l-4.3,7.2c6.3,0,12.5,0,18.8,0l-4.3-7.2C412.9,114.1,412.2,113,411.2,113z"
		/>
	<path class="st2" d="M370.1,40.5h5.7c1,0,1.7-1.1,2.3-2l4.3-7.1c-6.3,0-12.5,0-18.8,0l4.3,7.1C368.3,39.4,369,40.5,370.1,40.5z"/>
	<path class="st2" d="M375.8,113h-5.7c-1,0-1.7,1.1-2.3,2l-4.3,7.2c6.3,0,12.5,0,18.8,0L378,115C377.5,114.1,376.8,113,375.8,113z"
		/>
	<path class="st2" d="M334.6,40.5h5.7c1,0,1.7-1.1,2.3-2l4.3-7.1c-6.3,0-12.5,0-18.8,0l4.3,7.1C332.9,39.4,333.6,40.5,334.6,40.5z"
		/>
	<path class="st2" d="M340.3,113h-5.7c-1,0-1.7,1.1-2.3,2l-4.3,7.2c6.3,0,12.5,0,18.8,0l-4.3-7.2C342,114.1,341.3,113,340.3,113z"/>
	<path class="st2" d="M299.1,40.5h5.7c1,0,1.7-1.1,2.3-2l4.3-7.1c-6.3,0-12.5,0-18.8,0l4.3,7.1C297.4,39.4,298.1,40.5,299.1,40.5z"
		/>
	<path class="st2" d="M304.8,113h-5.7c-1,0-1.7,1.1-2.3,2l-4.3,7.2c6.3,0,12.5,0,18.8,0l-4.3-7.2C306.5,114.1,305.8,113,304.8,113z"
		/>
	<path class="st2" d="M263.7,40.5h5.7c1,0,1.7-1.1,2.3-2l4.3-7.1c-6.3,0-12.5,0-18.8,0l4.3,7.1C261.9,39.4,262.7,40.5,263.7,40.5z"
		/>
	<path class="st2" d="M269.4,113h-5.7c-1,0-1.7,1.1-2.3,2l-4.3,7.2c6.3,0,12.5,0,18.8,0l-4.3-7.2C271.1,114.1,270.4,113,269.4,113z"
		/>
	<path class="st2" d="M228.2,40.5l5.7,0c1,0,1.7-1.1,2.3-2l4.3-7.1c-6.3,0-12.5,0-18.8,0l4.3,7.1C226.5,39.4,227.2,40.5,228.2,40.5z
		"/>
	<path class="st2" d="M233.9,113h-5.7c-1,0-1.7,1.1-2.3,2l-4.3,7.2c6.3,0,12.5,0,18.8,0l-4.3-7.2C235.6,114.1,234.9,113,233.9,113z"
		/>
	<path class="st2" d="M157.3,40.5l5.7,0c1,0,1.7-1.1,2.3-2l4.3-7.1c-6.3,0-12.5,0-18.8,0l4.3,7.1C155.5,39.4,156.2,40.5,157.3,40.5z
		"/>
	<path class="st2" d="M162.9,113l-5.7,0c-1,0-1.7,1.1-2.3,2l-4.3,7.1c6.3,0,12.5,0,18.8,0l-4.3-7.1C164.6,114.1,164,113,162.9,113z"
		/>
	<path class="st2" d="M192.7,40.5l5.7,0c1,0,1.7-1.1,2.3-2l4.3-7.1c-6.3,0-12.5,0-18.8,0l4.3,7.1C191,39.4,191.7,40.5,192.7,40.5z"
		/>
	<path class="st2" d="M198.4,113l-5.7,0c-1,0-1.7,1.1-2.3,2l-4.3,7.1c6.3,0,12.5,0,18.8,0l-4.3-7.1C200.1,114.1,199.4,113,198.4,113
		z"/>
	<path class="st2" d="M532.6,76.8L532.6,76.8c0,0.5,0,0.9,0,1.4c0,0.3,0,0.6,0,0.9c0,0,0,0.1,0,0.2c0,0.2,0,0.3,0,0.5
		c0,0.4,0,0.8-0.1,1.2v0c0,0.4-0.1,0.7-0.1,1.1c-0.1,1-0.2,1.9-0.4,2.9c0,0.2,0,0.3-0.1,0.5l0,0.2c0,0.2-0.1,0.4-0.1,0.7
		c0,0.1,0,0.3-0.1,0.4v0c-0.1,0.3-0.1,0.7-0.2,1c0,0.1,0,0.2-0.1,0.2c0,0.1,0,0.1,0,0.2c0,0.2-0.1,0.5-0.2,0.7c0,0,0,0,0,0
		c-0.1,0.4-0.2,0.8-0.3,1.3c-0.1,0.3-0.1,0.5-0.2,0.7c-0.1,0.2-0.1,0.4-0.2,0.5c0,0.1,0,0.2-0.1,0.2c-0.1,0.3-0.2,0.7-0.3,1
		c-0.1,0.4-0.3,0.8-0.4,1.2v0c-0.2,0.7-0.5,1.3-0.7,2c-0.1,0.2-0.1,0.3-0.2,0.5v0c-0.2,0.4-0.3,0.8-0.5,1.2
		c-0.2,0.4-0.3,0.8-0.5,1.2v0c-0.2,0.4-0.4,0.8-0.5,1.2c-0.2,0.4-0.4,0.8-0.6,1.2v0c-0.1,0.2-0.2,0.4-0.3,0.6
		c-0.3,0.6-0.6,1.1-0.9,1.7c-0.2,0.4-0.4,0.7-0.7,1.1c0,0.1-0.1,0.1-0.1,0.2c-0.1,0.1-0.2,0.3-0.3,0.5c-0.3,0.4-0.5,0.8-0.8,1.3
		c-0.3,0.5-0.7,1-1,1.5c-0.3,0.5-0.7,1-1.1,1.4c-0.3,0.4-0.6,0.8-1,1.2c0,0.1-0.1,0.1-0.1,0.2c0,0-0.1,0.1-0.1,0.1
		c-0.3,0.3-0.5,0.7-0.8,1c-0.1,0.1-0.1,0.1-0.2,0.2c0,0,0,0-0.1,0.1c-0.2,0.2-0.4,0.5-0.6,0.7c-0.1,0.1-0.1,0.2-0.2,0.3l-0.4,0.4
		c-0.4,0.4-0.8,0.8-1.1,1.2c-0.3,0.3-0.6,0.6-0.9,0.9c0,0,0,0,0,0v0c-0.3,0.3-0.6,0.6-0.9,0.9c-0.3,0.3-0.6,0.6-1,0.8
		c-0.3,0.3-0.6,0.5-1,0.8c0,0,0,0,0,0v0c-0.3,0.3-0.7,0.5-1,0.8c-0.3,0.3-0.7,0.5-1,0.8c-0.3,0.3-0.7,0.5-1,0.8
		c-0.7,0.5-1.4,1-2.1,1.4c-0.4,0.2-0.7,0.5-1.1,0.7c-0.4,0.2-0.7,0.4-1.1,0.7c-0.1,0.1-0.2,0.1-0.3,0.2c-0.2,0.1-0.4,0.2-0.6,0.3
		c-0.1,0-0.2,0.1-0.3,0.1v0c-0.4,0.2-0.8,0.4-1.1,0.6c-0.8,0.4-1.6,0.8-2.4,1.2c-0.3,0.1-0.6,0.3-0.9,0.4c-0.5,0.2-1,0.4-1.4,0.6
		c-0.7,0.3-1.5,0.6-2.2,0.8c-0.6,0.2-1.2,0.4-1.8,0.6c-0.4,0.1-0.8,0.2-1.2,0.3c-0.1,0-0.3,0.1-0.4,0.1c-0.3,0.1-0.7,0.2-1,0.3
		c-0.6,0.2-1.2,0.3-1.8,0.4c-0.5,0.1-1,0.2-1.5,0.3c-0.9,0.2-1.9,0.3-2.9,0.4c-0.5,0.1-0.9,0.1-1.3,0.1c-0.4,0-0.8,0.1-1.1,0.1
		c-0.6,0.1-1.3,0.1-2,0.1c-0.3,0-0.7,0-1,0c-0.5,0-0.9,0-1.4,0H36.4v-7.9h8l-1.6,2.7h22l-1.6-2.7h16.7l-1.6,2.7h22l-1.6-2.7h16.7
		l-1.6,2.7h22l-1.6-2.7h16.6l-1.6,2.7h22l-1.6-2.7h16.7l-1.6,2.7h22l-1.6-2.7h16.7l-1.6,2.7h22l-1.6-2.7h16.7l-1.6,2.7h22l-1.6-2.7
		h16.7l-1.6,2.7h22l-1.6-2.7h16.7l-1.6,2.7h22l-1.6-2.7h16.7l-1.6,2.7h22l-1.6-2.7H399l-1.6,2.7h22l-1.6-2.7h16.7l-1.6,2.7h22
		l-1.6-2.7h16.7l-1.6,2.7h22l-2.1-3.6c0.4-0.1,0.8-0.2,1.3-0.3c0.6-0.1,1.2-0.3,1.8-0.4c0.5-0.1,0.9-0.3,1.3-0.4
		c0.4-0.1,0.7-0.2,1.1-0.3c1.4-0.5,2.8-1,4.2-1.6c0.4-0.2,0.9-0.4,1.3-0.6c0,0,0.1,0,0.1,0c0.2-0.1,0.4-0.2,0.6-0.3
		c0.2-0.1,0.4-0.2,0.6-0.3c0.2-0.1,0.3-0.2,0.5-0.2c0.1-0.1,0.3-0.1,0.4-0.2c0.1,0,0.1-0.1,0.2-0.1c0.1,0,0.2-0.1,0.3-0.1
		c0,0,0.1,0,0.1-0.1c0.3-0.2,0.6-0.3,0.9-0.5v0c0.1,0,0.1-0.1,0.2-0.1c0,0,0.1-0.1,0.1-0.1c0.2-0.1,0.3-0.2,0.5-0.3
		c0.1-0.1,0.2-0.1,0.3-0.2c0.2-0.1,0.5-0.3,0.7-0.5l1,4.1l15.6-15.6l-4.1-1v0c3.3-4.9,5.6-10.4,6.8-16.4l3.6,2.2v-22l-3.6,2.2
		c0,0,0,0,0,0c0,0,0,0,0,0c-0.1-0.6-0.3-1.3-0.4-1.9c0-0.1,0-0.2-0.1-0.3c-0.2-0.6-0.3-1.2-0.5-1.8c0-0.1-0.1-0.2-0.1-0.3
		c-0.2-0.6-0.4-1.1-0.6-1.7c-0.1-0.2-0.1-0.3-0.2-0.4c-0.2-0.5-0.4-1-0.6-1.5c-0.1-0.2-0.1-0.4-0.2-0.5c-0.2-0.5-0.4-0.9-0.6-1.4
		c-0.1-0.2-0.2-0.5-0.3-0.7c-0.2-0.4-0.4-0.8-0.6-1.2c-0.1-0.3-0.3-0.5-0.4-0.8c-0.2-0.4-0.4-0.7-0.6-1.1c-0.2-0.3-0.3-0.6-0.5-0.9
		c-0.2-0.3-0.4-0.6-0.6-0.9c-0.1-0.1-0.2-0.3-0.3-0.4c0-0.1-0.1-0.1-0.1-0.2c0-0.1-0.1-0.1-0.1-0.2l4.1-1l-15.6-15.6l-1,4.1
		c-0.4-0.3-0.8-0.5-1.2-0.8c-0.2-0.1-0.3-0.2-0.5-0.3c-0.5-0.3-0.9-0.5-1.4-0.8c-0.2-0.1-0.3-0.2-0.5-0.3c-0.5-0.3-0.9-0.5-1.4-0.7
		c-0.2-0.1-0.4-0.2-0.6-0.3c-0.5-0.2-0.9-0.4-1.4-0.6c-0.2-0.1-0.4-0.2-0.7-0.3c-0.4-0.2-0.9-0.4-1.3-0.5c-0.3-0.1-0.5-0.2-0.7-0.3
		c-0.4-0.2-0.9-0.3-1.3-0.4c-0.3-0.1-0.5-0.2-0.8-0.3c-0.4-0.1-0.8-0.3-1.3-0.4c-0.3-0.1-0.6-0.2-0.9-0.3c-0.4-0.1-0.9-0.2-1.3-0.3
		c-0.3-0.1-0.6-0.1-0.9-0.2c0,0-0.1,0-0.2,0l2.1-3.6v0h-22l1.6,2.7h-16.7l1.6-2.7v0h-22l1.6,2.7h-16.7l1.6-2.7v0h-22l1.6,2.7h-16.7
		l1.6-2.7v0h-22l1.6,2.7h-16.7l1.6-2.7v0h-22l1.6,2.7h-16.7l1.6-2.7v0h-22l1.6,2.7h-16.7l1.6-2.7v0h-22l1.6,2.7h-16.7l1.6-2.7h-22v0
		l1.6,2.7H205l1.6-2.7h-22l1.6,2.7h-16.7l1.6-2.7h-22l1.6,2.7h-16.7l1.6-2.7v0h-22l1.6,2.7H98.6l1.6-2.7v0h-22l1.6,2.7H63.1l1.6-2.7
		h-22v0l1.6,2.7h-8v-7.9h442.9c5.2,0,10.2,0.7,14.9,2.1c2.1,0.6,4.2,1.3,6.1,2.2c1,0.4,2,0.9,2.9,1.4c0.5,0.2,1,0.5,1.4,0.8
		c0.4,0.2,0.8,0.4,1.1,0.6c1.1,0.6,2.2,1.3,3.3,2c0.7,0.5,1.4,1,2.1,1.5c0.7,0.5,1.4,1,2,1.6c1,0.8,2,1.7,2.9,2.5
		C526.3,47.9,532.6,61.6,532.6,76.8z"/>
	<path class="st2" d="M115.3,31.4c6.3,0,12.5,0,18.8,0l0,0c0,0,0,0,0,0l1.6-2.7v0h-22L115.3,31.4C115.3,31.4,115.3,31.4,115.3,31.4
		L115.3,31.4z"/>
	<path class="st2" d="M113.7,124.9L113.7,124.9l22,0l-1.6-2.7c-6.3,0-12.5,0-18.8,0L113.7,124.9z"/>
	<path class="st2" d="M79.8,31.4c6.3,0,12.5,0,18.8,0l0,0c0,0,0,0,0,0l1.6-2.7v0h-22L79.8,31.4C79.8,31.4,79.8,31.4,79.8,31.4
		L79.8,31.4z"/>
	<path class="st2" d="M78.2,124.9L78.2,124.9l22,0l-1.6-2.7c-6.3,0-12.5,0-18.8,0L78.2,124.9z"/>
	<path class="st2" d="M44.4,31.4c6.3,0,12.5,0,18.8,0l0,0c0,0,0,0,0,0l1.6-2.7h-22v0L44.4,31.4C44.4,31.4,44.4,31.4,44.4,31.4
		L44.4,31.4z"/>
	<path class="st2" d="M42.7,124.9h22v0l-1.6-2.7c-6.3,0-12.5,0-18.8,0L42.7,124.9z"/>
	<path class="st2" d="M469.9,31.4c3.1,0,6.3,0,9.4,0c3,0,6,0.3,8.9,0.9l0,0c0,0,0,0,0,0l2.1-3.6v0h-22L469.9,31.4
		C469.9,31.4,469.9,31.4,469.9,31.4L469.9,31.4z"/>
	<path class="st2" d="M517.1,51.5L517.1,51.5C517.1,51.5,517.1,51.5,517.1,51.5l4.1-1l0,0l-15.6-15.6l-1,4.1
		C509.5,42.3,513.7,46.6,517.1,51.5z"/>
	<path class="st2" d="M523.8,85.6l3.6,2.1h0v-22l-3.6,2.2c0.6,2.9,0.9,5.8,0.9,8.9C524.7,79.8,524.4,82.8,523.8,85.6z"/>
	<path class="st2" d="M504.5,114.5l1,4.1l0,0l15.6-15.6l-4.1-1C513.8,107,509.5,111.2,504.5,114.5z"/>
	<path class="st2" d="M469.9,122.2l-1.6,2.7v0h22l-2.2-3.6c-2.9,0.6-5.8,0.9-8.9,0.9C476.2,122.2,473.1,122.2,469.9,122.2z"/>
	<path class="st2" d="M434.5,31.4c6.3,0,12.5,0,18.8,0l0,0c0,0,0,0,0,0l1.6-2.7v0h-22L434.5,31.4C434.4,31.4,434.4,31.4,434.5,31.4
		L434.5,31.4z"/>
	<path class="st2" d="M432.8,124.9L432.8,124.9l22,0l-1.6-2.7c-6.3,0-12.5,0-18.8,0L432.8,124.9z"/>
	<path class="st2" d="M399,31.4c6.3,0,12.5,0,18.8,0l0,0c0,0,0,0,0,0l1.6-2.7v0h-22L399,31.4C399,31.4,399,31.4,399,31.4L399,31.4z"
		/>
	<path class="st2" d="M397.4,124.9L397.4,124.9l22,0l-1.6-2.7c-6.3,0-12.5,0-18.8,0L397.4,124.9z"/>
	<path class="st2" d="M363.5,31.4c6.3,0,12.5,0,18.8,0l0,0c0,0,0,0,0,0l1.6-2.7v0h-22L363.5,31.4C363.5,31.4,363.5,31.4,363.5,31.4
		L363.5,31.4z"/>
	<path class="st2" d="M361.9,124.9L361.9,124.9l22,0l-1.6-2.7c-6.3,0-12.5,0-18.8,0L361.9,124.9z"/>
	<path class="st2" d="M328.1,31.4c6.3,0,12.5,0,18.8,0l0,0c0,0,0,0,0,0l1.6-2.7v0h-22L328.1,31.4C328,31.4,328,31.4,328.1,31.4
		L328.1,31.4z"/>
	<path class="st2" d="M326.4,124.9L326.4,124.9l22,0l-1.6-2.7c-6.3,0-12.5,0-18.8,0L326.4,124.9z"/>
	<path class="st2" d="M292.6,31.4c6.3,0,12.5,0,18.8,0l0,0c0,0,0,0,0,0l1.6-2.7v0h-22L292.6,31.4C292.6,31.4,292.6,31.4,292.6,31.4
		L292.6,31.4z"/>
	<path class="st2" d="M291,124.9L291,124.9l22,0l-1.6-2.7c-6.3,0-12.5,0-18.8,0L291,124.9z"/>
	<path class="st2" d="M257.1,31.4c6.3,0,12.5,0,18.8,0l0,0c0,0,0,0,0,0l1.6-2.7v0h-22L257.1,31.4C257.1,31.4,257.1,31.4,257.1,31.4
		L257.1,31.4z"/>
	<path class="st2" d="M255.5,124.9L255.5,124.9l22,0l-1.6-2.7c-6.3,0-12.5,0-18.8,0L255.5,124.9z"/>
	<path class="st2" d="M221.7,31.4c6.3,0,12.5,0,18.8,0l0,0c0,0,0,0,0,0l1.6-2.7h-22v0L221.7,31.4C221.7,31.4,221.7,31.4,221.7,31.4
		L221.7,31.4z"/>
	<path class="st2" d="M220,124.9h22v0l-1.6-2.7c-6.3,0-12.5,0-18.8,0L220,124.9z"/>
	<path class="st2" d="M150.7,31.4c6.3,0,12.5,0,18.8,0l0,0c0,0,0,0,0,0l1.6-2.7h-22v0L150.7,31.4C150.7,31.4,150.7,31.4,150.7,31.4
		L150.7,31.4z"/>
	<path class="st2" d="M149.1,124.9h22v0l-1.6-2.7c-6.3,0-12.5,0-18.8,0L149.1,124.9z"/>
	<path class="st2" d="M186.2,31.4c6.3,0,12.5,0,18.8,0l0,0c0,0,0,0,0,0l1.6-2.7h-22v0L186.2,31.4C186.2,31.4,186.2,31.4,186.2,31.4
		L186.2,31.4z"/>
	<path class="st2" d="M184.5,124.9h22v0l-1.6-2.7c-6.3,0-12.5,0-18.8,0L184.5,124.9z"/>
	<polygon class="st3" points="27.7,31.4 27.7,31.4 27.7,31.4 27.7,31.4 	"/>
	<path class="st3" d="M22.7,114c0.3,0.3,0.5,0.7,0.7,1C23.2,114.7,22.9,114.3,22.7,114z"/>
	<rect x="27.6" y="122.2" class="st3" width="8.8" height="0"/>
</g>
</svg>
